<svg id="圖層_1" data-name="圖層 1" xmlns="http://www.w3.org/2000/svg" xmlns:xlink="http://www.w3.org/1999/xlink" viewBox="0 0 550 100"><defs><style>.cls-1{fill:none;}.cls-2{fill:#d61533;}.cls-3{fill:#fff;}.cls-4{fill:#e60033;}.cls-5{fill:#abcd03;}.cls-6{fill:#f39800;}.cls-7{fill:#38a1db;}.cls-8{clip-path:url(#clip-path);}</style><clipPath id="clip-path"><rect class="cls-1" x="-503" y="240" width="1920" height="880"/></clipPath></defs><title>banner-text-1</title><path class="cls-2" d="M389.18,52.3H384.6V25.66h-5.78V52.3h-4V25.66H369V52.3h-9.58V55.4s32.55,0,32.7,0a3.19,3.19,0,0,0,2.52-2.17V52.3Z"/><path class="cls-2" d="M367.6,50.91V44.67a1.58,1.58,0,0,1-1.12-1V43h0v-6.4h0V30.9H362.7V47.34C362.7,51.15,367.6,50.91,367.6,50.91Z"/><path class="cls-2" d="M386,50.91V44.67a1.58,1.58,0,0,0,1.12-1V43h0v-6.4h0V30.9h3.77V47.34C390.89,51.15,386,50.91,386,50.91Z"/><path class="cls-2" d="M409.39,29.64l2.16-3.31h-5.11l-2.16,3.31h-8.77V32.5h6.84L395.2,43.73h5.11L402,41.17V55.49h5.24V50.86c5,0,13.63,0,13.68,0A2.87,2.87,0,0,0,423,49.47v6h5v-17a2.49,2.49,0,0,0-1.68-2.52h-21l2-3.43h18.9a2.88,2.88,0,0,0,2.34-2v-.88ZM407.27,39H423v3.06H407.27Zm0,5.93c5,0,13.63,0,13.68,0A2.88,2.88,0,0,0,423,43.54V48H407.27Z"/><path class="cls-2" d="M522.65,36.67a2.85,2.85,0,0,0,2.32-2v-.87H503.06v2.84S522.58,36.68,522.65,36.67Z"/><path class="cls-2" d="M525,50.13v-9a2.48,2.48,0,0,0-1.67-2.56H503.06V50.13h14.46a2.85,2.85,0,0,0,2.26-1.81v1.82Zm-13.46-2.84h-3.26V41.4h11.53v5.88Z"/><path class="cls-2" d="M534.46,29.86a2.52,2.52,0,0,0-1.59-2.56h-29.8v2.84h26.2V52.67H525v2.84h8a2.46,2.46,0,0,0,1.52-2.22Z"/><polygon class="cls-2" points="467.88 42.1 473.44 42.1 478.92 32.25 473.35 32.25 467.88 42.1"/><polygon class="cls-2" points="492.79 27.3 476.12 27.3 476.1 27.3 474.52 30.14 488.81 30.14 495.45 42.1 501.01 42.1 492.79 27.3"/><path class="cls-2" d="M498.06,52.48l-3.33-4.6h-6.09l3.31,4.6H477.22l7-13.29h-6.09l-7.45,14.16c-.24.77-.3,2,1.68,2h25.33C499.74,54.81,498.48,53,498.06,52.48Z"/><path class="cls-2" d="M442.72,27.37a2.92,2.92,0,0,0-.53,0h.53Z"/><path class="cls-2" d="M442.72,27.37H431.87V55.24h4.74V49.62H442a2.15,2.15,0,0,0,1.55-1.89c0-.11,0-1.71,0-2.44a11,11,0,0,0-.9-4.35,11.88,11.88,0,0,0-2.29-3.42l3.6-7.86C444.59,27.82,443.45,27.44,442.72,27.37ZM436.6,30.2h3.31l-3.31,6.32Zm0,16.59v-8a9.45,9.45,0,0,1,1.58,1.48,8.29,8.29,0,0,1,1.31,2.12,7.5,7.5,0,0,1,.58,2.91c0,.51,0,1,0,1.5Z"/><path class="cls-2" d="M465.82,55.24l-6.3-6.5,4.79-5.23h-5.14L456.87,46l-4.65-4.79h4.88A2.81,2.81,0,0,0,459,40v1.23h5.13V29.65a2.42,2.42,0,0,0-1.63-2.28H444.87V55.24H450V44.53l10.39,10.71ZM450,30.2H459v2.69H450Zm0,5.52H459v2.71H450Z"/><path class="cls-2" d="M457.1,41.22h0Z"/><polygon class="cls-2" points="321.4 42.7 327.19 42.7 332.88 32.45 327.09 32.45 321.4 42.7"/><polygon class="cls-2" points="347.65 27.29 329.46 27.29 329.44 27.29 327.8 30.25 343.5 30.25 350.42 42.7 356.21 42.7 347.65 27.29"/><path class="cls-2" d="M343,52.25V47.87c6.85,0,6.29,0,6.37,0a3,3,0,0,0,2.47-2.09v-.92H343V37.23h-5.67v15h-5.08V44.61h-5v7.64h-5.08v3s31.1,0,31.25,0a3.13,3.13,0,0,0,2.47-2.13v-.91Z"/><path class="cls-2" d="M239.8,28.18h-5.37v1.46h-9.08V28.09h-5v1.55h-5.94V31.8h5.94v1.55h-1.45l-5.05,7.71,5,.05,3.29-4.52h2.6V39h-4v2.62h4v1.2a26,26,0,0,0-5.74.73v-.64h-4.62V55.69h4.62V53.44h5.74v2.24h4.44V53.44h4.42a2.2,2.2,0,0,0,1.42-.87v3.12h4.35V45.91a3,3,0,0,0-2.38-3.11h-7.81V41.61h7.66c2.65,0,2.48-3.4,2.48-3.4H234.9a1.1,1.1,0,0,1-.67.78h-5.14V36.6h12.45V55.69h5.2V38c0-3.45-2.44-3.62-2.44-3.62H239.8V31.81h5.6a2.16,2.16,0,0,0,1.74-1.51v-.66H239.8Zm-15.15,23.1h-5.74v-2h5.74Zm0-4.11h-5.74V45.51a20.05,20.05,0,0,1,4.69-.24h1Zm10.28,4.11h-5.84v-2l4.42,0a2.23,2.23,0,0,0,1.42-.84Zm0-6v1.9h-5.84v-1.9Zm-.5-10.91h-9.08V31.8h9.08Z"/><path class="cls-2" d="M287.55,28.6v2.84H300V40H287.55v2.81H300v9.56H287.55v2.83s29.78,0,29.93,0a2.91,2.91,0,0,0,2.3-2v-.84H305.33V42.8c6.39,0,12.07,0,12.15,0a2.83,2.83,0,0,0,2.3-2V40H305.33V31.43h12.15a2.92,2.92,0,0,0,2.3-2V28.6H287.55Z"/><path class="cls-2" d="M282.42,32a2.15,2.15,0,0,0,1.74-1.5v-.65h-7.31v-2h-5.41v2h-9.25v-2h-5.32v2h-5.48V32h5.48v1.72h-1.28L250,42.65l5.57-.07,1.59-2.31v2h4.56V45H251.55V47.1h10.14v5.82h-5.18V49.37h-5l-.1,3.55c0,3,3.07,3,3.07,3h19.33a2.94,2.94,0,0,0,3-3V49.44h-5.05v3.48h-4.9V47.1c8.25,0,8.21,0,8.25,0a2.14,2.14,0,0,0,1.74-1.49V45h-10V42.29h8.25a2.21,2.21,0,0,0,1.74-1.51v-.66H257.24l2.07-3H279V55.88h5V37.47c0-2.7-1.73-2.9-1.73-2.9h-5.48V32Zm-11,2.57h-9.25V32h9.25Z"/><path class="cls-2" d="M153.52,28.41v24h-13v2.94s30.91,0,31.05,0A3,3,0,0,0,174,53.31v-.88H159v-14c6.64,0,9.51,0,9.59,0a2.93,2.93,0,0,0,2.39-2v-.89H159V28.41Z"/><path class="cls-2" d="M208.15,45.8a2.93,2.93,0,0,0,2.39-2v-.89h-25.9v2.93C191.28,45.82,208.08,45.82,208.15,45.8Z"/><polygon class="cls-2" points="201.08 45.82 196.07 45.82 194.83 38.82 199.85 38.82 201.08 45.82"/><polygon class="cls-2" points="183.12 35.42 178.1 35.42 176.97 29.01 181.99 29.01 183.12 35.42"/><polygon class="cls-2" points="183.54 44.2 178.52 44.2 177.4 37.79 182.42 37.79 183.54 44.2"/><polygon class="cls-2" points="176.86 55.7 181.88 55.7 183.26 46.58 178.24 46.58 176.86 55.7"/><polygon class="cls-2" points="200.83 53.61 195.81 53.61 194.78 47.91 199.79 47.91 200.83 53.61"/><polygon class="cls-2" points="192.67 28.1 188.77 28.1 182.78 37.02 186.69 37.02 189.34 33.07 189.34 33.07 191.43 30.01 192.67 28.1"/><path class="cls-2" d="M191.92,29.19l-1.78,2.59H208.6A2.69,2.69,0,0,0,210.9,30v-.77Z"/><path class="cls-2" d="M207.49,34.15H186.77V55.39h14.39a2.83,2.83,0,0,0,2.25-1.79v-1H191.92V37H204V55.69h5.15v-19A2.46,2.46,0,0,0,207.49,34.15Z"/><path class="cls-3" d="M132.58,31.29a4.81,4.81,0,0,0-5.05-4.77H100a38.12,38.12,0,0,0-10.1-6.31h0c-1.12-.5-.67-1.12-.46-1.34l1.2-1.11a1.62,1.62,0,0,0,.59-1.3c-.11-.77-.63-1-1.61-1.26C65.27,9.72,50.38,22,45.83,26.53H20.58a4.78,4.78,0,0,0-5,4.45v42.9l0,.25a4.69,4.69,0,0,0,4.08,4.14l28.89,0c6,4.83,14.8,7.89,24.66,7.89s18.7-3.06,24.66-7.89H128a4.81,4.81,0,0,0,4.57-4.73V31.29Z"/><path class="cls-4" d="M108.71,50.18c0-.12,0-.25,0-.37,0-.3,0-.59-.06-.88,0-.13,0-.26,0-.39,0-.34-.07-.67-.11-1,0-.07,0-.13,0-.2-.05-.4-.11-.81-.18-1.21,0-.09,0-.18,0-.27-.06-.31-.12-.62-.18-.94,0-.11,0-.22-.07-.33-.07-.32-.15-.63-.23-.95,0-.07,0-.15-.06-.23q-.15-.6-.34-1.19l0-.07c-.12-.36-.24-.72-.36-1.08,0-.08-.06-.16-.09-.25-.12-.32-.24-.63-.36-.95l-.08-.19q-.46-1.15-1-2.24l-.07-.13c-.16-.33-.33-.65-.51-1l-.08-.15c-.41-.73-.84-1.44-1.3-2.13h0c-.23-.34-.46-.67-.7-1l-.08-.11c-.23-.32-.48-.65-.73-1a31.8,31.8,0,0,0-13.05-9.75,24.79,24.79,0,0,0-4.23-1.37l-.46-.12A32.64,32.64,0,0,0,63.9,23.53,25.54,25.54,0,1,0,99.54,54.68c.25-1.14-1-1.15-1-1.15h-7.4a3,3,0,0,1,.62-2.62,3.89,3.89,0,0,1,2.85-1.52h7.09s2.08.05,2.13,1.7a29.83,29.83,0,1,1-42-31c1.32-.65,11.87-5.52,26.12-2.33.42-.35.85-.69,1.28-1l-.79-.25c-18.07-3.88-30.89,3.17-35.93,6.72l-.25.19a37.6,37.6,0,0,0-12.51,17,31.92,31.92,0,0,0,16.46,40h0a22.7,22.7,0,0,0,2.11,1,37.49,37.49,0,0,0,7.68,2.23,38.64,38.64,0,0,0,4.86.55l.86,0h0l1.27,0h0l1.28,0h.11a37.71,37.71,0,0,0,4.16-.37h0a36.84,36.84,0,0,0,4.44-.93h0l.19-.05c.51-.14,1-.3,1.55-.47l.16-.06L86,82l.2-.07,1-.38.1,0L88.39,81l.06,0,1-.46.32-.15.77-.38.37-.19.76-.42.33-.18,1.09-.64h0a31.9,31.9,0,0,0,7.51-6.09c.34-.37.66-.75,1-1.14l.14-.17c.28-.35.56-.7.82-1.06l.06-.09c.29-.39.57-.79.84-1.19h0c.29-.43.56-.86.82-1.3h0a31.1,31.1,0,0,0,4.47-16.09C108.74,51,108.73,50.59,108.71,50.18ZM64,45a2.86,2.86,0,1,1,2.86,2.86A2.86,2.86,0,0,1,64,45ZM67.11,52A2.86,2.86,0,1,1,70,54.83,2.86,2.86,0,0,1,67.11,52Zm3.14,6.8a2.87,2.87,0,1,1,2.86,2.87A2.87,2.87,0,0,1,70.25,58.76ZM76.74,68A2.86,2.86,0,1,1,79.6,65.1,2.86,2.86,0,0,1,76.74,68Zm3.86-6.4a2.87,2.87,0,1,1,2.48-3.2A2.86,2.86,0,0,1,80.61,61.57ZM84,54.8a2.86,2.86,0,1,1,2.48-3.21A2.87,2.87,0,0,1,84,54.8Zm2.91-6.91a2.86,2.86,0,1,1,2.48-3.2A2.87,2.87,0,0,1,86.94,47.89Zm8.31-15.22a14.7,14.7,0,0,0-5.37,6.89,1.42,1.42,0,0,1-.4.58,2.83,2.83,0,0,1-1.26.28s-6.74.25-10,5.9c.06,0-1,1.41-.31,2.58h0c.29.37,1.11,1.34,1.11,1.34a2.85,2.85,0,0,1,.59,1.41,2.88,2.88,0,1,1-5.16-1.35h0s.71-.87,1-1.34c.7-1-.42-2.82-.42-2.82h0c-3.31-5.46-9.86-5.7-9.9-5.7a2.8,2.8,0,0,1-1.26-.28,1.4,1.4,0,0,1-.41-.58,14.69,14.69,0,0,0-5.37-6.89.63.63,0,0,1-.33-.61.94.94,0,0,1,.26-.48l2.5-2.34a2.92,2.92,0,0,1,1.1-.66,7.53,7.53,0,0,1,1.62-.19h8c2.78.32,3.42,3.27,3.42,3.27v.42c0,.24-.26.75-1,.31-5.2-3.08-10.23.63-10.59,3a.63.63,0,0,0,1.13.47c3.21-3.86,10.65-2,11.31,1.18l.65,3.55V41c0,.62,0,2.12,0,2.12a.82.82,0,0,0,.51.16h0a.83.83,0,0,0,.51-.16s0-1.5,0-2.12,0-.46,0-.46L77.88,37c.66-3.16,8.11-5,11.32-1.18a.62.62,0,0,0,1.12-.47c-.35-2.36-5.38-6.07-10.58-3-.74.44-1-.07-1-.31v-.42s.64-2.95,3.42-3.27H90.1a7.52,7.52,0,0,1,1.62.19,2.89,2.89,0,0,1,1.1.66l2.5,2.34a.94.94,0,0,1,.26.48A.63.63,0,0,1,95.25,32.67Z"/><path class="cls-5" d="M35.72,51.17a34.81,34.81,0,0,1,.68-6.85H17.16V60.5H37A34.82,34.82,0,0,1,35.72,51.17Z"/><path class="cls-5" d="M110.74,51.17a34.82,34.82,0,0,1-1.27,9.33H131V44.32h-20.9A34.81,34.81,0,0,1,110.74,51.17Z"/><path class="cls-6" d="M44.34,28.15H20.58a3.17,3.17,0,0,0-3.41,3V44.32H36.4A35.48,35.48,0,0,1,44.34,28.15Z"/><path class="cls-6" d="M131,44.32V31.4a3.22,3.22,0,0,0-3.43-3.25H102.12a35.45,35.45,0,0,1,7.94,16.17Z"/><path class="cls-7" d="M17.16,60.5V73.88a3.09,3.09,0,0,0,2.71,2.78H46.68A35.88,35.88,0,0,1,37,60.5Z"/><path class="cls-7" d="M131,73.45v-13H109.47a35.85,35.85,0,0,1-9.69,16.17h28.11A3.21,3.21,0,0,0,131,73.45Z"/><path class="cls-4" d="M290.25,68.14v.15A1.52,1.52,0,0,0,290.25,68.14Z"/><path class="cls-4" d="M303,64.62h0Z"/><path class="cls-4" d="M303.61,65.76a2,2,0,0,0,.23-.27Z"/><path class="cls-4" d="M234.94,68.75h-2.19v1.63h1.6v1.24a4.91,4.91,0,0,1-2,.35c-1.79,0-3.15-1-3.15-2.85s1.47-3,3.42-3a8.59,8.59,0,0,1,1.37.13l0,0A1.61,1.61,0,0,0,235.79,65a14.3,14.3,0,0,0-3.7-.51c-3.1,0-5.44,1.55-5.44,4.78,0,3.43,2.55,4.42,5.58,4.42a15.14,15.14,0,0,0,4.3-.61V70.23A1.49,1.49,0,0,0,234.94,68.75Z"/><path class="cls-4" d="M244,69.45v0c1.41-.33,2.68-.58,2.68-2.41,0-1.39-1-2.39-3.12-2.39h-5.86v8.88h2.55v-3.4h2a.92.92,0,0,1,.84.55l1.47,2.85h3l-1.48-2.61A3.3,3.3,0,0,0,244,69.45Zm-2.22-.79H240.3V66.07h2.22c1.14,0,1.67.46,1.67,1.22C244.18,68.27,243.65,68.66,241.83,68.66Z"/><path class="cls-4" d="M253.53,64.62h-1l-4.8,8.88h2.43l.71-1.42h4.81l.69,1.43h2.76l-4-7.82A1.89,1.89,0,0,0,253.53,64.62Zm-1.87,6,1.73-3.31L255,70.67Z"/><path class="cls-4" d="M212.06,64.64h-1l-4.8,8.88h2.43l.71-1.42h4.81l.69,1.43h2.76l-4-7.82A1.89,1.89,0,0,0,212.06,64.64Zm-1.87,6,1.73-3.31,1.64,3.31Z"/><path class="cls-4" d="M168.31,64.64h-1l-4.8,8.88H165l.71-1.42h4.81l.69,1.43h2.76l-4-7.82A1.89,1.89,0,0,0,168.31,64.64Zm-1.87,6,1.73-3.31,1.64,3.31Z"/><path class="cls-4" d="M263.34,64.62H260v8.88h2.55V70.05c.52,0,1,0,1.67,0,2.7,0,3.55-1.2,3.55-2.65C267.72,65.56,266.7,64.62,263.34,64.62Zm.19,4c-.34,0-.68,0-1,0V66.14c.34,0,.68-.07,1-.07,1.35,0,1.76.56,1.76,1.28S264.87,68.64,263.52,68.64Z"/><path class="cls-4" d="M276.15,72.06v-.34h-4.74V69.93h2.29a1.52,1.52,0,0,0,1.52-1.64v-.15h-3.81V66.41h3a1.44,1.44,0,0,0,1.42-1.56v-.23h-7v8.88H275A1.44,1.44,0,0,0,276.15,72.06Z"/><path class="cls-4" d="M288.83,65.76h0l.23-.27c.56-.75-.29-.85-.65-.87H287.1l-3.41,4.08V64.62h-2.55v8.88h2.55V69.27l4.21,4.24h3.15l-4.74-4.83Z"/><rect class="cls-4" x="291.9" y="64.62" width="2.61" height="8.88"/><rect class="cls-4" x="218.38" y="64.6" width="2.61" height="8.88"/><path class="cls-4" d="M303.18,70.27h0l-4-5.64h-2.63v8.88h2.32V68h0l2.93,4.11a3.32,3.32,0,0,0,2.46,1.44h1.24V64.62h-2.33Z"/><path class="cls-4" d="M181.27,70.29h0l-4-5.64h-2.63v8.88h2.32V68h0l2.93,4.11a3.32,3.32,0,0,0,2.46,1.44h1.24V64.64h-2.33Z"/><path class="cls-4" d="M315.18,68.75h-2.42v1.63h1.6v1.24a4.91,4.91,0,0,1-2,.35c-1.79,0-3.15-1-3.15-2.85s1.47-3,3.42-3a8.7,8.7,0,0,1,1.46.14A1.6,1.6,0,0,0,315.8,65v0a14.3,14.3,0,0,0-3.7-.51c-3.1,0-5.44,1.55-5.44,4.78,0,3.43,2.55,4.42,5.58,4.42a15.13,15.13,0,0,0,4.3-.61V70.14A1.41,1.41,0,0,0,315.18,68.75Z"/><path class="cls-4" d="M193.14,68.72h-2.42v1.63h1.6v1.24a4.91,4.91,0,0,1-2,.35c-1.79,0-3.15-1-3.15-2.85s1.47-3,3.42-3a8.7,8.7,0,0,1,1.46.14A1.6,1.6,0,0,0,193.75,65v0a14.3,14.3,0,0,0-3.7-.51c-3.1,0-5.44,1.55-5.44,4.78,0,3.43,2.55,4.42,5.58,4.42a15.13,15.13,0,0,0,4.3-.61V70.11A1.41,1.41,0,0,0,193.14,68.72Z"/><path class="cls-4" d="M151.87,64.63h2.62v8.91h-2.62Z"/><path class="cls-4" d="M159.13,64.63h2.62v8.91h-2.62Z"/><rect class="cls-4" x="154.22" y="68.37" width="5.19" height="1.43"/><path class="cls-4" d="M195.68,64.63h2.62v8.91h-2.62Z"/><path class="cls-4" d="M202.93,64.63h2.62v8.91h-2.62Z"/><rect class="cls-4" x="198.02" y="68.37" width="5.19" height="1.43"/><path class="cls-4" d="M145.83,66.45a8.6,8.6,0,0,1,2.16.18h.33a2.38,2.38,0,0,0,.82-.15,1.65,1.65,0,0,0,1.06-1.26l0-.14-.15,0c-.33-.06-.69-.12-1.08-.16l-.24,0c-2.63-.43-4.71-.19-5.84.67a2.34,2.34,0,0,0-.95,2.06,2,2,0,0,0,.84,1.53,4,4,0,0,0,.88.45,11.51,11.51,0,0,0,2.43.54c.69.1,1.69.42,1.72.94a.76.76,0,0,1-.37.7,2.11,2.11,0,0,1-.5.21,9.69,9.69,0,0,1-4.5-.57l-.92-.27,1.53,2.25a13.21,13.21,0,0,0,3,.49,5.4,5.4,0,0,0,2.75-.76l.34-.21a3.18,3.18,0,0,0,.6-.55,2.24,2.24,0,0,0,.54-1.64c-.08-1.16-.93-2-2.58-2.32l-1.89-.4c-.31-.07-.62-.16-.92-.25s-.5-.18-.51-.45a.46.46,0,0,1,.13-.37A1.77,1.77,0,0,1,145.83,66.45Z"/><g class="cls-8"><image width="1920" height="1440" transform="translate(-503 38.82) scale(1 0.99)" xlink:href="../../team-386673_1920.jpg"/></g></svg>