<svg id="圖層_1" data-name="圖層 1" xmlns="http://www.w3.org/2000/svg" viewBox="0 0 520 520"><defs><style>.cls-1{fill:#fff;opacity:0.3;}</style></defs><title>banner-text-1</title><path class="cls-1" d="M480.58,124.19c56.7,77.22,58.53,226.22-36.28,320.13-99,98.06-257.39,100-357.33,10.43-90.67-81.31-114.53-232.22-52.17-322,14.73,7.62,31.26,12,41.94,22.58A498.63,498.63,0,0,1,136,225.26c8.16,11.75,13.33,21.23,29.15,22.18,21,1.27,32.56,14.63,39.47,35,2.77,8.16,13.46,18.16,21.34,18.93,15.83,1.56,27.19,17,48.17,7.12,22.29-10.52,43-15.35,49.46-44.19,1.7-7.56,18.47-15,29.05-16.3,16-1.94,20.57-12.19,28.71-23.31,18.43-25.17,37.88-50.59,61.27-70.65C462.42,137,477.83,130.77,480.58,124.19ZM227.25,362.95c20.11,22.65,41.21,27.88,54.27,13.15,11.33-12.78,11.37-27.73-.17-40.64-14.81-16.57-29.46-13.34-52.62,10.3-23.81-24.45-39.89-26.78-56.36-8.5-12.91,14.33-9.15,27.71,2.84,39.51C189.55,390.89,209.43,385.64,227.25,362.95Zm30,60.66c.42-16.84-13.45-32.16-28.79-33.12-16.72-1-31.6,13.22-32.06,30.73-.41,15.72,16,33.82,31.1,32.22C245.06,451.58,255.24,440.56,257.22,423.61ZM163.91,258.25c-16.53-.17-30.79,12.48-31.76,28.17s14.51,31.65,31.07,31.53c18.22-.13,29.19-9.58,30.75-28.2C195.42,272.39,181.55,258.43,163.91,258.25Zm93.53,258c20.84-.36,34.43-14.33,34.42-30.71,0-15-15.64-31.62-29.78-31.72-15.76-.11-33.12,17.07-30.86,32.76C233.69,503.68,243.16,515.56,257.44,516.2Zm39.69-65.43c17.32-2,29.26-10.55,29-29.71-.25-18.56-11.48-28.91-29.13-30.39-16.74-1.4-30.67,13.8-30.15,31.46C267.44,441.68,278.94,449.64,297.13,450.77Zm61.63-193.28c-20.76.25-32,12.27-31.83,30.48.18,17.38,13.21,31.33,29.38,29.77C374,316,385,306.63,384.69,287S373.28,259,358.76,257.48Zm-.22,98.22c-2.42-19.07-13.29-30.29-30.78-30-17.21.32-29.48,10.94-29.62,30-.15,19.55,11.68,28.21,30,28.32C347,384.12,356,373.17,358.54,355.7Z"/><path class="cls-1" d="M88.2,126.34c-3.61-9.79-3-33.91-32.76-23.08C151-31.55,363-37.6,467.73,104.27c-27.84-11.4-34.11,7.25-40.25,31.28-17.08-30.38-41.94-25.85-65.88-24.67C339,112,316.28,114.7,293.75,113.7c-20.35-.9-31.15,5.43-31.24,27,0,3.7-1.1,7.4-1.86,12.15-2.35-1.92-4-2.59-4.09-3.43-3.83-34.9-3.81-34.91-39.87-34.92-26.57,0-53.22-1.29-79.67.5C121.42,116,106.16,122,88.2,126.34Z"/></svg>