<svg id="圖層_1" data-name="圖層 1" xmlns="http://www.w3.org/2000/svg" xmlns:xlink="http://www.w3.org/1999/xlink" viewBox="0 0 1920 880"><defs><style>.cls-1{fill:none;}.cls-2{clip-path:url(#clip-path);}.cls-3{fill:url(#未命名漸層_43);}.cls-4{fill:#fff;opacity:0.3;}</style><clipPath id="clip-path"><rect class="cls-1" width="1920" height="880"/></clipPath><linearGradient id="未命名漸層_43" x1="529.94" y1="1185.96" x2="1390.06" y2="-303.81" gradientUnits="userSpaceOnUse"><stop offset="0" stop-color="#171c61" stop-opacity="0.1"/><stop offset="0.35" stop-color="#006934" stop-opacity="0.11"/><stop offset="0.46" stop-color="#3c4e1a" stop-opacity="0.16"/><stop offset="0.62" stop-color="#603e0a" stop-opacity="0.19"/><stop offset="1" stop-color="#6a3906" stop-opacity="0.2"/></linearGradient></defs><title>banner-text-1</title><g class="cls-2"><image width="1920" height="1440" transform="translate(0 -201.18) scale(1 0.99)" xlink:href="../../team-386673_1920.jpg"/></g><rect class="cls-3" y="2.15" width="1920" height="877.85"/><path class="cls-4" d="M1679.14,306.88c57.13,75.77,59,222-36.55,314.14-99.75,96.23-259.35,98.18-360.06,10.23-91.36-79.79-115.41-227.88-52.57-316,14.84,7.48,31.5,11.81,42.26,22.15a492.84,492.84,0,0,1,59.67,68.64c8.22,11.53,13.43,20.83,29.37,21.77,21.16,1.24,32.8,14.36,39.77,34.34,2.79,8,13.56,17.82,21.5,18.58,15.95,1.53,27.4,16.7,48.53,7,22.46-10.33,43.29-15.07,49.83-43.36,1.71-7.42,18.62-14.74,29.28-16,16.12-1.9,20.73-12,28.93-22.87,18.57-24.69,38.17-49.65,61.74-69.33C1660.84,319.47,1676.37,313.34,1679.14,306.88ZM1423.87,541.17c20.26,22.23,41.52,27.36,54.68,12.91,11.42-12.54,11.46-27.21-.17-39.88-14.93-16.26-29.68-13.09-53,10.1-24-24-40.19-26.28-56.79-8.34-13,14.07-9.22,27.19,2.86,38.77C1385.88,568.59,1405.92,563.44,1423.87,541.17Zm30.21,59.52c.42-16.52-13.55-31.56-29-32.5-16.85-1-31.84,13-32.31,30.15-.42,15.43,16.14,33.19,31.33,31.62C1441.83,628.14,1452.08,617.33,1454.08,600.69Zm-94-162.26c-16.65-.17-31,12.25-32,27.64s14.62,31.05,31.3,30.94c18.36-.12,29.42-9.4,31-27.68C1391.8,452.3,1377.83,438.61,1360.05,438.43Zm94.24,253.13c21-.36,34.69-14.06,34.68-30.14,0-14.69-15.76-31-30-31.13-15.88-.11-33.37,16.75-31.09,32.15C1430.37,679.27,1439.91,690.93,1454.3,691.55Zm40-64.21c17.46-2,29.48-10.35,29.22-29.15-.25-18.21-11.56-28.37-29.35-29.82-16.87-1.37-30.91,13.54-30.38,30.87C1464.37,618.43,1476,626.24,1494.29,627.34Zm62.1-189.67c-20.91.24-32.26,12-32.07,29.91.18,17.06,13.31,30.75,29.61,29.21,17.82-1.68,28.92-10.89,28.6-30.17S1571,439.19,1556.39,437.67Zm-.23,96.38c-2.44-18.71-13.39-29.72-31-29.4-17.34.31-29.7,10.74-29.85,29.39-.15,19.19,11.77,27.68,30.21,27.79C1544.52,561.95,1553.65,551.2,1556.16,534.05Z"/><path class="cls-4" d="M1283.77,309c-3.64-9.6-3-33.28-33-22.64,96.27-132.3,309.95-138.23,415.44,1-28.05-11.19-34.37,7.11-40.56,30.7-17.21-29.81-42.26-25.37-66.38-24.21-22.8,1.1-45.67,3.74-68.38,2.76-20.51-.89-31.39,5.33-31.48,26.47,0,3.63-1.11,7.26-1.88,11.92-2.37-1.88-4-2.54-4.12-3.37-3.85-34.25-3.84-34.26-40.17-34.26-26.77,0-53.63-1.26-80.28.49C1317.24,298.87,1301.86,304.7,1283.77,309Z"/></svg>