<svg id="圖層_1" data-name="圖層 1" xmlns="http://www.w3.org/2000/svg" viewBox="0 0 746.37 349"><defs><style>.cls-1{fill:#369ed8;}.cls-2{fill:#a8ca03;}.cls-3{fill:#f09400;}.cls-4{fill:#e30032;}.cls-5,.cls-9{font-size:19.82px;}.cls-10,.cls-5,.cls-8{fill:#fff;}.cls-5,.cls-8{font-family:MicrosoftJhengHeiBold, Microsoft JhengHei;}.cls-6,.cls-8{font-size:42.98px;}.cls-7{letter-spacing:0em;}</style></defs><title>production_flow</title><rect class="cls-1" y="269.34" width="734.79" height="79.66"/><rect class="cls-2" x="0.12" y="189.68" width="638.83" height="79.66"/><rect class="cls-3" x="0.41" y="110.02" width="549.88" height="79.66"/><rect class="cls-4" x="0.39" y="30.35" width="465.24" height="79.66"/><text class="cls-5" transform="translate(40.22 82.92)">生產廠區占地 <tspan class="cls-6" x="123.85" y="0">170 </tspan><tspan class="cls-7" x="211.4" y="0">畝</tspan></text><text class="cls-5" transform="translate(38.43 166.95)">GMP廠房 <tspan class="cls-6" x="91.51" y="0">12500 </tspan><tspan x="230.26" y="0">平方米</tspan></text><text class="cls-8" transform="translate(39.9 247.8)">10 <tspan class="cls-9" x="61.95" y="0" xml:space="preserve"> 萬級製造環境(液體灌裝1萬級) </tspan></text><text class="cls-8" transform="translate(40.29 326.27)">GMP<tspan class="cls-9" x="101.77" y="0">合格製造廠(符合生產保健品食品衛生標準) </tspan></text><rect class="cls-10" x="415.31" y="15.15" width="11.98" height="95.04"/><rect class="cls-10" x="499.18" y="95.02" width="11.98" height="95.04"/><rect class="cls-10" x="590.23" y="174.89" width="11.98" height="95.04"/><rect class="cls-10" x="684.47" y="253.96" width="11.98" height="95.04"/><polyline class="cls-4" points="414.96 30.73 445.69 0 476.41 30.73"/><polyline class="cls-3" points="500.42 110.59 531.15 79.87 561.87 110.59"/><polyline class="cls-2" points="589.07 190.46 619.8 159.74 650.53 190.46"/><polyline class="cls-1" points="684.92 269.53 715.64 238.81 746.37 269.53"/></svg>