<svg id="圖層_1" data-name="圖層 1" xmlns="http://www.w3.org/2000/svg" viewBox="0 0 746.37 349"><defs><style>.cls-1{fill:#369ed8;}.cls-2{fill:#a8ca03;}.cls-3{fill:#f09400;}.cls-4{fill:#e30032;}.cls-5{font-size:18px;font-family:MicrosoftJhengHeiBold, Microsoft JhengHei;}.cls-13,.cls-5{fill:#fff;}.cls-6{letter-spacing:-0.01em;}.cls-7{letter-spacing:-0.04em;}.cls-8{letter-spacing:-0.01em;}.cls-9{letter-spacing:0.04em;}.cls-10{letter-spacing:-0.01em;}.cls-11{letter-spacing:0.01em;}.cls-12{letter-spacing:-0.02em;}</style></defs><title>production_flow_en</title><rect class="cls-1" y="269.34" width="734.79" height="79.66"/><rect class="cls-2" x="0.12" y="189.68" width="638.83" height="79.66"/><rect class="cls-3" x="0.41" y="110.02" width="549.88" height="79.66"/><rect class="cls-4" x="0.39" y="30.35" width="465.24" height="79.66"/><text class="cls-5" transform="translate(17.25 77.92)">P<tspan class="cls-6" x="11.26" y="0">r</tspan><tspan x="18.11" y="0">oduction </tspan><tspan class="cls-7" x="100.92" y="0">F</tspan><tspan x="109.91" y="0">ac</tspan><tspan class="cls-8" x="129.1" y="0">t</tspan><tspan x="135.89" y="0">o</tspan><tspan class="cls-9" x="147.45" y="0">r</tspan><tspan x="155.34" y="0">y co</tspan><tspan class="cls-10" x="190.28" y="0">v</tspan><tspan x="199.91" y="0">e</tspan><tspan class="cls-11" x="210.2" y="0">r</tspan><tspan x="217.43" y="0">s an a</tspan><tspan class="cls-6" x="266.38" y="0">r</tspan><tspan x="273.23" y="0">ea </tspan><tspan class="cls-12" x="298.11" y="0">o</tspan><tspan x="309.32" y="0">f 170 Mu</tspan></text><path class="cls-13" d="M616.38,510a9.38,9.38,0,0,1-4.7,1.15,6.52,6.52,0,0,1-4.88-1.85,6.8,6.8,0,0,1-1.83-5,7,7,0,0,1,7.24-7.23,9.43,9.43,0,0,1,3.76.68v2.16a7.28,7.28,0,0,0-3.89-1,4.6,4.6,0,0,0-3.52,1.45,6.1,6.1,0,0,0-.11,7.59,4.44,4.44,0,0,0,3.41,1.36,5,5,0,0,0,2.4-.53v-3.41h-2.89v-1.79h5Z" transform="translate(-587 -366)"/><path class="cls-13" d="M631.71,511v-8.79c0-.77,0-1.68.13-2.74h-.05a11.68,11.68,0,0,1-.42,1.49l-4.14,10h-1.38l-4.15-10a10.15,10.15,0,0,1-.42-1.57h0q.09,1.23.09,3V511h-2V497.33h2.94l3.68,9a11,11,0,0,1,.58,1.75h.06c.11-.37.31-1,.61-1.77l3.75-9h2.83V511Z" transform="translate(-587 -366)"/><path class="cls-13" d="M639.33,506v5h-2.11V497.33h4.11a5.25,5.25,0,0,1,3.54,1.07,3.87,3.87,0,0,1,1.23,3.1,4.1,4.1,0,0,1-1.47,3.29A5.1,5.1,0,0,1,641,506Zm0-6.86v5.11h1.51c2,0,3-.88,3-2.62s-1-2.49-2.93-2.49Z" transform="translate(-587 -366)"/><path class="cls-13" d="M660.22,499.14h-5.14v4.23h4.74v1.8h-4.74V511H653V497.33h7.24Z" transform="translate(-587 -366)"/><path class="cls-13" d="M662,501.88a6.56,6.56,0,0,1,3.43-.88q3.69,0,3.69,3.8V511h-2v-1.48h0a3.2,3.2,0,0,1-2.95,1.7,3.15,3.15,0,0,1-2.26-.77,2.7,2.7,0,0,1-.82-2.08q0-2.74,3.26-3.2l2.82-.39c0-1.44-.63-2.17-1.91-2.17A5.13,5.13,0,0,0,662,503.7Zm3,4.55a2.76,2.76,0,0,0-1.49.53,1.52,1.52,0,0,0-.44,1.17,1.36,1.36,0,0,0,.47,1.05,1.75,1.75,0,0,0,1.19.4,2.26,2.26,0,0,0,1.73-.73,2.64,2.64,0,0,0,.68-1.85v-.86Z" transform="translate(-587 -366)"/><path class="cls-13" d="M678.7,510.53a5.26,5.26,0,0,1-2.75.64,4.6,4.6,0,0,1-3.45-1.34,4.85,4.85,0,0,1-1.31-3.52,5.29,5.29,0,0,1,1.41-3.87,5,5,0,0,1,3.77-1.44,5.12,5.12,0,0,1,2.35.46v1.94a3.75,3.75,0,0,0-2.24-.75,3,3,0,0,0-2.31,1,3.63,3.63,0,0,0-.88,2.57,3.45,3.45,0,0,0,.84,2.46,2.92,2.92,0,0,0,2.25.89,3.87,3.87,0,0,0,2.32-.79Z" transform="translate(-587 -366)"/><path class="cls-13" d="M685.91,510.84a3.34,3.34,0,0,1-1.65.33c-1.84,0-2.76-1-2.76-3v-5.3h-1.65v-1.63h1.65V499l2-.62v2.9h2.36v1.63h-2.36v4.94a2.15,2.15,0,0,0,.32,1.31,1.25,1.25,0,0,0,1,.4,1.69,1.69,0,0,0,1-.31Z" transform="translate(-587 -366)"/><path class="cls-13" d="M687.08,506.17a5.14,5.14,0,0,1,1.36-3.78,5,5,0,0,1,3.73-1.39,4.66,4.66,0,0,1,3.51,1.34A5.1,5.1,0,0,1,697,506a5.16,5.16,0,0,1-1.36,3.75,4.82,4.82,0,0,1-3.64,1.4,4.74,4.74,0,0,1-3.56-1.36A5,5,0,0,1,687.08,506.17Zm2.1,0a3.69,3.69,0,0,0,.78,2.5,2.65,2.65,0,0,0,2.11.89q2.8,0,2.8-3.45a4,4,0,0,0-.72-2.55,2.54,2.54,0,0,0-2.08-.87,2.61,2.61,0,0,0-2.13.93A3.9,3.9,0,0,0,689.18,506.13Z" transform="translate(-587 -366)"/><path class="cls-13" d="M704.79,503.19a2.29,2.29,0,0,0-1.22-.29,1.92,1.92,0,0,0-1.62.87,4,4,0,0,0-.62,2.33V511h-2.06v-9.72h2.06v1.93h0a2.63,2.63,0,0,1,2.55-2.1,2.5,2.5,0,0,1,.86.12Z" transform="translate(-587 -366)"/><path class="cls-13" d="M715.42,501.23l-4.28,11q-1.27,3.28-3.69,3.29a4.08,4.08,0,0,1-1.28-.17v-1.74a2.58,2.58,0,0,0,1.05.23,1.82,1.82,0,0,0,1.72-1.29l.67-1.62-3.85-9.7h2.3l2.33,6.93a7.55,7.55,0,0,1,.23.93h0a9.15,9.15,0,0,1,.23-.91l2.44-6.95Z" transform="translate(-587 -366)"/><path class="cls-13" d="M728.32,510.53a5.32,5.32,0,0,1-2.76.64,4.6,4.6,0,0,1-3.44-1.34,4.82,4.82,0,0,1-1.32-3.52,5.26,5.26,0,0,1,1.42-3.87,5.83,5.83,0,0,1,6.11-1v1.94a3.75,3.75,0,0,0-2.24-.75,3,3,0,0,0-2.31,1,3.67,3.67,0,0,0-.88,2.57,3.45,3.45,0,0,0,.84,2.46,2.93,2.93,0,0,0,2.26.89,3.87,3.87,0,0,0,2.32-.79Z" transform="translate(-587 -366)"/><path class="cls-13" d="M729.91,506.17a5.14,5.14,0,0,1,1.36-3.78A5,5,0,0,1,735,501a4.66,4.66,0,0,1,3.51,1.34A5.1,5.1,0,0,1,739.8,506a5.16,5.16,0,0,1-1.36,3.75,4.82,4.82,0,0,1-3.64,1.4,4.74,4.74,0,0,1-3.56-1.36A5,5,0,0,1,729.91,506.17Zm2.1,0a3.74,3.74,0,0,0,.77,2.5,2.69,2.69,0,0,0,2.12.89q2.8,0,2.8-3.45a4,4,0,0,0-.72-2.55,2.54,2.54,0,0,0-2.08-.87,2.61,2.61,0,0,0-2.13.93A3.9,3.9,0,0,0,732,506.13Z" transform="translate(-587 -366)"/><path class="cls-13" d="M750.31,501.23,746.53,511h-2.19l-3.61-9.72H743l2.18,6.68a7.09,7.09,0,0,1,.35,1.49h0a6.77,6.77,0,0,1,.32-1.44l2.27-6.73Z" transform="translate(-587 -366)"/><path class="cls-13" d="M759.86,506.64h-6.68q.14,2.94,3,2.94a4.9,4.9,0,0,0,2.94-1v1.7a6.15,6.15,0,0,1-3.42.85,4.36,4.36,0,0,1-3.38-1.31,5.2,5.2,0,0,1-1.22-3.69,5.31,5.31,0,0,1,1.31-3.71A4.22,4.22,0,0,1,755.7,501a3.88,3.88,0,0,1,3.07,1.24,5,5,0,0,1,1.09,3.42Zm-2-1.5a2.93,2.93,0,0,0-.58-1.92,2,2,0,0,0-1.6-.67,2.22,2.22,0,0,0-1.63.71,3.26,3.26,0,0,0-.86,1.88Z" transform="translate(-587 -366)"/><path class="cls-13" d="M767.53,503.19a2.26,2.26,0,0,0-1.21-.29,1.9,1.9,0,0,0-1.62.87,3.94,3.94,0,0,0-.62,2.33V511H762v-9.72h2.07v1.93h0a2.63,2.63,0,0,1,2.55-2.1,2.5,2.5,0,0,1,.86.12Z" transform="translate(-587 -366)"/><path class="cls-13" d="M768.79,508.69a5,5,0,0,0,2.83.92c1.29,0,1.93-.4,1.93-1.19a1,1,0,0,0-.4-.83,8.21,8.21,0,0,0-1.82-.84,4.84,4.84,0,0,1-2-1.22,2.48,2.48,0,0,1-.52-1.62,2.45,2.45,0,0,1,1.12-2.13,4.78,4.78,0,0,1,2.79-.78,6.66,6.66,0,0,1,2.38.42v1.83a4.59,4.59,0,0,0-2.48-.69,2.18,2.18,0,0,0-1.26.33,1,1,0,0,0-.49.85,1,1,0,0,0,.36.82,6.63,6.63,0,0,0,1.64.79,5.49,5.49,0,0,1,2.16,1.23,2.4,2.4,0,0,1,.57,1.63,2.5,2.5,0,0,1-1.12,2.17,5,5,0,0,1-3,.79,6.46,6.46,0,0,1-2.73-.54Z" transform="translate(-587 -366)"/><path class="cls-13" d="M782.48,501.88a6.6,6.6,0,0,1,3.44-.88q3.68,0,3.68,3.8V511h-2v-1.48h-.05a3.19,3.19,0,0,1-2.95,1.7,3.12,3.12,0,0,1-2.25-.77,2.71,2.71,0,0,1-.83-2.08q0-2.74,3.27-3.2l2.82-.39c0-1.44-.64-2.17-1.91-2.17a5.13,5.13,0,0,0-3.22,1.14Zm3,4.55A2.79,2.79,0,0,0,784,507a1.52,1.52,0,0,0-.43,1.17,1.35,1.35,0,0,0,.46,1.05,1.76,1.76,0,0,0,1.2.4,2.25,2.25,0,0,0,1.72-.73,2.6,2.6,0,0,0,.69-1.85v-.86Z" transform="translate(-587 -366)"/><path class="cls-13" d="M800.87,511h-2.06v-5.5c0-1.87-.68-2.8-2-2.8a2.16,2.16,0,0,0-1.7.78,2.89,2.89,0,0,0-.67,2V511h-2.07v-9.72h2.07v1.59h0a3.47,3.47,0,0,1,3.17-1.82q3.25,0,3.26,4Z" transform="translate(-587 -366)"/><path class="cls-13" d="M808.34,501.88a6.6,6.6,0,0,1,3.44-.88q3.68,0,3.68,3.8V511h-2v-1.48h-.05a3.2,3.2,0,0,1-2.95,1.7,3.15,3.15,0,0,1-2.26-.77,2.74,2.74,0,0,1-.82-2.08q0-2.74,3.26-3.2l2.82-.39c0-1.44-.63-2.17-1.9-2.17a5.13,5.13,0,0,0-3.22,1.14Zm3,4.55a2.79,2.79,0,0,0-1.49.53,1.52,1.52,0,0,0-.44,1.17,1.36,1.36,0,0,0,.47,1.05,1.76,1.76,0,0,0,1.2.4,2.25,2.25,0,0,0,1.72-.73,2.6,2.6,0,0,0,.68-1.85v-.86Z" transform="translate(-587 -366)"/><path class="cls-13" d="M823.71,503.19a2.26,2.26,0,0,0-1.21-.29,1.9,1.9,0,0,0-1.62.87,3.94,3.94,0,0,0-.62,2.33V511h-2.07v-9.72h2.07v1.93h0a2.63,2.63,0,0,1,2.55-2.1,2.5,2.5,0,0,1,.86.12Z" transform="translate(-587 -366)"/><path class="cls-13" d="M833.18,506.64H826.5c.09,2,1.08,2.94,3,2.94a4.92,4.92,0,0,0,2.94-1v1.7a6.15,6.15,0,0,1-3.42.85,4.36,4.36,0,0,1-3.38-1.31,5.2,5.2,0,0,1-1.22-3.69,5.31,5.31,0,0,1,1.31-3.71A4.21,4.21,0,0,1,829,501a3.86,3.86,0,0,1,3.06,1.24,5,5,0,0,1,1.1,3.42Zm-2-1.5a2.88,2.88,0,0,0-.57-1.92,2,2,0,0,0-1.6-.67,2.22,2.22,0,0,0-1.63.71,3.26,3.26,0,0,0-.86,1.88Z" transform="translate(-587 -366)"/><path class="cls-13" d="M835.57,501.88A6.56,6.56,0,0,1,839,501q3.69,0,3.69,3.8V511h-2v-1.48h0a3.2,3.2,0,0,1-2.95,1.7,3.15,3.15,0,0,1-2.26-.77,2.7,2.7,0,0,1-.82-2.08q0-2.74,3.26-3.2l2.82-.39c0-1.44-.63-2.17-1.9-2.17a5.13,5.13,0,0,0-3.22,1.14Zm3,4.55a2.76,2.76,0,0,0-1.49.53,1.52,1.52,0,0,0-.44,1.17,1.36,1.36,0,0,0,.47,1.05,1.75,1.75,0,0,0,1.19.4,2.26,2.26,0,0,0,1.73-.73,2.64,2.64,0,0,0,.68-1.85v-.86Z" transform="translate(-587 -366)"/><path class="cls-13" d="M849.3,506.17a5.14,5.14,0,0,1,1.36-3.78,5,5,0,0,1,3.73-1.39,4.66,4.66,0,0,1,3.51,1.34,5.1,5.1,0,0,1,1.29,3.68,5.16,5.16,0,0,1-1.36,3.75,4.82,4.82,0,0,1-3.64,1.4,4.74,4.74,0,0,1-3.56-1.36A5,5,0,0,1,849.3,506.17Zm2.1,0a3.74,3.74,0,0,0,.77,2.5,2.69,2.69,0,0,0,2.12.89q2.81,0,2.8-3.45a4,4,0,0,0-.72-2.55,2.54,2.54,0,0,0-2.08-.87,2.61,2.61,0,0,0-2.13.93A3.9,3.9,0,0,0,851.4,506.13Z" transform="translate(-587 -366)"/><path class="cls-13" d="M866.49,498.25a2.4,2.4,0,0,0-1.07-.25q-1.56,0-1.56,1.89v1.34h2.25v1.63h-2.25V511H861.8v-8.09h-1.65v-1.63h1.65v-1.45a3.31,3.31,0,0,1,1-2.51,3.38,3.38,0,0,1,2.45-.93,4.17,4.17,0,0,1,1.28.17Z" transform="translate(-587 -366)"/><path class="cls-13" d="M613.81,532.55h-8v-1.73h3V521l-3.06.82V520l5.12-1.34v12.16h3Z" transform="translate(-587 -366)"/><path class="cls-13" d="M624.29,532.55h-8.47v-1.73l3.95-3.88a15.34,15.34,0,0,0,2-2.23,3.62,3.62,0,0,0,.63-2.05c0-1.51-.8-2.26-2.39-2.26a5.09,5.09,0,0,0-3.45,1.5v-2a6.3,6.3,0,0,1,3.81-1.22,4.34,4.34,0,0,1,3,1,3.5,3.5,0,0,1,1.11,2.73,4.94,4.94,0,0,1-.7,2.48,14,14,0,0,1-2.46,2.93l-3,2.88v0h6Z" transform="translate(-587 -366)"/><path class="cls-13" d="M629,530.31,627.5,535H626l1.06-4.71Z" transform="translate(-587 -366)"/><path class="cls-13" d="M631.72,530.23a5.29,5.29,0,0,0,2.89.89,3.13,3.13,0,0,0,2.14-.72,2.46,2.46,0,0,0,.83-1.95q0-2.55-3.27-2.55c-.52,0-1.24.05-2.17.13v-7.1h6.91v1.78H634v3.54c.51,0,.89,0,1.15,0a4.84,4.84,0,0,1,3.32,1.08,3.81,3.81,0,0,1,1.22,3,4.16,4.16,0,0,1-1.36,3.27,5.19,5.19,0,0,1-3.61,1.21,6.41,6.41,0,0,1-3-.57Z" transform="translate(-587 -366)"/><path class="cls-13" d="M641.66,526a9.87,9.87,0,0,1,1.22-5.44,4,4,0,0,1,3.56-1.86c3,0,4.44,2.33,4.44,7a9.54,9.54,0,0,1-1.22,5.26,3.94,3.94,0,0,1-3.51,1.84,3.74,3.74,0,0,1-3.36-1.74A9.19,9.19,0,0,1,641.66,526Zm2.1-.08q0,5.21,2.52,5.2t2.49-5.31c0-3.63-.82-5.45-2.44-5.45S643.76,522.22,643.76,525.92Z" transform="translate(-587 -366)"/><path class="cls-13" d="M652.38,526a10,10,0,0,1,1.22-5.44,4,4,0,0,1,3.56-1.86c3,0,4.44,2.33,4.44,7a9.54,9.54,0,0,1-1.22,5.26,3.93,3.93,0,0,1-3.51,1.84,3.76,3.76,0,0,1-3.36-1.74A9.28,9.28,0,0,1,652.38,526Zm2.1-.08q0,5.21,2.52,5.2t2.49-5.31q0-5.44-2.44-5.45C655.34,520.36,654.48,522.22,654.48,525.92Z" transform="translate(-587 -366)"/><path class="cls-13" d="M667.84,530.29a5,5,0,0,0,2.83.92c1.29,0,1.93-.4,1.93-1.19a1,1,0,0,0-.4-.83,8.21,8.21,0,0,0-1.82-.84,5,5,0,0,1-2-1.22,2.53,2.53,0,0,1-.51-1.62,2.45,2.45,0,0,1,1.12-2.13,4.78,4.78,0,0,1,2.79-.78,6.66,6.66,0,0,1,2.38.42v1.83a4.61,4.61,0,0,0-2.48-.69,2.24,2.24,0,0,0-1.27.33,1,1,0,0,0-.48.85,1,1,0,0,0,.36.82,6.63,6.63,0,0,0,1.64.79,5.36,5.36,0,0,1,2.15,1.23,2.36,2.36,0,0,1,.58,1.63,2.51,2.51,0,0,1-1.13,2.17,5,5,0,0,1-2.95.79,6.46,6.46,0,0,1-2.73-.54Z" transform="translate(-587 -366)"/><path class="cls-13" d="M685.52,537h-2.06v-6h0a3.4,3.4,0,0,1-3.2,1.78,3.69,3.69,0,0,1-3-1.29,5.37,5.37,0,0,1-1.1-3.57,5.81,5.81,0,0,1,1.22-3.87,4,4,0,0,1,3.23-1.44,3,3,0,0,1,2.8,1.5h0v-1.27h2.06Zm-2-10.13a2.72,2.72,0,0,0-.69-1.87,2.31,2.31,0,0,0-1.79-.77,2.36,2.36,0,0,0-2,1,4.28,4.28,0,0,0-.73,2.65,3.71,3.71,0,0,0,.7,2.4,2.27,2.27,0,0,0,1.83.86,2.45,2.45,0,0,0,2-.86,3.32,3.32,0,0,0,.72-2.19Z" transform="translate(-587 -366)"/><path class="cls-13" d="M696.79,532.55h-2.06V531h0a3.26,3.26,0,0,1-3,1.74q-3.44,0-3.44-4.12v-5.82h2.06v5.57c0,1.81.7,2.72,2.09,2.72a2.13,2.13,0,0,0,1.67-.74,2.86,2.86,0,0,0,.65-2v-5.59h2.06Z" transform="translate(-587 -366)"/><path class="cls-13" d="M699.94,523.48a6.6,6.6,0,0,1,3.44-.88c2.46,0,3.68,1.27,3.68,3.8v6.15h-2v-1.48h0a3.22,3.22,0,0,1-3,1.7,3.14,3.14,0,0,1-2.25-.77,2.7,2.7,0,0,1-.82-2.08c0-1.83,1.08-2.9,3.26-3.2l2.82-.39c0-1.44-.64-2.17-1.91-2.17a5.15,5.15,0,0,0-3.22,1.14Zm3,4.55a2.79,2.79,0,0,0-1.49.53,1.52,1.52,0,0,0-.43,1.17,1.35,1.35,0,0,0,.46,1,1.78,1.78,0,0,0,1.2.4,2.24,2.24,0,0,0,1.72-.73,2.6,2.6,0,0,0,.69-1.85v-.86Z" transform="translate(-587 -366)"/><path class="cls-13" d="M715.32,524.79a2.29,2.29,0,0,0-1.22-.29,1.91,1.91,0,0,0-1.62.87,4,4,0,0,0-.62,2.33v4.85H709.8v-9.72h2.06v1.93h0a2.63,2.63,0,0,1,2.55-2.1,2.5,2.5,0,0,1,.86.12Z" transform="translate(-587 -366)"/><path class="cls-13" d="M724.78,528.24H718.1q.14,2.94,3,2.94a4.88,4.88,0,0,0,2.94-1v1.7a6.09,6.09,0,0,1-3.41.85,4.39,4.39,0,0,1-3.39-1.31,5.25,5.25,0,0,1-1.22-3.69,5.36,5.36,0,0,1,1.31-3.71,4.24,4.24,0,0,1,3.3-1.46,3.86,3.86,0,0,1,3.06,1.24,5,5,0,0,1,1.09,3.42Zm-2-1.5a3,3,0,0,0-.57-1.92,2,2,0,0,0-1.6-.67,2.24,2.24,0,0,0-1.64.71,3.26,3.26,0,0,0-.86,1.88Z" transform="translate(-587 -366)"/><path class="cls-13" d="M745.81,532.55h-2.06V527a3.61,3.61,0,0,0-.47-2.08,1.69,1.69,0,0,0-1.48-.64,1.86,1.86,0,0,0-1.51.81,3.08,3.08,0,0,0-.64,2v5.51h-2v-5.72q0-2.58-2-2.58a1.85,1.85,0,0,0-1.52.78,3.23,3.23,0,0,0-.6,2v5.5h-2.06v-9.72h2.06v1.52h0a3.36,3.36,0,0,1,3.06-1.75,2.72,2.72,0,0,1,2.77,1.94,3.5,3.5,0,0,1,3.25-1.94q3.2,0,3.19,3.94Z" transform="translate(-587 -366)"/><path class="cls-13" d="M756.69,528.24H750c.08,2,1.08,2.94,3,2.94a4.93,4.93,0,0,0,3-1v1.7a6.15,6.15,0,0,1-3.42.85,4.36,4.36,0,0,1-3.38-1.31,5.21,5.21,0,0,1-1.23-3.69,5.32,5.32,0,0,1,1.32-3.71,4.21,4.21,0,0,1,3.29-1.46,3.86,3.86,0,0,1,3.06,1.24,5,5,0,0,1,1.1,3.42Zm-2-1.5a2.88,2.88,0,0,0-.57-1.92,2,2,0,0,0-1.6-.67,2.21,2.21,0,0,0-1.63.71,3.2,3.2,0,0,0-.86,1.88Z" transform="translate(-587 -366)"/><path class="cls-13" d="M763.83,532.44a3.32,3.32,0,0,1-1.64.33c-1.85,0-2.77-1-2.77-3v-5.3h-1.64v-1.63h1.64v-2.28l2.06-.62v2.9h2.35v1.63h-2.35v4.94a2.09,2.09,0,0,0,.32,1.31,1.23,1.23,0,0,0,1,.4,1.69,1.69,0,0,0,1-.31Z" transform="translate(-587 -366)"/><path class="cls-13" d="M773.76,528.24h-6.68q.13,2.94,3,2.94a4.93,4.93,0,0,0,2.95-1v1.7a6.15,6.15,0,0,1-3.42.85,4.4,4.4,0,0,1-3.39-1.31,5.25,5.25,0,0,1-1.22-3.69,5.36,5.36,0,0,1,1.31-3.71,4.24,4.24,0,0,1,3.3-1.46,3.86,3.86,0,0,1,3.06,1.24,5,5,0,0,1,1.09,3.42Zm-2-1.5a3,3,0,0,0-.57-1.92,2,2,0,0,0-1.6-.67,2.24,2.24,0,0,0-1.64.71,3.26,3.26,0,0,0-.86,1.88Z" transform="translate(-587 -366)"/><path class="cls-13" d="M781.44,524.79a2.29,2.29,0,0,0-1.22-.29,1.91,1.91,0,0,0-1.62.87,4,4,0,0,0-.62,2.33v4.85h-2.06v-9.72H778v1.93h0a2.63,2.63,0,0,1,2.55-2.1,2.5,2.5,0,0,1,.86.12Z" transform="translate(-587 -366)"/><path class="cls-13" d="M782.69,530.29a5,5,0,0,0,2.83.92c1.29,0,1.94-.4,1.94-1.19a1,1,0,0,0-.41-.83,8,8,0,0,0-1.82-.84,4.91,4.91,0,0,1-2-1.22,2.65,2.65,0,0,1,.61-3.75,4.75,4.75,0,0,1,2.78-.78A6.62,6.62,0,0,1,789,523v1.83a4.55,4.55,0,0,0-2.47-.69,2.19,2.19,0,0,0-1.27.33,1,1,0,0,0-.48.85,1,1,0,0,0,.35.82,7,7,0,0,0,1.64.79,5.41,5.41,0,0,1,2.16,1.23,2.4,2.4,0,0,1,.57,1.63,2.5,2.5,0,0,1-1.12,2.17,5,5,0,0,1-3,.79,6.47,6.47,0,0,1-2.74-.54Z" transform="translate(-587 -366)"/><path class="cls-13" d="M615.41,592.26a8.42,8.42,0,0,1-3.81.76,6.29,6.29,0,0,1-4.73-1.85,6.84,6.84,0,0,1-1.78-4.91,7.32,7.32,0,0,1,2-5.25,6.77,6.77,0,0,1,5.09-2.06,8.34,8.34,0,0,1,3.26.55v2.13a6.38,6.38,0,0,0-3.19-.8,4.61,4.61,0,0,0-3.57,1.46,5.41,5.41,0,0,0-1.34,3.83,5.24,5.24,0,0,0,1.26,3.65,4.34,4.34,0,0,0,3.38,1.4,6.5,6.5,0,0,0,3.46-.91Z" transform="translate(-587 -366)"/><path class="cls-13" d="M617.77,592.8V578.41h2.07V592.8Z" transform="translate(-587 -366)"/><path class="cls-13" d="M623,583.73a6.56,6.56,0,0,1,3.43-.88q3.69,0,3.69,3.8v6.15h-2v-1.48h0a3.21,3.21,0,0,1-3,1.7,3.14,3.14,0,0,1-2.25-.77,2.7,2.7,0,0,1-.82-2.08q0-2.74,3.26-3.2l2.82-.39c0-1.45-.64-2.17-1.91-2.17a5.15,5.15,0,0,0-3.21,1.13Zm3,4.55a2.76,2.76,0,0,0-1.49.53A1.5,1.5,0,0,0,624,590a1.37,1.37,0,0,0,.47,1.06,1.75,1.75,0,0,0,1.19.4,2.24,2.24,0,0,0,1.72-.73,2.6,2.6,0,0,0,.69-1.85V588Z" transform="translate(-587 -366)"/><path class="cls-13" d="M632.38,590.54a5,5,0,0,0,2.83.92c1.29,0,1.94-.4,1.94-1.2a1,1,0,0,0-.41-.82,8.32,8.32,0,0,0-1.82-.85,4.74,4.74,0,0,1-2-1.21,2.48,2.48,0,0,1-.52-1.62,2.45,2.45,0,0,1,1.12-2.13,4.78,4.78,0,0,1,2.79-.78,6.66,6.66,0,0,1,2.38.42v1.83a4.59,4.59,0,0,0-2.48-.69,2.18,2.18,0,0,0-1.26.33,1,1,0,0,0-.49.85,1,1,0,0,0,.36.82,6.84,6.84,0,0,0,1.64.79,5.49,5.49,0,0,1,2.16,1.23,2.4,2.4,0,0,1,.57,1.63,2.5,2.5,0,0,1-1.12,2.17,5,5,0,0,1-3,.79,6.47,6.47,0,0,1-2.74-.54Z" transform="translate(-587 -366)"/><path class="cls-13" d="M640.88,590.54a5,5,0,0,0,2.83.92c1.29,0,1.93-.4,1.93-1.2a1,1,0,0,0-.4-.82,8.57,8.57,0,0,0-1.82-.85,4.74,4.74,0,0,1-2-1.21,2.48,2.48,0,0,1-.52-1.62,2.45,2.45,0,0,1,1.12-2.13,4.78,4.78,0,0,1,2.79-.78,6.66,6.66,0,0,1,2.38.42v1.83a4.59,4.59,0,0,0-2.48-.69,2.18,2.18,0,0,0-1.26.33,1,1,0,0,0-.49.85,1,1,0,0,0,.36.82,6.84,6.84,0,0,0,1.64.79,5.49,5.49,0,0,1,2.16,1.23,2.4,2.4,0,0,1,.57,1.63,2.5,2.5,0,0,1-1.12,2.17,5,5,0,0,1-3,.79,6.46,6.46,0,0,1-2.73-.54Z" transform="translate(-587 -366)"/><path class="cls-13" d="M662.55,592.8h-8v-1.73h3v-9.83l-3.06.82v-1.81l5.13-1.34v12.16h3Z" transform="translate(-587 -366)"/><path class="cls-13" d="M664.37,586.25a9.87,9.87,0,0,1,1.22-5.44,4,4,0,0,1,3.56-1.86c3,0,4.43,2.33,4.43,7a9.54,9.54,0,0,1-1.21,5.26,3.94,3.94,0,0,1-3.51,1.84,3.74,3.74,0,0,1-3.36-1.74A9.19,9.19,0,0,1,664.37,586.25Zm2.1-.08q0,5.21,2.52,5.2t2.49-5.31c0-3.63-.82-5.45-2.44-5.45S666.47,582.47,666.47,586.17Z" transform="translate(-587 -366)"/><path class="cls-13" d="M675.09,586.25a10,10,0,0,1,1.22-5.44,4,4,0,0,1,3.56-1.86c3,0,4.44,2.33,4.44,7a9.54,9.54,0,0,1-1.22,5.26,3.93,3.93,0,0,1-3.51,1.84,3.76,3.76,0,0,1-3.36-1.74A9.28,9.28,0,0,1,675.09,586.25Zm2.1-.08q0,5.21,2.52,5.2t2.49-5.31q0-5.44-2.44-5.45C678.05,580.61,677.19,582.47,677.19,586.17Z" transform="translate(-587 -366)"/><path class="cls-13" d="M688.44,590.55,687,595.27h-1.54l1.06-4.72Z" transform="translate(-587 -366)"/><path class="cls-13" d="M690.39,586.25a9.87,9.87,0,0,1,1.23-5.44,4,4,0,0,1,3.55-1.86c3,0,4.44,2.33,4.44,7a9.54,9.54,0,0,1-1.21,5.26,4,4,0,0,1-3.52,1.84,3.76,3.76,0,0,1-3.36-1.74A9.28,9.28,0,0,1,690.39,586.25Zm2.1-.08q0,5.21,2.52,5.2t2.49-5.31q0-5.44-2.43-5.45C693.35,580.61,692.49,582.47,692.49,586.17Z" transform="translate(-587 -366)"/><path class="cls-13" d="M701.11,586.25a9.87,9.87,0,0,1,1.23-5.44,4,4,0,0,1,3.55-1.86c3,0,4.44,2.33,4.44,7a9.54,9.54,0,0,1-1.21,5.26A4,4,0,0,1,705.6,593a3.73,3.73,0,0,1-3.35-1.74A9.18,9.18,0,0,1,701.11,586.25Zm2.1-.08q0,5.21,2.53,5.2t2.48-5.31q0-5.44-2.43-5.45C704.07,580.61,703.21,582.47,703.21,586.17Z" transform="translate(-587 -366)"/><path class="cls-13" d="M711.83,586.25a9.87,9.87,0,0,1,1.23-5.44,4,4,0,0,1,3.56-1.86c3,0,4.43,2.33,4.43,7a9.54,9.54,0,0,1-1.21,5.26,3.94,3.94,0,0,1-3.51,1.84,3.74,3.74,0,0,1-3.36-1.74A9.18,9.18,0,0,1,711.83,586.25Zm2.11-.08q0,5.21,2.52,5.2t2.49-5.31c0-3.63-.82-5.45-2.44-5.45S713.94,582.47,713.94,586.17Z" transform="translate(-587 -366)"/><path class="cls-13" d="M737.44,592.26a8.42,8.42,0,0,1-3.81.76,6.27,6.27,0,0,1-4.73-1.85,6.8,6.8,0,0,1-1.78-4.91,7.32,7.32,0,0,1,2-5.25,6.75,6.75,0,0,1,5.09-2.06,8.38,8.38,0,0,1,3.26.55v2.13a6.4,6.4,0,0,0-3.19-.8,4.59,4.59,0,0,0-3.57,1.46,5.41,5.41,0,0,0-1.35,3.83,5.2,5.2,0,0,0,1.27,3.65,4.32,4.32,0,0,0,3.37,1.4,6.51,6.51,0,0,0,3.47-.91Z" transform="translate(-587 -366)"/><path class="cls-13" d="M739.8,592.8V578.41h2.07V592.8Z" transform="translate(-587 -366)"/><path class="cls-13" d="M752.92,588.49h-6.68c.08,2,1.08,2.94,3,2.94a4.93,4.93,0,0,0,2.95-1v1.7a6.15,6.15,0,0,1-3.42.85,4.44,4.44,0,0,1-3.39-1.31,6,6,0,0,1,.1-7.4,4.21,4.21,0,0,1,3.29-1.46,3.86,3.86,0,0,1,3.06,1.24,5,5,0,0,1,1.1,3.42Zm-2-1.5a2.93,2.93,0,0,0-.57-1.92,2,2,0,0,0-1.6-.67,2.21,2.21,0,0,0-1.63.71,3.27,3.27,0,0,0-.87,1.88Z" transform="translate(-587 -366)"/><path class="cls-13" d="M755.31,583.73a6.56,6.56,0,0,1,3.43-.88c2.46,0,3.68,1.27,3.68,3.8v6.15h-2v-1.48h0a3.22,3.22,0,0,1-3,1.7,3.14,3.14,0,0,1-2.25-.77,2.7,2.7,0,0,1-.82-2.08c0-1.83,1.08-2.9,3.26-3.2l2.82-.39c0-1.45-.64-2.17-1.91-2.17a5.15,5.15,0,0,0-3.21,1.13Zm3,4.55a2.83,2.83,0,0,0-1.5.53,1.53,1.53,0,0,0-.43,1.16,1.37,1.37,0,0,0,.47,1.06,1.75,1.75,0,0,0,1.19.4,2.24,2.24,0,0,0,1.72-.73,2.6,2.6,0,0,0,.69-1.85V588Z" transform="translate(-587 -366)"/><path class="cls-13" d="M773.69,592.8h-2.05v-5.5c0-1.87-.68-2.8-2-2.8a2.13,2.13,0,0,0-1.7.78,2.88,2.88,0,0,0-.68,2v5.55h-2.06v-9.72h2.06v1.59h0a3.45,3.45,0,0,1,3.16-1.82c2.18,0,3.26,1.33,3.26,4Z" transform="translate(-587 -366)"/><path class="cls-13" d="M782,585a2.21,2.21,0,0,0-1.22-.29,1.9,1.9,0,0,0-1.62.87,4,4,0,0,0-.62,2.33v4.85h-2.06v-9.72h2.06V585h0a2.62,2.62,0,0,1,2.54-2.1,2.56,2.56,0,0,1,.87.12Z" transform="translate(-587 -366)"/><path class="cls-13" d="M782.65,588a5.14,5.14,0,0,1,1.36-3.78,5,5,0,0,1,3.73-1.39,4.62,4.62,0,0,1,3.51,1.34,5.1,5.1,0,0,1,1.29,3.68,5.16,5.16,0,0,1-1.36,3.75,4.82,4.82,0,0,1-3.64,1.4,4.75,4.75,0,0,1-3.56-1.36A5,5,0,0,1,782.65,588Zm2.1,0a3.69,3.69,0,0,0,.78,2.5,2.67,2.67,0,0,0,2.11.89q2.8,0,2.8-3.45a3.93,3.93,0,0,0-.72-2.55,2.54,2.54,0,0,0-2.08-.87,2.61,2.61,0,0,0-2.13.93A3.9,3.9,0,0,0,784.75,588Z" transform="translate(-587 -366)"/><path class="cls-13" d="M794.21,588a5.14,5.14,0,0,1,1.37-3.78,5,5,0,0,1,3.72-1.39,4.63,4.63,0,0,1,3.52,1.34,5.1,5.1,0,0,1,1.29,3.68,5.16,5.16,0,0,1-1.36,3.75,4.82,4.82,0,0,1-3.64,1.4,4.72,4.72,0,0,1-3.56-1.36A5,5,0,0,1,794.21,588Zm2.11,0a3.74,3.74,0,0,0,.77,2.5,2.69,2.69,0,0,0,2.12.89q2.81,0,2.8-3.45a3.93,3.93,0,0,0-.72-2.55,2.54,2.54,0,0,0-2.08-.87,2.61,2.61,0,0,0-2.13.93A3.9,3.9,0,0,0,796.32,588Z" transform="translate(-587 -366)"/><path class="cls-13" d="M820.78,592.8h-2.06v-5.58a3.61,3.61,0,0,0-.47-2.08,1.69,1.69,0,0,0-1.48-.64,1.86,1.86,0,0,0-1.51.81,3.08,3.08,0,0,0-.64,2v5.51h-2v-5.72q0-2.58-2-2.58a1.85,1.85,0,0,0-1.52.78,3.23,3.23,0,0,0-.6,2v5.5h-2.06v-9.72h2.06v1.52h0a3.36,3.36,0,0,1,3.06-1.75,2.72,2.72,0,0,1,2.77,1.94,3.5,3.5,0,0,1,3.25-1.94q3.2,0,3.19,3.94Z" transform="translate(-587 -366)"/><path class="cls-13" d="M830.37,587.81v5h-2.11V579.18h4.12a5.25,5.25,0,0,1,3.54,1.07,3.87,3.87,0,0,1,1.23,3.1,4.1,4.1,0,0,1-1.47,3.29,5.13,5.13,0,0,1-3.63,1.17Zm0-6.86v5.1h1.51c2,0,3-.87,3-2.61S834,581,832,581Z" transform="translate(-587 -366)"/><path class="cls-13" d="M844.8,585a2.21,2.21,0,0,0-1.22-.29,1.91,1.91,0,0,0-1.62.87,4,4,0,0,0-.62,2.33v4.85h-2.06v-9.72h2.06V585h0a2.62,2.62,0,0,1,2.54-2.1,2.56,2.56,0,0,1,.87.12Z" transform="translate(-587 -366)"/><path class="cls-13" d="M845.5,588a5.1,5.1,0,0,1,1.37-3.78,5,5,0,0,1,3.72-1.39,4.62,4.62,0,0,1,3.51,1.34,5.1,5.1,0,0,1,1.3,3.68,5.17,5.17,0,0,1-1.37,3.75,4.81,4.81,0,0,1-3.64,1.4,4.75,4.75,0,0,1-3.56-1.36A5,5,0,0,1,845.5,588Zm2.1,0a3.69,3.69,0,0,0,.78,2.5,2.67,2.67,0,0,0,2.11.89q2.81,0,2.8-3.45a3.93,3.93,0,0,0-.72-2.55,2.54,2.54,0,0,0-2.08-.87,2.61,2.61,0,0,0-2.13.93A3.9,3.9,0,0,0,847.6,588Z" transform="translate(-587 -366)"/><path class="cls-13" d="M866.42,592.8h-2.06v-1.54h0A3.5,3.5,0,0,1,861.1,593a3.62,3.62,0,0,1-2.94-1.31,5.38,5.38,0,0,1-1.09-3.55,5.75,5.75,0,0,1,1.23-3.86,4,4,0,0,1,3.2-1.45,3,3,0,0,1,2.82,1.49h0v-5.93h2.06Zm-2-5.7a2.54,2.54,0,0,0-.72-1.85,2.36,2.36,0,0,0-1.77-.75,2.4,2.4,0,0,0-2,1,4.2,4.2,0,0,0-.73,2.62,3.82,3.82,0,0,0,.69,2.41,2.26,2.26,0,0,0,1.89.88,2.36,2.36,0,0,0,1.89-.87,3.33,3.33,0,0,0,.74-2.21Z" transform="translate(-587 -366)"/><path class="cls-13" d="M877.68,592.8h-2v-1.52h0a3.25,3.25,0,0,1-3,1.74c-2.3,0-3.44-1.37-3.44-4.12v-5.82h2.06v5.57c0,1.81.69,2.72,2.09,2.72a2.14,2.14,0,0,0,1.67-.74,2.91,2.91,0,0,0,.65-2v-5.59h2Z" transform="translate(-587 -366)"/><path class="cls-13" d="M887.49,592.38a5.26,5.26,0,0,1-2.75.64,4.58,4.58,0,0,1-3.44-1.34,4.82,4.82,0,0,1-1.32-3.52,5.29,5.29,0,0,1,1.41-3.87,5.06,5.06,0,0,1,3.77-1.44,5.12,5.12,0,0,1,2.35.46v1.94a3.75,3.75,0,0,0-2.24-.75,3,3,0,0,0-2.31,1,3.62,3.62,0,0,0-.88,2.56,3.47,3.47,0,0,0,.84,2.47,3,3,0,0,0,2.25.89,3.85,3.85,0,0,0,2.32-.79Z" transform="translate(-587 -366)"/><path class="cls-13" d="M894.7,592.69a3.32,3.32,0,0,1-1.64.33c-1.85,0-2.77-1-2.77-3v-5.3h-1.65v-1.63h1.65V580.8l2.05-.63v2.91h2.36v1.63h-2.36v4.94a2.08,2.08,0,0,0,.33,1.31,1.22,1.22,0,0,0,1,.4,1.69,1.69,0,0,0,1-.31Z" transform="translate(-587 -366)"/><path class="cls-13" d="M896.42,579.74a1.12,1.12,0,0,1,.36-.86,1.36,1.36,0,0,1,1.8,0,1.17,1.17,0,0,1,0,1.71,1.36,1.36,0,0,1-1.8,0A1.13,1.13,0,0,1,896.42,579.74Zm.21,13.06v-9.72h2.06v9.72Z" transform="translate(-587 -366)"/><path class="cls-13" d="M901,588a5.14,5.14,0,0,1,1.36-3.78,5,5,0,0,1,3.72-1.39,4.63,4.63,0,0,1,3.52,1.34,5.1,5.1,0,0,1,1.29,3.68,5.16,5.16,0,0,1-1.36,3.75,4.82,4.82,0,0,1-3.64,1.4,4.74,4.74,0,0,1-3.56-1.36A5,5,0,0,1,901,588Zm2.1,0a3.74,3.74,0,0,0,.77,2.5,2.69,2.69,0,0,0,2.12.89q2.81,0,2.8-3.45a3.93,3.93,0,0,0-.72-2.55,2.54,2.54,0,0,0-2.08-.87,2.61,2.61,0,0,0-2.13.93A3.9,3.9,0,0,0,903.08,588Z" transform="translate(-587 -366)"/><path class="cls-13" d="M921.7,592.8h-2.06v-5.5c0-1.87-.68-2.8-2-2.8a2.16,2.16,0,0,0-1.7.78,2.92,2.92,0,0,0-.67,2v5.55h-2.06v-9.72h2.06v1.59h0a3.45,3.45,0,0,1,3.16-1.82q3.25,0,3.26,4Z" transform="translate(-587 -366)"/><path class="cls-13" d="M945.9,579.18l-3.76,13.62h-2.4l-2.61-9.53a6,6,0,0,1-.22-1.43h0a7.87,7.87,0,0,1-.25,1.42L934,592.8h-2.44l-3.85-13.62H930l2.54,10a7,7,0,0,1,.22,1.44h.06a6.65,6.65,0,0,1,.28-1.46l2.82-9.94h2.14l2.66,10a10.49,10.49,0,0,1,.23,1.34h0a6.88,6.88,0,0,1,.24-1.39l2.46-10Z" transform="translate(-587 -366)"/><path class="cls-13" d="M946.49,588a5.14,5.14,0,0,1,1.36-3.78,5,5,0,0,1,3.72-1.39,4.63,4.63,0,0,1,3.52,1.34,5.1,5.1,0,0,1,1.29,3.68,5.16,5.16,0,0,1-1.36,3.75,4.82,4.82,0,0,1-3.64,1.4,4.74,4.74,0,0,1-3.56-1.36A5,5,0,0,1,946.49,588Zm2.1,0a3.74,3.74,0,0,0,.77,2.5,2.69,2.69,0,0,0,2.12.89q2.81,0,2.8-3.45a3.93,3.93,0,0,0-.72-2.55,2.54,2.54,0,0,0-2.08-.87,2.61,2.61,0,0,0-2.13.93A3.9,3.9,0,0,0,948.59,588Z" transform="translate(-587 -366)"/><path class="cls-13" d="M964.2,585a2.21,2.21,0,0,0-1.22-.29,1.9,1.9,0,0,0-1.62.87,4,4,0,0,0-.62,2.33v4.85h-2.06v-9.72h2.06V585h0a2.62,2.62,0,0,1,2.54-2.1,2.56,2.56,0,0,1,.87.12Z" transform="translate(-587 -366)"/><path class="cls-13" d="M974.43,592.8h-2.68l-3.86-4.72h0v4.72h-2.06V578.41h2.06v9.13h0l3.66-4.46h2.57L970,587.72Z" transform="translate(-587 -366)"/><path class="cls-13" d="M975.4,590.54a5,5,0,0,0,2.83.92c1.29,0,1.94-.4,1.94-1.2a1,1,0,0,0-.41-.82,8.57,8.57,0,0,0-1.82-.85,4.74,4.74,0,0,1-2-1.21,2.48,2.48,0,0,1-.52-1.62,2.45,2.45,0,0,1,1.12-2.13,4.78,4.78,0,0,1,2.79-.78,6.66,6.66,0,0,1,2.38.42v1.83a4.59,4.59,0,0,0-2.48-.69,2.18,2.18,0,0,0-1.26.33,1,1,0,0,0-.49.85,1,1,0,0,0,.36.82,6.84,6.84,0,0,0,1.64.79,5.49,5.49,0,0,1,2.16,1.23,2.4,2.4,0,0,1,.57,1.63,2.5,2.5,0,0,1-1.12,2.17,5,5,0,0,1-3,.79,6.46,6.46,0,0,1-2.73-.54Z" transform="translate(-587 -366)"/><path class="cls-13" d="M992.87,592.8h-2.06v-5.58c0-1.81-.67-2.72-2-2.72a2.16,2.16,0,0,0-1.7.78,3,3,0,0,0-.68,2v5.52h-2.06V578.41h2.06v6.22h.05a3.48,3.48,0,0,1,3.12-1.78q3.28,0,3.28,4Z" transform="translate(-587 -366)"/><path class="cls-13" d="M995,588a5.14,5.14,0,0,1,1.37-3.78,5,5,0,0,1,3.72-1.39,4.64,4.64,0,0,1,3.52,1.34,5.1,5.1,0,0,1,1.29,3.68,5.16,5.16,0,0,1-1.36,3.75,4.82,4.82,0,0,1-3.64,1.4,4.76,4.76,0,0,1-3.57-1.36A5,5,0,0,1,995,588Zm2.1,0a3.69,3.69,0,0,0,.78,2.5,2.68,2.68,0,0,0,2.12.89c1.86,0,2.8-1.15,2.8-3.45a3.93,3.93,0,0,0-.72-2.55,2.55,2.55,0,0,0-2.08-.87,2.61,2.61,0,0,0-2.13.93A3.9,3.9,0,0,0,997.08,588Z" transform="translate(-587 -366)"/><path class="cls-13" d="M1009.24,591.49v5.78h-2.07V583.08h2.07v1.61h0a3.88,3.88,0,0,1,6.19-.55,5.38,5.38,0,0,1,1.06,3.51,6,6,0,0,1-1.2,3.91,4,4,0,0,1-3.23,1.46,3.14,3.14,0,0,1-2.82-1.53Zm0-2.79a2.73,2.73,0,0,0,.7,1.9,2.48,2.48,0,0,0,3.78-.22,4.56,4.56,0,0,0,.72-2.73,3.63,3.63,0,0,0-.66-2.33,2.24,2.24,0,0,0-1.85-.82,2.47,2.47,0,0,0-1.94.86,3.19,3.19,0,0,0-.75,2.18Z" transform="translate(-587 -366)"/><path class="cls-13" d="M608.63,617.49a12.09,12.09,0,0,1-3-8.3,12.69,12.69,0,0,1,3-8.41h1.77a13.08,13.08,0,0,0-2.94,8.4,12.76,12.76,0,0,0,2.94,8.31Z" transform="translate(-587 -366)"/><path class="cls-13" d="M619.72,614.4h-7.43V600.78h2.11v11.81h5.32Z" transform="translate(-587 -366)"/><path class="cls-13" d="M621.25,601.34a1.11,1.11,0,0,1,.35-.86,1.25,1.25,0,0,1,.9-.34,1.29,1.29,0,0,1,.91.34,1.17,1.17,0,0,1,0,1.71,1.29,1.29,0,0,1-.91.34,1.24,1.24,0,0,1-.89-.34A1.13,1.13,0,0,1,621.25,601.34Zm.2,13.06v-9.72h2.06v9.72Z" transform="translate(-587 -366)"/><path class="cls-13" d="M635.15,618.87h-2.06v-6h0a3.41,3.41,0,0,1-3.2,1.79,3.7,3.7,0,0,1-3-1.3,5.37,5.37,0,0,1-1.1-3.57,5.81,5.81,0,0,1,1.22-3.87,4,4,0,0,1,3.23-1.44,3,3,0,0,1,2.8,1.5h0v-1.27h2.06Zm-2-10.13a2.72,2.72,0,0,0-.69-1.87,2.33,2.33,0,0,0-1.8-.77,2.38,2.38,0,0,0-2,1,4.34,4.34,0,0,0-.72,2.65,3.71,3.71,0,0,0,.7,2.4,2.27,2.27,0,0,0,1.83.86,2.45,2.45,0,0,0,2-.86,3.32,3.32,0,0,0,.72-2.19Z" transform="translate(-587 -366)"/><path class="cls-13" d="M646.42,614.4h-2.06v-1.52h0a3.27,3.27,0,0,1-3,1.75q-3.44,0-3.44-4.13v-5.82H640v5.57c0,1.81.7,2.72,2.09,2.72a2.1,2.1,0,0,0,1.67-.75,2.87,2.87,0,0,0,.65-2v-5.59h2.06Z" transform="translate(-587 -366)"/><path class="cls-13" d="M649.12,601.34a1.11,1.11,0,0,1,.35-.86,1.25,1.25,0,0,1,.9-.34,1.29,1.29,0,0,1,.91.34,1.17,1.17,0,0,1,0,1.71,1.29,1.29,0,0,1-.91.34,1.24,1.24,0,0,1-.89-.34A1.13,1.13,0,0,1,649.12,601.34Zm.2,13.06v-9.72h2.06v9.72Z" transform="translate(-587 -366)"/><path class="cls-13" d="M663,614.4H661v-1.54h0a3.5,3.5,0,0,1-3.22,1.77,3.62,3.62,0,0,1-2.94-1.32,5.38,5.38,0,0,1-1.09-3.55,5.75,5.75,0,0,1,1.23-3.86,4,4,0,0,1,3.21-1.45,3,3,0,0,1,2.81,1.49h0V600H663Zm-2-5.7a2.57,2.57,0,0,0-.71-1.85,2.51,2.51,0,0,0-3.76.21,4.2,4.2,0,0,0-.74,2.62,3.82,3.82,0,0,0,.69,2.41,2.29,2.29,0,0,0,1.89.88,2.37,2.37,0,0,0,1.9-.87,3.33,3.33,0,0,0,.73-2.21Z" transform="translate(-587 -366)"/><path class="cls-13" d="M672.92,600.55l-1.51,4.23H670l1.07-4.23Z" transform="translate(-587 -366)"/><path class="cls-13" d="M686.87,612.14a5,5,0,0,0,2.83.92c1.29,0,1.94-.4,1.94-1.19a1,1,0,0,0-.41-.83,8,8,0,0,0-1.82-.84,4.91,4.91,0,0,1-2-1.22,2.65,2.65,0,0,1,.61-3.75,4.77,4.77,0,0,1,2.78-.78,6.62,6.62,0,0,1,2.38.42v1.83a4.55,4.55,0,0,0-2.47-.69,2.19,2.19,0,0,0-1.27.33,1,1,0,0,0-.48.85,1,1,0,0,0,.35.82,7,7,0,0,0,1.64.79,5.34,5.34,0,0,1,2.16,1.23,2.41,2.41,0,0,1,.58,1.63,2.51,2.51,0,0,1-1.13,2.17,5,5,0,0,1-2.95.8,6.47,6.47,0,0,1-2.74-.55Z" transform="translate(-587 -366)"/><path class="cls-13" d="M714.52,613.86a8.42,8.42,0,0,1-3.81.77,6.26,6.26,0,0,1-4.73-1.86,6.8,6.8,0,0,1-1.78-4.91,7.28,7.28,0,0,1,2-5.25,6.74,6.74,0,0,1,5.08-2.06,8.39,8.39,0,0,1,3.27.55v2.13a6.54,6.54,0,0,0-3.19-.8,4.58,4.58,0,0,0-3.57,1.46,5.41,5.41,0,0,0-1.35,3.83,5.24,5.24,0,0,0,1.26,3.65,4.34,4.34,0,0,0,3.38,1.4,6.6,6.6,0,0,0,3.47-.9Z" transform="translate(-587 -366)"/><path class="cls-13" d="M716.88,614.4V600H719V614.4Z" transform="translate(-587 -366)"/><path class="cls-13" d="M722.09,605.33a6.6,6.6,0,0,1,3.44-.88c2.45,0,3.68,1.26,3.68,3.8v6.15h-2v-1.48h-.05a3.2,3.2,0,0,1-2.95,1.71,3.11,3.11,0,0,1-2.25-.78,2.71,2.71,0,0,1-.83-2.08q0-2.74,3.26-3.2l2.83-.39c0-1.45-.64-2.17-1.91-2.17a5.18,5.18,0,0,0-3.22,1.13Zm3,4.55a2.79,2.79,0,0,0-1.49.53,1.49,1.49,0,0,0-.43,1.16,1.36,1.36,0,0,0,.46,1.06,1.76,1.76,0,0,0,1.2.4,2.25,2.25,0,0,0,1.72-.73,2.6,2.6,0,0,0,.69-1.85v-.86Z" transform="translate(-587 -366)"/><path class="cls-13" d="M731.49,612.14a5,5,0,0,0,2.83.92c1.29,0,1.93-.4,1.93-1.19a1,1,0,0,0-.4-.83,8.21,8.21,0,0,0-1.82-.84,5,5,0,0,1-2-1.22,2.54,2.54,0,0,1-.52-1.62,2.46,2.46,0,0,1,1.13-2.13,4.78,4.78,0,0,1,2.79-.78,6.66,6.66,0,0,1,2.38.42v1.83a4.61,4.61,0,0,0-2.48-.69,2.24,2.24,0,0,0-1.27.33,1,1,0,0,0-.48.85,1,1,0,0,0,.36.82,6.63,6.63,0,0,0,1.64.79,5.36,5.36,0,0,1,2.15,1.23,2.36,2.36,0,0,1,.58,1.63,2.51,2.51,0,0,1-1.13,2.17,5,5,0,0,1-2.95.8,6.46,6.46,0,0,1-2.73-.55Z" transform="translate(-587 -366)"/><path class="cls-13" d="M740,612.14a5,5,0,0,0,2.83.92c1.29,0,1.93-.4,1.93-1.19a1,1,0,0,0-.4-.83,8.21,8.21,0,0,0-1.82-.84,5,5,0,0,1-2-1.22,2.54,2.54,0,0,1-.52-1.62,2.46,2.46,0,0,1,1.13-2.13,4.78,4.78,0,0,1,2.79-.78,6.7,6.7,0,0,1,2.38.42v1.83a4.61,4.61,0,0,0-2.48-.69,2.24,2.24,0,0,0-1.27.33,1,1,0,0,0-.48.85,1,1,0,0,0,.36.82,6.7,6.7,0,0,0,1.63.79,5.34,5.34,0,0,1,2.16,1.23,2.36,2.36,0,0,1,.58,1.63,2.51,2.51,0,0,1-1.13,2.17,5,5,0,0,1-2.95.8,6.46,6.46,0,0,1-2.73-.55Z" transform="translate(-587 -366)"/><path class="cls-13" d="M761.65,614.4h-8v-1.73h3v-9.83l-3.06.82v-1.81l5.12-1.34v12.16h3Z" transform="translate(-587 -366)"/><path class="cls-13" d="M763.47,607.85a9.87,9.87,0,0,1,1.23-5.44,4,4,0,0,1,3.55-1.86c3,0,4.44,2.33,4.44,7a9.54,9.54,0,0,1-1.21,5.26,4,4,0,0,1-3.52,1.85,3.77,3.77,0,0,1-3.36-1.75A9.3,9.3,0,0,1,763.47,607.85Zm2.1-.08q0,5.21,2.52,5.2t2.49-5.31q0-5.45-2.43-5.45C766.43,602.21,765.57,604.07,765.57,607.77Z" transform="translate(-587 -366)"/><path class="cls-13" d="M776.82,612.15l-1.48,4.72H773.8l1.06-4.72Z" transform="translate(-587 -366)"/><path class="cls-13" d="M778.77,607.85a9.87,9.87,0,0,1,1.23-5.44,4,4,0,0,1,3.55-1.86c3,0,4.44,2.33,4.44,7a9.54,9.54,0,0,1-1.21,5.26,4,4,0,0,1-3.52,1.85,3.74,3.74,0,0,1-3.35-1.75A9.2,9.2,0,0,1,778.77,607.85Zm2.1-.08q0,5.21,2.53,5.2t2.48-5.31q0-5.45-2.43-5.45C781.73,602.21,780.87,604.07,780.87,607.77Z" transform="translate(-587 -366)"/><path class="cls-13" d="M789.5,607.85a9.87,9.87,0,0,1,1.22-5.44,4,4,0,0,1,3.56-1.86c3,0,4.43,2.33,4.43,7a9.54,9.54,0,0,1-1.21,5.26,4,4,0,0,1-3.51,1.85,3.75,3.75,0,0,1-3.36-1.75A9.21,9.21,0,0,1,789.5,607.85Zm2.1-.08q0,5.21,2.52,5.2t2.49-5.31c0-3.63-.82-5.45-2.44-5.45S791.6,604.07,791.6,607.77Z" transform="translate(-587 -366)"/><path class="cls-13" d="M800.22,607.85a10,10,0,0,1,1.22-5.44,4,4,0,0,1,3.56-1.86c3,0,4.44,2.33,4.44,7a9.54,9.54,0,0,1-1.22,5.26,3.94,3.94,0,0,1-3.51,1.85,3.77,3.77,0,0,1-3.36-1.75A9.3,9.3,0,0,1,800.22,607.85Zm2.1-.08q0,5.21,2.52,5.2t2.49-5.31q0-5.45-2.44-5.45C803.18,602.21,802.32,604.07,802.32,607.77Z" transform="translate(-587 -366)"/><path class="cls-13" d="M825.82,613.86a8.42,8.42,0,0,1-3.81.77,6.3,6.3,0,0,1-4.73-1.86,6.84,6.84,0,0,1-1.78-4.91,7.32,7.32,0,0,1,2-5.25,6.77,6.77,0,0,1,5.09-2.06,8.34,8.34,0,0,1,3.26.55v2.13a6.48,6.48,0,0,0-3.19-.8,4.61,4.61,0,0,0-3.57,1.46,5.45,5.45,0,0,0-1.34,3.83,5.24,5.24,0,0,0,1.26,3.65,4.34,4.34,0,0,0,3.38,1.4,6.59,6.59,0,0,0,3.46-.9Z" transform="translate(-587 -366)"/><path class="cls-13" d="M828.18,614.4V600h2.07V614.4Z" transform="translate(-587 -366)"/><path class="cls-13" d="M841.3,610.09h-6.68q.14,2.94,3,2.94a4.92,4.92,0,0,0,2.94-1v1.7a6.15,6.15,0,0,1-3.42.86,4.37,4.37,0,0,1-3.38-1.32,5.2,5.2,0,0,1-1.22-3.69,5.31,5.31,0,0,1,1.31-3.71,4.21,4.21,0,0,1,3.29-1.46,3.86,3.86,0,0,1,3.06,1.24,5,5,0,0,1,1.1,3.42Zm-2-1.5a2.88,2.88,0,0,0-.57-1.92,2,2,0,0,0-1.6-.67,2.22,2.22,0,0,0-1.63.71,3.26,3.26,0,0,0-.86,1.88Z" transform="translate(-587 -366)"/><path class="cls-13" d="M843.69,605.33a6.57,6.57,0,0,1,3.44-.88c2.45,0,3.68,1.26,3.68,3.8v6.15h-2v-1.48h0a3.21,3.21,0,0,1-3,1.71,3.15,3.15,0,0,1-2.26-.78,2.7,2.7,0,0,1-.82-2.08q0-2.74,3.26-3.2l2.82-.39c0-1.45-.63-2.17-1.9-2.17a5.18,5.18,0,0,0-3.22,1.13Zm3,4.55a2.76,2.76,0,0,0-1.49.53,1.5,1.5,0,0,0-.44,1.16,1.37,1.37,0,0,0,.47,1.06,1.75,1.75,0,0,0,1.19.4,2.26,2.26,0,0,0,1.73-.73,2.64,2.64,0,0,0,.68-1.85v-.86Z" transform="translate(-587 -366)"/><path class="cls-13" d="M862.08,614.4H860v-5.5c0-1.87-.68-2.8-2-2.8a2.14,2.14,0,0,0-1.7.78,2.89,2.89,0,0,0-.67,2v5.55h-2.07v-9.72h2.07v1.59h0a3.46,3.46,0,0,1,3.16-1.82c2.18,0,3.27,1.33,3.27,4Z" transform="translate(-587 -366)"/><path class="cls-13" d="M870.33,606.64a2.28,2.28,0,0,0-1.21-.29,1.93,1.93,0,0,0-1.63.87,4,4,0,0,0-.62,2.33v4.85h-2.06v-9.72h2.06v1.93h0a2.63,2.63,0,0,1,2.55-2.1,2.5,2.5,0,0,1,.86.12Z" transform="translate(-587 -366)"/><path class="cls-13" d="M871,609.62a5.14,5.14,0,0,1,1.37-3.78,5,5,0,0,1,3.72-1.39,4.66,4.66,0,0,1,3.52,1.34,5.09,5.09,0,0,1,1.29,3.67,5.21,5.21,0,0,1-1.36,3.76,4.84,4.84,0,0,1-3.64,1.41,4.77,4.77,0,0,1-3.57-1.37A5,5,0,0,1,871,609.62Zm2.1,0a3.69,3.69,0,0,0,.78,2.5A2.67,2.67,0,0,0,876,613q2.81,0,2.81-3.45a3.93,3.93,0,0,0-.72-2.55,2.56,2.56,0,0,0-2.09-.87,2.6,2.6,0,0,0-2.12.93A3.9,3.9,0,0,0,873.13,609.58Z" transform="translate(-587 -366)"/><path class="cls-13" d="M882.6,609.62a5.14,5.14,0,0,1,1.36-3.78,5,5,0,0,1,3.73-1.39,4.62,4.62,0,0,1,3.51,1.34,5.09,5.09,0,0,1,1.29,3.67,5.17,5.17,0,0,1-1.36,3.76,4.83,4.83,0,0,1-3.64,1.41,4.75,4.75,0,0,1-3.56-1.37A5,5,0,0,1,882.6,609.62Zm2.1,0a3.69,3.69,0,0,0,.78,2.5,2.67,2.67,0,0,0,2.11.89q2.8,0,2.8-3.45a3.93,3.93,0,0,0-.72-2.55,2.54,2.54,0,0,0-2.08-.87,2.61,2.61,0,0,0-2.13.93A3.9,3.9,0,0,0,884.7,609.58Z" transform="translate(-587 -366)"/><path class="cls-13" d="M909.17,614.4H907.1v-5.58a3.62,3.62,0,0,0-.46-2.08,1.71,1.71,0,0,0-1.49-.64,1.86,1.86,0,0,0-1.51.81,3.12,3.12,0,0,0-.63,2v5.52H901v-5.72q0-2.58-2-2.58a1.83,1.83,0,0,0-1.51.78,3.18,3.18,0,0,0-.61,2v5.5h-2.06v-9.72h2.06v1.53h0a3.33,3.33,0,0,1,3.06-1.76,2.71,2.71,0,0,1,2.76,1.94,3.52,3.52,0,0,1,3.26-1.94c2.12,0,3.19,1.31,3.19,3.94Z" transform="translate(-587 -366)"/><path class="cls-13" d="M933.36,600.78l-3.75,13.62H927.2l-2.61-9.53a7.24,7.24,0,0,1-.22-1.43h0a7.87,7.87,0,0,1-.25,1.42l-2.64,9.54H919l-3.85-13.62h2.32l2.55,10a7.79,7.79,0,0,1,.21,1.44h.06a7.43,7.43,0,0,1,.29-1.46l2.82-9.94h2.14l2.66,10a9.11,9.11,0,0,1,.22,1.34h0a6.07,6.07,0,0,1,.24-1.38l2.46-10Z" transform="translate(-587 -366)"/><path class="cls-13" d="M934,609.62a5.14,5.14,0,0,1,1.37-3.78,5,5,0,0,1,3.72-1.39,4.64,4.64,0,0,1,3.52,1.34,5.09,5.09,0,0,1,1.29,3.67,5.21,5.21,0,0,1-1.36,3.76,4.83,4.83,0,0,1-3.64,1.41,4.77,4.77,0,0,1-3.57-1.37A5,5,0,0,1,934,609.62Zm2.1,0a3.69,3.69,0,0,0,.78,2.5,2.67,2.67,0,0,0,2.11.89q2.8,0,2.81-3.45A3.93,3.93,0,0,0,941,607a2.56,2.56,0,0,0-2.09-.87,2.6,2.6,0,0,0-2.12.93A3.9,3.9,0,0,0,936.05,609.58Z" transform="translate(-587 -366)"/><path class="cls-13" d="M951.66,606.64a2.26,2.26,0,0,0-1.21-.29,1.9,1.9,0,0,0-1.62.87,3.94,3.94,0,0,0-.62,2.33v4.85h-2.07v-9.72h2.07v1.93h0a2.63,2.63,0,0,1,2.55-2.1,2.5,2.5,0,0,1,.86.12Z" transform="translate(-587 -366)"/><path class="cls-13" d="M961.9,614.4h-2.68l-3.87-4.72h0v4.72h-2.07V600h2.07v9.13h0l3.67-4.46h2.56l-4.14,4.64Z" transform="translate(-587 -366)"/><path class="cls-13" d="M962.87,612.14a5,5,0,0,0,2.83.92c1.29,0,1.93-.4,1.93-1.19a1,1,0,0,0-.4-.83,8.21,8.21,0,0,0-1.82-.84,5,5,0,0,1-2-1.22,2.53,2.53,0,0,1-.51-1.62,2.45,2.45,0,0,1,1.12-2.13,4.78,4.78,0,0,1,2.79-.78,6.66,6.66,0,0,1,2.38.42v1.83a4.61,4.61,0,0,0-2.48-.69,2.24,2.24,0,0,0-1.27.33,1,1,0,0,0-.48.85,1,1,0,0,0,.36.82,6.63,6.63,0,0,0,1.64.79A5.36,5.36,0,0,1,969.1,610a2.36,2.36,0,0,1,.58,1.63,2.51,2.51,0,0,1-1.13,2.17,5,5,0,0,1-2.95.8,6.46,6.46,0,0,1-2.73-.55Z" transform="translate(-587 -366)"/><path class="cls-13" d="M980.34,614.4h-2.06v-5.58c0-1.81-.68-2.72-2-2.72a2.14,2.14,0,0,0-1.69.78,3,3,0,0,0-.68,2v5.52h-2.07V600h2.07v6.22h0a3.48,3.48,0,0,1,3.12-1.78c2.2,0,3.29,1.32,3.29,4Z" transform="translate(-587 -366)"/><path class="cls-13" d="M982.45,609.62a5.14,5.14,0,0,1,1.37-3.78,5,5,0,0,1,3.72-1.39,4.62,4.62,0,0,1,3.51,1.34,5,5,0,0,1,1.3,3.67,5.17,5.17,0,0,1-1.37,3.76,5.36,5.36,0,0,1-7.2,0A5,5,0,0,1,982.45,609.62Zm2.1,0a3.69,3.69,0,0,0,.78,2.5,2.67,2.67,0,0,0,2.11.89q2.8,0,2.81-3.45a3.93,3.93,0,0,0-.72-2.55,2.91,2.91,0,0,0-4.21.06A3.9,3.9,0,0,0,984.55,609.58Z" transform="translate(-587 -366)"/><path class="cls-13" d="M996.71,613.09v5.78h-2.07V604.68h2.07v1.61h0a3.88,3.88,0,0,1,6.19-.55,5.38,5.38,0,0,1,1.06,3.51,6,6,0,0,1-1.2,3.91,4,4,0,0,1-3.23,1.47,3.15,3.15,0,0,1-2.82-1.54Zm0-2.79a2.69,2.69,0,0,0,.7,1.9,2.28,2.28,0,0,0,1.78.77,2.31,2.31,0,0,0,2-1,4.56,4.56,0,0,0,.71-2.73,3.63,3.63,0,0,0-.66-2.33,2.22,2.22,0,0,0-1.84-.82,2.47,2.47,0,0,0-1.94.86,3.21,3.21,0,0,0-.75,2.18Z" transform="translate(-587 -366)"/><path class="cls-13" d="M1009.53,617.49a12.72,12.72,0,0,0,2.94-8.31,13.07,13.07,0,0,0-3-8.4h1.78a12.66,12.66,0,0,1,3,8.41,12,12,0,0,1-3,8.3Z" transform="translate(-587 -366)"/><path class="cls-13" d="M621.86,670.35a9.49,9.49,0,0,1-4.7,1.15,6.54,6.54,0,0,1-4.88-1.86,6.78,6.78,0,0,1-1.83-5,6.94,6.94,0,0,1,7.25-7.22,9.5,9.5,0,0,1,3.76.67v2.16a7.31,7.31,0,0,0-3.9-1,4.62,4.62,0,0,0-3.52,1.45,6.14,6.14,0,0,0-.11,7.59,4.42,4.42,0,0,0,3.41,1.36,5,5,0,0,0,2.4-.53v-3.41h-2.89v-1.79h5Z" transform="translate(-587 -366)"/><path class="cls-13" d="M637.2,671.27v-8.79q0-1.15.12-2.73h-.05a11.92,11.92,0,0,1-.41,1.48l-4.14,10h-1.38l-4.16-10a10.28,10.28,0,0,1-.41-1.56h-.06q.09,1.23.09,3v8.55h-2V657.65h2.95l3.68,9a10.43,10.43,0,0,1,.57,1.74h.06c.11-.36.32-1,.62-1.77l3.74-9h2.83v13.62Z" transform="translate(-587 -366)"/><path class="cls-13" d="M644.81,666.29v5H642.7V657.65h4.11a5.28,5.28,0,0,1,3.55,1.07,3.89,3.89,0,0,1,1.23,3.1,4.09,4.09,0,0,1-1.47,3.29,5.19,5.19,0,0,1-3.63,1.18Zm0-6.87v5.11h1.51c2,0,3-.88,3-2.62s-1-2.49-2.93-2.49Z" transform="translate(-587 -366)"/><path class="cls-13" d="M666,671.2l3.59,3.42h-2.88l-2.85-3.13a6,6,0,0,1-4.67-2,7.2,7.2,0,0,1-1.65-4.89,7.58,7.58,0,0,1,1.74-5.2,6.23,6.23,0,0,1,5-2,5.88,5.88,0,0,1,4.64,1.9,7.17,7.17,0,0,1,1.69,5,8.46,8.46,0,0,1-1.11,4.46A5.35,5.35,0,0,1,666,671.2Zm-1.87-11.92a3.93,3.93,0,0,0-3.23,1.43,6.78,6.78,0,0,0,0,7.54,3.82,3.82,0,0,0,3.14,1.4,4,4,0,0,0,3.21-1.38,5.66,5.66,0,0,0,1.16-3.75,6.12,6.12,0,0,0-1.08-3.85A3.75,3.75,0,0,0,664.17,659.28Z" transform="translate(-587 -366)"/><path class="cls-13" d="M681.25,671.27h-2.06v-1.52h0a3.27,3.27,0,0,1-3,1.75c-2.29,0-3.44-1.38-3.44-4.12v-5.83h2.06v5.57c0,1.82.7,2.72,2.09,2.72a2.1,2.1,0,0,0,1.67-.74,2.85,2.85,0,0,0,.65-2v-5.59h2.06Z" transform="translate(-587 -366)"/><path class="cls-13" d="M684.4,662.2a6.6,6.6,0,0,1,3.44-.88c2.46,0,3.68,1.27,3.68,3.81v6.14h-2v-1.48h0a3.22,3.22,0,0,1-3,1.71,3.14,3.14,0,0,1-2.25-.78,2.7,2.7,0,0,1-.82-2.08c0-1.83,1.08-2.89,3.26-3.2l2.82-.39c0-1.44-.64-2.17-1.91-2.17A5.15,5.15,0,0,0,684.4,664Zm3,4.55a2.71,2.71,0,0,0-1.49.54,1.48,1.48,0,0,0-.43,1.16,1.34,1.34,0,0,0,.46,1,1.78,1.78,0,0,0,1.2.41,2.25,2.25,0,0,0,1.72-.74,2.59,2.59,0,0,0,.69-1.85v-.86Z" transform="translate(-587 -366)"/><path class="cls-13" d="M694.24,671.27V656.88h2.06v14.39Z" transform="translate(-587 -366)"/><path class="cls-13" d="M699,658.21a1.13,1.13,0,0,1,.36-.86,1.29,1.29,0,0,1,.9-.34,1.33,1.33,0,0,1,.91.34,1.14,1.14,0,0,1,.37.86,1.12,1.12,0,0,1-.37.85,1.29,1.29,0,0,1-.91.34,1.25,1.25,0,0,1-.9-.34A1.13,1.13,0,0,1,699,658.21Zm.21,13.06v-9.72h2.06v9.72Z" transform="translate(-587 -366)"/><path class="cls-13" d="M709.52,658.57a2.36,2.36,0,0,0-1.06-.25q-1.56,0-1.56,1.89v1.34h2.25v1.63H706.9v8.09h-2.06v-8.09h-1.65v-1.63h1.65v-1.44a3.25,3.25,0,0,1,3.41-3.45,3.8,3.8,0,0,1,1.27.18Z" transform="translate(-587 -366)"/><path class="cls-13" d="M710.52,658.21a1.12,1.12,0,0,1,.35-.86,1.29,1.29,0,0,1,.9-.34,1.33,1.33,0,0,1,.91.34,1.14,1.14,0,0,1,.37.86,1.12,1.12,0,0,1-.37.85,1.29,1.29,0,0,1-.91.34,1.24,1.24,0,0,1-.89-.34A1.13,1.13,0,0,1,710.52,658.21Zm.2,13.06v-9.72h2.06v9.72Z" transform="translate(-587 -366)"/><path class="cls-13" d="M723.83,667h-6.68c.09,2,1.09,2.95,3,2.95a4.89,4.89,0,0,0,2.94-1v1.7a6.1,6.1,0,0,1-3.42.86,4.38,4.38,0,0,1-3.38-1.32,5.25,5.25,0,0,1-1.22-3.69,5.36,5.36,0,0,1,1.31-3.71,4.27,4.27,0,0,1,3.29-1.46,3.87,3.87,0,0,1,3.07,1.24,5,5,0,0,1,1.09,3.43Zm-2-1.5a3,3,0,0,0-.57-1.92,2,2,0,0,0-1.6-.66,2.23,2.23,0,0,0-1.64.7,3.26,3.26,0,0,0-.86,1.88Z" transform="translate(-587 -366)"/><path class="cls-13" d="M734.71,671.27h-2.05v-1.54h0a3.48,3.48,0,0,1-3.21,1.77,3.61,3.61,0,0,1-2.94-1.32,5.34,5.34,0,0,1-1.1-3.54,5.79,5.79,0,0,1,1.23-3.87,4,4,0,0,1,3.21-1.45,3,3,0,0,1,2.81,1.49h0v-5.93h2.05Zm-2-5.7a2.59,2.59,0,0,0-.71-1.85,2.51,2.51,0,0,0-3.76.21,4.2,4.2,0,0,0-.74,2.62,3.76,3.76,0,0,0,.7,2.41,2.26,2.26,0,0,0,1.89.88,2.36,2.36,0,0,0,1.89-.87,3.31,3.31,0,0,0,.73-2.21Z" transform="translate(-587 -366)"/><path class="cls-13" d="M754.73,671.27v-8.79c0-.77,0-1.68.13-2.73h-.06a10.32,10.32,0,0,1-.41,1.48l-4.14,10h-1.38l-4.16-10a11.7,11.7,0,0,1-.41-1.56h0q.09,1.23.09,3v8.55h-2V657.65h2.94l3.68,9a10.62,10.62,0,0,1,.58,1.74h.06c.11-.36.31-1,.61-1.77l3.75-9h2.83v13.62Z" transform="translate(-587 -366)"/><path class="cls-13" d="M760.23,662.2a6.56,6.56,0,0,1,3.43-.88q3.69,0,3.69,3.81v6.14h-2v-1.48h0a3.21,3.21,0,0,1-2.95,1.71,3.15,3.15,0,0,1-2.26-.78,2.7,2.7,0,0,1-.82-2.08c0-1.83,1.09-2.89,3.26-3.2l2.82-.39c0-1.44-.63-2.17-1.91-2.17a5.13,5.13,0,0,0-3.21,1.14Zm3,4.55a2.68,2.68,0,0,0-1.49.54,1.49,1.49,0,0,0-.44,1.16,1.35,1.35,0,0,0,.47,1,1.76,1.76,0,0,0,1.19.41,2.28,2.28,0,0,0,1.73-.74,2.62,2.62,0,0,0,.68-1.85v-.86Z" transform="translate(-587 -366)"/><path class="cls-13" d="M778.61,671.27h-2.05v-5.49c0-1.87-.68-2.81-2-2.81a2.14,2.14,0,0,0-1.7.78,2.91,2.91,0,0,0-.67,2v5.55h-2.07v-9.72h2.07v1.59h0a3.46,3.46,0,0,1,3.16-1.82c2.18,0,3.26,1.34,3.26,4Z" transform="translate(-587 -366)"/><path class="cls-13" d="M789.7,671.27h-2.06v-1.52h0a3.27,3.27,0,0,1-3,1.75c-2.29,0-3.44-1.38-3.44-4.12v-5.83h2.06v5.57c0,1.82.7,2.72,2.09,2.72a2.1,2.1,0,0,0,1.67-.74,2.9,2.9,0,0,0,.65-2v-5.59h2.06Z" transform="translate(-587 -366)"/><path class="cls-13" d="M798,658.57a2.4,2.4,0,0,0-1.07-.25q-1.56,0-1.56,1.89v1.34h2.25v1.63h-2.25v8.09h-2.06v-8.09h-1.65v-1.63h1.65v-1.44a3.35,3.35,0,0,1,1-2.52,3.38,3.38,0,0,1,2.45-.93,3.86,3.86,0,0,1,1.28.18Z" transform="translate(-587 -366)"/><path class="cls-13" d="M799.42,662.2a6.56,6.56,0,0,1,3.43-.88q3.69,0,3.69,3.81v6.14h-2v-1.48h0a3.21,3.21,0,0,1-3,1.71,3.15,3.15,0,0,1-2.26-.78,2.7,2.7,0,0,1-.82-2.08c0-1.83,1.09-2.89,3.26-3.2l2.82-.39c0-1.44-.63-2.17-1.91-2.17a5.13,5.13,0,0,0-3.21,1.14Zm3,4.55a2.68,2.68,0,0,0-1.49.54,1.49,1.49,0,0,0-.44,1.16,1.35,1.35,0,0,0,.47,1,1.76,1.76,0,0,0,1.19.41,2.27,2.27,0,0,0,1.73-.74,2.62,2.62,0,0,0,.68-1.85v-.86Z" transform="translate(-587 -366)"/><path class="cls-13" d="M816.16,670.86a5.35,5.35,0,0,1-2.75.64,4.61,4.61,0,0,1-3.45-1.35,4.83,4.83,0,0,1-1.31-3.51,5.3,5.3,0,0,1,1.41-3.88,5,5,0,0,1,3.77-1.44,5,5,0,0,1,2.35.47v1.93a3.75,3.75,0,0,0-2.24-.75,3,3,0,0,0-2.31,1,3.6,3.6,0,0,0-.88,2.56,3.43,3.43,0,0,0,.84,2.46,2.92,2.92,0,0,0,2.25.89,3.87,3.87,0,0,0,2.32-.79Z" transform="translate(-587 -366)"/><path class="cls-13" d="M823.37,671.16a3.34,3.34,0,0,1-1.65.33c-1.84,0-2.76-1-2.76-3v-5.3h-1.65v-1.63H819v-2.28l2-.62v2.9h2.36v1.63H821v4.94a2.13,2.13,0,0,0,.32,1.31,1.26,1.26,0,0,0,1,.41,1.7,1.7,0,0,0,1-.32Z" transform="translate(-587 -366)"/><path class="cls-13" d="M833.66,671.27H831.6v-1.52h0a3.26,3.26,0,0,1-3,1.75c-2.29,0-3.44-1.38-3.44-4.12v-5.83h2.06v5.57c0,1.82.7,2.72,2.09,2.72a2.1,2.1,0,0,0,1.67-.74,2.85,2.85,0,0,0,.65-2v-5.59h2.06Z" transform="translate(-587 -366)"/><path class="cls-13" d="M842.1,663.52a2.2,2.2,0,0,0-1.22-.3,1.91,1.91,0,0,0-1.62.88,4,4,0,0,0-.62,2.33v4.84h-2.06v-9.72h2.06v1.93h.05a2.63,2.63,0,0,1,2.55-2.1,2.5,2.5,0,0,1,.86.12Z" transform="translate(-587 -366)"/><path class="cls-13" d="M851.56,667h-6.68c.09,2,1.09,2.95,3,2.95a4.94,4.94,0,0,0,3-1v1.7a6.15,6.15,0,0,1-3.42.86,4.39,4.39,0,0,1-3.39-1.32,5.25,5.25,0,0,1-1.22-3.69,5.36,5.36,0,0,1,1.31-3.71,4.27,4.27,0,0,1,3.3-1.46,3.86,3.86,0,0,1,3.06,1.24,5,5,0,0,1,1.09,3.43Zm-2-1.5a3,3,0,0,0-.57-1.92,2,2,0,0,0-1.6-.66,2.23,2.23,0,0,0-1.64.7,3.26,3.26,0,0,0-.86,1.88Z" transform="translate(-587 -366)"/><path class="cls-13" d="M859.24,663.52a2.2,2.2,0,0,0-1.22-.3,1.89,1.89,0,0,0-1.62.88,4,4,0,0,0-.62,2.33v4.84h-2.06v-9.72h2.06v1.93h.05a2.63,2.63,0,0,1,2.55-2.1,2.5,2.5,0,0,1,.86.12Z" transform="translate(-587 -366)"/><path class="cls-13" d="M863.73,674.36a12,12,0,0,1-3-8.29,12.66,12.66,0,0,1,3-8.42h1.76a13.13,13.13,0,0,0-2.93,8.41,12.8,12.8,0,0,0,2.93,8.3Z" transform="translate(-587 -366)"/><path class="cls-13" d="M884.1,657.65l-3.75,13.62h-2.41l-2.61-9.53a6.57,6.57,0,0,1-.22-1.43h0a7,7,0,0,1-.24,1.42l-2.65,9.54h-2.44l-3.85-13.62h2.32l2.55,10a7.79,7.79,0,0,1,.21,1.44H871a7.44,7.44,0,0,1,.28-1.46l2.82-9.94h2.15l2.65,10a8.91,8.91,0,0,1,.23,1.35h0a6.6,6.6,0,0,1,.23-1.39l2.46-10Z" transform="translate(-587 -366)"/><path class="cls-13" d="M893.45,667h-6.68c.09,2,1.09,2.95,3,2.95a4.89,4.89,0,0,0,2.94-1v1.7a6.1,6.1,0,0,1-3.42.86,4.38,4.38,0,0,1-3.38-1.32,5.25,5.25,0,0,1-1.22-3.69,5.36,5.36,0,0,1,1.31-3.71,4.27,4.27,0,0,1,3.29-1.46,3.87,3.87,0,0,1,3.07,1.24,5,5,0,0,1,1.09,3.43Zm-2-1.5a3,3,0,0,0-.57-1.92,2,2,0,0,0-1.6-.66,2.23,2.23,0,0,0-1.64.7,3.26,3.26,0,0,0-.86,1.88Z" transform="translate(-587 -366)"/><path class="cls-13" d="M907,670.86a5.41,5.41,0,0,1-2.75.64,4.61,4.61,0,0,1-3.45-1.35,4.79,4.79,0,0,1-1.32-3.51,5.27,5.27,0,0,1,1.42-3.88,5,5,0,0,1,3.77-1.44,4.94,4.94,0,0,1,2.34.47v1.93a3.73,3.73,0,0,0-2.24-.75,3,3,0,0,0-2.31,1,3.65,3.65,0,0,0-.88,2.56,3.43,3.43,0,0,0,.84,2.46,2.93,2.93,0,0,0,2.26.89,3.87,3.87,0,0,0,2.32-.79Z" transform="translate(-587 -366)"/><path class="cls-13" d="M908.59,666.5a5.16,5.16,0,0,1,1.36-3.79,5,5,0,0,1,3.73-1.39,4.66,4.66,0,0,1,3.51,1.34,5.87,5.87,0,0,1-.07,7.43,4.83,4.83,0,0,1-3.64,1.41,4.75,4.75,0,0,1-3.56-1.37A5,5,0,0,1,908.59,666.5Zm2.1,0a3.74,3.74,0,0,0,.77,2.5,2.66,2.66,0,0,0,2.12.89q2.8,0,2.8-3.45a3.9,3.9,0,0,0-.72-2.54,2.52,2.52,0,0,0-2.08-.88,2.61,2.61,0,0,0-2.13.93A3.9,3.9,0,0,0,910.69,666.45Z" transform="translate(-587 -366)"/><path class="cls-13" d="M935.16,671.27h-2.07V665.7a3.65,3.65,0,0,0-.46-2.09,1.75,1.75,0,0,0-1.49-.64,1.86,1.86,0,0,0-1.51.81,3.13,3.13,0,0,0-.63,2v5.51h-2.06v-5.71c0-1.73-.66-2.59-2-2.59a1.83,1.83,0,0,0-1.51.78,3.21,3.21,0,0,0-.61,2v5.49h-2.06v-9.72h2.06v1.53h0a3.34,3.34,0,0,1,3.06-1.76,2.72,2.72,0,0,1,2.76,1.94,3.53,3.53,0,0,1,3.26-1.94c2.12,0,3.19,1.31,3.19,3.95Z" transform="translate(-587 -366)"/><path class="cls-13" d="M940,670v5.78h-2.07V661.55H940v1.62h0a3.87,3.87,0,0,1,6.19-.55,5.35,5.35,0,0,1,1.06,3.51,6,6,0,0,1-1.2,3.9,4,4,0,0,1-3.23,1.47A3.15,3.15,0,0,1,940,670Zm0-2.79a2.73,2.73,0,0,0,.7,1.91,2.5,2.5,0,0,0,3.78-.22,4.67,4.67,0,0,0,.71-2.74,3.65,3.65,0,0,0-.66-2.33,2.24,2.24,0,0,0-1.84-.82,2.47,2.47,0,0,0-1.94.86,3.21,3.21,0,0,0-.75,2.18Z" transform="translate(-587 -366)"/><path class="cls-13" d="M949.52,671.27V656.88h2.06v14.39Z" transform="translate(-587 -366)"/><path class="cls-13" d="M962.76,661.55l-4.28,11q-1.28,3.29-3.69,3.29a4.08,4.08,0,0,1-1.28-.17v-1.74a2.58,2.58,0,0,0,1,.23,1.82,1.82,0,0,0,1.72-1.29l.67-1.62-3.85-9.7h2.3l2.34,6.93c0,.15.12.46.22.93h0a8,8,0,0,1,.24-.91l2.43-7Z" transform="translate(-587 -366)"/><path class="cls-13" d="M981.65,661.55l-2.86,9.72h-2.16l-1.81-6.51a4.79,4.79,0,0,1-.15-1h0a4.91,4.91,0,0,1-.2,1l-1.95,6.54h-2.11l-2.87-9.72h2.14l1.77,7a5.15,5.15,0,0,1,.14,1h.06a5.45,5.45,0,0,1,.18-1l2.05-6.94h1.92l1.83,7a7.58,7.58,0,0,1,.14.94h.07a5,5,0,0,1,.16-.94l1.73-7Z" transform="translate(-587 -366)"/><path class="cls-13" d="M983.1,658.21a1.13,1.13,0,0,1,.36-.86,1.25,1.25,0,0,1,.9-.34,1.31,1.31,0,0,1,.9.34,1.11,1.11,0,0,1,.37.86,1.09,1.09,0,0,1-.37.85,1.26,1.26,0,0,1-.9.34,1.25,1.25,0,0,1-.9-.34A1.13,1.13,0,0,1,983.1,658.21Zm.2,13.06v-9.72h2.07v9.72Z" transform="translate(-587 -366)"/><path class="cls-13" d="M993.27,671.16a3.32,3.32,0,0,1-1.64.33c-1.85,0-2.77-1-2.77-3v-5.3h-1.65v-1.63h1.65v-2.28l2-.62v2.9h2.36v1.63h-2.36v4.94a2.13,2.13,0,0,0,.32,1.31,1.26,1.26,0,0,0,1,.41,1.7,1.7,0,0,0,1-.32Z" transform="translate(-587 -366)"/><path class="cls-13" d="M1003.73,671.27h-2.07V665.7q0-2.73-2-2.73a2.17,2.17,0,0,0-1.7.78,3,3,0,0,0-.67,2v5.52h-2.07V656.88h2.07v6.22h0a3.48,3.48,0,0,1,3.12-1.78q3.28,0,3.29,4Z" transform="translate(-587 -366)"/><path class="cls-13" d="M1016.48,663.52a2.17,2.17,0,0,0-1.21-.3,1.88,1.88,0,0,0-1.62.88,3.9,3.9,0,0,0-.62,2.33v4.84H1011v-9.72H1013v1.93h0a2.63,2.63,0,0,1,2.55-2.1,2.5,2.5,0,0,1,.86.12Z" transform="translate(-587 -366)"/><path class="cls-13" d="M1026,667h-6.68c.09,2,1.08,2.95,3,2.95a4.94,4.94,0,0,0,3-1v1.7a6.15,6.15,0,0,1-3.42.86,4.37,4.37,0,0,1-3.38-1.32,5.21,5.21,0,0,1-1.23-3.69,5.32,5.32,0,0,1,1.32-3.71,4.24,4.24,0,0,1,3.29-1.46,3.86,3.86,0,0,1,3.06,1.24A5,5,0,0,1,1026,666Zm-2-1.5a2.89,2.89,0,0,0-.57-1.92,2,2,0,0,0-1.6-.66,2.21,2.21,0,0,0-1.63.7,3.2,3.2,0,0,0-.86,1.88Z" transform="translate(-587 -366)"/><path class="cls-13" d="M1036.84,670.37c0,3.65-1.83,5.47-5.47,5.47a7.13,7.13,0,0,1-3.15-.63v-1.9a6.31,6.31,0,0,0,3.11.89q3.43,0,3.44-3.52v-1h0a3.53,3.53,0,0,1-3.23,1.79,3.64,3.64,0,0,1-2.93-1.31,5.19,5.19,0,0,1-1.1-3.48,6,6,0,0,1,1.2-3.93,4,4,0,0,1,3.23-1.46,3.1,3.1,0,0,1,2.83,1.5h0v-1.27h2.07Zm-2-4.8a2.62,2.62,0,0,0-.71-1.84,2.31,2.31,0,0,0-1.76-.76,2.39,2.39,0,0,0-2,1,4.32,4.32,0,0,0-.73,2.67,3.67,3.67,0,0,0,.7,2.36,2.25,2.25,0,0,0,1.85.88,2.42,2.42,0,0,0,1.92-.87,3.28,3.28,0,0,0,.74-2.19Z" transform="translate(-587 -366)"/><path class="cls-13" d="M1048.1,671.27H1046v-1.52h0a3.27,3.27,0,0,1-3,1.75c-2.29,0-3.44-1.38-3.44-4.12v-5.83h2.06v5.57c0,1.82.69,2.72,2.09,2.72a2.1,2.1,0,0,0,1.67-.74,2.9,2.9,0,0,0,.65-2v-5.59h2.06Z" transform="translate(-587 -366)"/><path class="cls-13" d="M1051,671.27V656.88h2.06v14.39Z" transform="translate(-587 -366)"/><path class="cls-13" d="M1056.21,662.2a6.56,6.56,0,0,1,3.43-.88q3.69,0,3.69,3.81v6.14h-2v-1.48h0a3.21,3.21,0,0,1-3,1.71,3.15,3.15,0,0,1-2.26-.78,2.7,2.7,0,0,1-.82-2.08c0-1.83,1.09-2.89,3.26-3.2l2.82-.39c0-1.44-.63-2.17-1.91-2.17a5.13,5.13,0,0,0-3.21,1.14Zm3,4.55a2.68,2.68,0,0,0-1.49.54,1.49,1.49,0,0,0-.44,1.16,1.35,1.35,0,0,0,.47,1,1.76,1.76,0,0,0,1.19.41,2.27,2.27,0,0,0,1.73-.74,2.62,2.62,0,0,0,.68-1.85v-.86Z" transform="translate(-587 -366)"/><path class="cls-13" d="M1071.05,671.16a3.32,3.32,0,0,1-1.64.33c-1.85,0-2.77-1-2.77-3v-5.3H1065v-1.63h1.64v-2.28l2.06-.62v2.9h2.35v1.63h-2.35v4.94a2.07,2.07,0,0,0,.32,1.31,1.24,1.24,0,0,0,1,.41,1.7,1.7,0,0,0,1-.32Z" transform="translate(-587 -366)"/><path class="cls-13" d="M1081,667h-6.68c.09,2,1.09,2.95,3,2.95a4.94,4.94,0,0,0,3-1v1.7a6.15,6.15,0,0,1-3.42.86,4.41,4.41,0,0,1-3.39-1.32,5.25,5.25,0,0,1-1.22-3.69,5.32,5.32,0,0,1,1.32-3.71,4.24,4.24,0,0,1,3.29-1.46,3.86,3.86,0,0,1,3.06,1.24A5,5,0,0,1,1081,666Zm-2-1.5a3,3,0,0,0-.57-1.92,2,2,0,0,0-1.6-.66,2.23,2.23,0,0,0-1.64.7,3.26,3.26,0,0,0-.86,1.88Z" transform="translate(-587 -366)"/><path class="cls-13" d="M1091.87,671.27h-2.06v-1.54h0a3.48,3.48,0,0,1-3.21,1.77,3.62,3.62,0,0,1-2.94-1.32,5.34,5.34,0,0,1-1.1-3.54,5.79,5.79,0,0,1,1.23-3.87,4,4,0,0,1,3.21-1.45,3,3,0,0,1,2.81,1.49h0v-5.93h2.06Zm-2-5.7a2.56,2.56,0,0,0-.72-1.85,2.36,2.36,0,0,0-1.77-.75,2.38,2.38,0,0,0-2,1,4.2,4.2,0,0,0-.74,2.62,3.82,3.82,0,0,0,.7,2.41,2.26,2.26,0,0,0,1.89.88,2.36,2.36,0,0,0,1.89-.87,3.32,3.32,0,0,0,.74-2.21Z" transform="translate(-587 -366)"/><path class="cls-13" d="M1101.35,670v1.31h-2.07V656.88h2.07v6.29h0a3.61,3.61,0,0,1,3.29-1.85,3.52,3.52,0,0,1,2.9,1.3,5.35,5.35,0,0,1,1.06,3.51,6,6,0,0,1-1.2,3.9,3.93,3.93,0,0,1-3.21,1.47,3.15,3.15,0,0,1-2.84-1.54Zm0-2.75a2.66,2.66,0,0,0,.71,1.87,2.49,2.49,0,0,0,3.77-.22,4.6,4.6,0,0,0,.72-2.74,3.59,3.59,0,0,0-.68-2.31A2.22,2.22,0,0,0,1104,663a2.49,2.49,0,0,0-1.92.84,3.1,3.1,0,0,0-.77,2.17Z" transform="translate(-587 -366)"/><path class="cls-13" d="M1119.2,661.55l-4.28,11q-1.28,3.29-3.69,3.29a4.15,4.15,0,0,1-1.29-.17v-1.74a2.63,2.63,0,0,0,1.06.23,1.82,1.82,0,0,0,1.71-1.29l.68-1.62-3.85-9.7h2.29l2.34,6.93c0,.15.13.46.23.93h0a8,8,0,0,1,.24-.91l2.44-7Z" transform="translate(-587 -366)"/><path class="cls-13" d="M1130.19,671.16a3.3,3.3,0,0,1-1.64.33c-1.84,0-2.77-1-2.77-3v-5.3h-1.64v-1.63h1.64v-2.28l2.06-.62v2.9h2.35v1.63h-2.35v4.94a2.13,2.13,0,0,0,.32,1.31,1.24,1.24,0,0,0,1,.41,1.68,1.68,0,0,0,1-.32Z" transform="translate(-587 -366)"/><path class="cls-13" d="M1140.65,671.27h-2.06V665.7q0-2.73-2-2.73a2.16,2.16,0,0,0-1.7.78,3,3,0,0,0-.68,2v5.52h-2.06V656.88h2.06v6.22h0a3.46,3.46,0,0,1,3.12-1.78q3.29,0,3.28,4Z" transform="translate(-587 -366)"/><path class="cls-13" d="M1151.53,667h-6.68c.08,2,1.08,2.95,3,2.95a4.94,4.94,0,0,0,3-1v1.7a6.15,6.15,0,0,1-3.42.86,4.41,4.41,0,0,1-3.39-1.32,5.25,5.25,0,0,1-1.22-3.69,5.32,5.32,0,0,1,1.32-3.71,4.24,4.24,0,0,1,3.29-1.46,3.86,3.86,0,0,1,3.06,1.24,5,5,0,0,1,1.1,3.43Zm-2-1.5a2.89,2.89,0,0,0-.57-1.92,2,2,0,0,0-1.6-.66,2.2,2.2,0,0,0-1.63.7,3.27,3.27,0,0,0-.87,1.88Z" transform="translate(-587 -366)"/><path class="cls-13" d="M1166.4,661.55l-3.79,9.72h-2.19l-3.6-9.72h2.24l2.19,6.69a7.59,7.59,0,0,1,.34,1.48h0a7.45,7.45,0,0,1,.32-1.44l2.28-6.73Z" transform="translate(-587 -366)"/><path class="cls-13" d="M1167.8,662.2a6.6,6.6,0,0,1,3.44-.88q3.67,0,3.68,3.81v6.14h-2v-1.48h-.05a3.2,3.2,0,0,1-2.95,1.71,3.13,3.13,0,0,1-2.25-.78,2.71,2.71,0,0,1-.83-2.08c0-1.83,1.09-2.89,3.27-3.2l2.82-.39c0-1.44-.64-2.17-1.91-2.17a5.13,5.13,0,0,0-3.22,1.14Zm3,4.55a2.71,2.71,0,0,0-1.49.54,1.48,1.48,0,0,0-.43,1.16,1.34,1.34,0,0,0,.46,1,1.76,1.76,0,0,0,1.2.41,2.26,2.26,0,0,0,1.72-.74,2.59,2.59,0,0,0,.69-1.85v-.86Z" transform="translate(-587 -366)"/><path class="cls-13" d="M1183.17,663.52a2.15,2.15,0,0,0-1.21-.3,1.88,1.88,0,0,0-1.62.88,4,4,0,0,0-.62,2.33v4.84h-2.06v-9.72h2.06v1.93h0a2.63,2.63,0,0,1,2.55-2.1,2.46,2.46,0,0,1,.86.12Z" transform="translate(-587 -366)"/><path class="cls-13" d="M1184.54,658.21a1.16,1.16,0,0,1,.35-.86,1.29,1.29,0,0,1,.9-.34,1.33,1.33,0,0,1,.91.34,1.11,1.11,0,0,1,.37.86,1.09,1.09,0,0,1-.37.85,1.29,1.29,0,0,1-.91.34,1.24,1.24,0,0,1-.89-.34A1.13,1.13,0,0,1,1184.54,658.21Zm.2,13.06v-9.72h2.06v9.72Z" transform="translate(-587 -366)"/><path class="cls-13" d="M1189.09,666.5a5.13,5.13,0,0,1,1.37-3.79,5,5,0,0,1,3.72-1.39,4.66,4.66,0,0,1,3.51,1.34,5.07,5.07,0,0,1,1.3,3.68,5.17,5.17,0,0,1-1.37,3.75,5.36,5.36,0,0,1-7.2,0A5,5,0,0,1,1189.09,666.5Zm2.1,0a3.69,3.69,0,0,0,.78,2.5,2.64,2.64,0,0,0,2.11.89q2.81,0,2.81-3.45a3.9,3.9,0,0,0-.72-2.54,2.9,2.9,0,0,0-4.21,0A3.9,3.9,0,0,0,1191.19,666.45Z" transform="translate(-587 -366)"/><path class="cls-13" d="M1209.63,671.27h-2.06v-1.52h0a3.26,3.26,0,0,1-3,1.75c-2.29,0-3.44-1.38-3.44-4.12v-5.83h2.06v5.57c0,1.82.7,2.72,2.09,2.72a2.1,2.1,0,0,0,1.67-.74,2.85,2.85,0,0,0,.65-2v-5.59h2.06Z" transform="translate(-587 -366)"/><path class="cls-13" d="M1212.09,669a4.94,4.94,0,0,0,2.83.92c1.29,0,1.93-.4,1.93-1.19a1,1,0,0,0-.4-.82,7.65,7.65,0,0,0-1.82-.85,4.74,4.74,0,0,1-2-1.22,2.48,2.48,0,0,1-.52-1.62,2.45,2.45,0,0,1,1.12-2.13,4.78,4.78,0,0,1,2.79-.78,6.66,6.66,0,0,1,2.38.42v1.83a4.59,4.59,0,0,0-2.48-.69,2.18,2.18,0,0,0-1.26.33,1,1,0,0,0-.49.85,1,1,0,0,0,.36.82,6.84,6.84,0,0,0,1.64.79,5.61,5.61,0,0,1,2.16,1.23,2.41,2.41,0,0,1,.57,1.64,2.51,2.51,0,0,1-1.12,2.17,5.1,5.1,0,0,1-3,.79,6.31,6.31,0,0,1-2.73-.55Z" transform="translate(-587 -366)"/><path class="cls-13" d="M625.46,692.87H623.4V687.3a3.65,3.65,0,0,0-.47-2.09,1.72,1.72,0,0,0-1.48-.64,1.86,1.86,0,0,0-1.51.81,3.08,3.08,0,0,0-.64,2v5.51h-2v-5.71c0-1.73-.66-2.59-2-2.59a1.85,1.85,0,0,0-1.52.78,3.26,3.26,0,0,0-.6,2v5.49h-2.06v-9.72h2.06v1.53h.05a3.34,3.34,0,0,1,3-1.76,2.73,2.73,0,0,1,2.77,1.94,3.52,3.52,0,0,1,3.25-1.94c2.13,0,3.19,1.31,3.19,4Z" transform="translate(-587 -366)"/><path class="cls-13" d="M628,679.81a1.16,1.16,0,0,1,.35-.86,1.3,1.3,0,0,1,.91-.34,1.32,1.32,0,0,1,.9.34,1.11,1.11,0,0,1,.37.86,1.12,1.12,0,0,1-.37.86,1.32,1.32,0,0,1-.9.33,1.25,1.25,0,0,1-.9-.34A1.13,1.13,0,0,1,628,679.81Zm.2,13.06v-9.72h2.07v9.72Z" transform="translate(-587 -366)"/><path class="cls-13" d="M641.69,692.87h-2.06v-5.49c0-1.87-.68-2.81-2-2.81a2.16,2.16,0,0,0-1.7.78,2.91,2.91,0,0,0-.67,2v5.55h-2.06v-9.72h2.06v1.59h0a3.49,3.49,0,0,1,3.17-1.82q3.26,0,3.26,4Z" transform="translate(-587 -366)"/><path class="cls-13" d="M644.2,679.81a1.13,1.13,0,0,1,.36-.86,1.29,1.29,0,0,1,.9-.34,1.33,1.33,0,0,1,.91.34,1.13,1.13,0,0,1,.36.86,1.15,1.15,0,0,1-.36.86,1.32,1.32,0,0,1-.91.33,1.25,1.25,0,0,1-.9-.34A1.13,1.13,0,0,1,644.2,679.81Zm.21,13.06v-9.72h2.06v9.72Z" transform="translate(-587 -366)"/><path class="cls-13" d="M648.92,690.61a5,5,0,0,0,2.83.92c1.29,0,1.94-.4,1.94-1.19a1,1,0,0,0-.41-.82,7.45,7.45,0,0,0-1.82-.85,4.74,4.74,0,0,1-2-1.22,2.65,2.65,0,0,1,.61-3.75,4.75,4.75,0,0,1,2.78-.78,6.62,6.62,0,0,1,2.38.42v1.83a4.56,4.56,0,0,0-2.48-.69,2.18,2.18,0,0,0-1.26.33,1.05,1.05,0,0,0-.13,1.67,7,7,0,0,0,1.64.79,5.53,5.53,0,0,1,2.16,1.23,2.4,2.4,0,0,1,.57,1.63,2.53,2.53,0,0,1-1.12,2.18,5.07,5.07,0,0,1-3,.79,6.32,6.32,0,0,1-2.74-.55Z" transform="translate(-587 -366)"/><path class="cls-13" d="M662.87,692.76a3.32,3.32,0,0,1-1.64.33c-1.85,0-2.77-1-2.77-3v-5.3h-1.64v-1.63h1.64v-2.28l2.06-.62v2.9h2.35v1.63h-2.35v4.94a2.07,2.07,0,0,0,.32,1.31,1.22,1.22,0,0,0,1,.41,1.7,1.7,0,0,0,1-.32Z" transform="translate(-587 -366)"/><path class="cls-13" d="M670.33,685.12a2.17,2.17,0,0,0-1.21-.3,1.88,1.88,0,0,0-1.62.88,3.9,3.9,0,0,0-.62,2.33v4.84h-2.07v-9.72h2.07v1.93h0a2.63,2.63,0,0,1,2.55-2.1,2.5,2.5,0,0,1,.86.12Z" transform="translate(-587 -366)"/><path class="cls-13" d="M671.7,679.81a1.12,1.12,0,0,1,.35-.86,1.29,1.29,0,0,1,.9-.34,1.33,1.33,0,0,1,.91.34,1.14,1.14,0,0,1,.37.86,1.16,1.16,0,0,1-.37.86,1.32,1.32,0,0,1-.91.33,1.22,1.22,0,0,1-.89-.34A1.13,1.13,0,0,1,671.7,679.81Zm.2,13.06v-9.72H674v9.72Z" transform="translate(-587 -366)"/><path class="cls-13" d="M685,688.56h-6.68c.09,2,1.09,3,3,3a4.89,4.89,0,0,0,2.94-1v1.7a6.1,6.1,0,0,1-3.42.86,4.37,4.37,0,0,1-3.38-1.32,5.25,5.25,0,0,1-1.22-3.69,5.36,5.36,0,0,1,1.31-3.71,4.27,4.27,0,0,1,3.29-1.46,3.87,3.87,0,0,1,3.07,1.24,5,5,0,0,1,1.09,3.43Zm-2-1.5a3,3,0,0,0-.57-1.92,2,2,0,0,0-1.6-.67,2.23,2.23,0,0,0-1.64.71,3.26,3.26,0,0,0-.86,1.88Z" transform="translate(-587 -366)"/><path class="cls-13" d="M686.71,690.61a5,5,0,0,0,2.83.92c1.29,0,1.93-.4,1.93-1.19a1,1,0,0,0-.4-.82,7.65,7.65,0,0,0-1.82-.85,4.85,4.85,0,0,1-2-1.22,2.54,2.54,0,0,1-.52-1.62,2.46,2.46,0,0,1,1.13-2.13,4.78,4.78,0,0,1,2.79-.78,6.66,6.66,0,0,1,2.38.42v1.83a4.61,4.61,0,0,0-2.48-.69,2.24,2.24,0,0,0-1.27.33,1,1,0,0,0-.48.85,1,1,0,0,0,.36.82,6.63,6.63,0,0,0,1.64.79,5.48,5.48,0,0,1,2.15,1.23,2.36,2.36,0,0,1,.58,1.63,2.54,2.54,0,0,1-1.13,2.18,5.07,5.07,0,0,1-2.95.79,6.31,6.31,0,0,1-2.73-.55Z" transform="translate(-587 -366)"/><path class="cls-13" d="M699.54,688.1a5.13,5.13,0,0,1,1.37-3.79,5,5,0,0,1,3.72-1.39,4.66,4.66,0,0,1,3.51,1.34,5.1,5.1,0,0,1,1.3,3.68,5.17,5.17,0,0,1-1.37,3.75,4.81,4.81,0,0,1-3.64,1.41,4.76,4.76,0,0,1-3.56-1.37A5,5,0,0,1,699.54,688.1Zm2.1-.05a3.69,3.69,0,0,0,.78,2.5,2.64,2.64,0,0,0,2.11.9c1.87,0,2.8-1.16,2.8-3.46a3.9,3.9,0,0,0-.72-2.54,2.52,2.52,0,0,0-2.08-.88,2.61,2.61,0,0,0-2.13.93A3.92,3.92,0,0,0,701.64,688.05Z" transform="translate(-587 -366)"/><path class="cls-13" d="M716.73,680.17a2.39,2.39,0,0,0-1.06-.25c-1,0-1.57.63-1.57,1.89v1.34h2.25v1.63H714.1v8.09h-2.05v-8.09h-1.66v-1.63h1.66v-1.44a3.23,3.23,0,0,1,3.41-3.45,3.8,3.8,0,0,1,1.27.18Z" transform="translate(-587 -366)"/><path class="cls-13" d="M731,692.87h-2.07V687.3q0-2.73-2-2.73a2.14,2.14,0,0,0-1.69.78,2.92,2.92,0,0,0-.68,2v5.52h-2.07V678.48h2.07v6.22h0a3.48,3.48,0,0,1,3.12-1.78q3.29,0,3.29,4Z" transform="translate(-587 -366)"/><path class="cls-13" d="M741.83,688.56h-6.68c.09,2,1.09,3,3,3a4.89,4.89,0,0,0,2.94-1v1.7a6.1,6.1,0,0,1-3.42.86,4.38,4.38,0,0,1-3.38-1.32,5.25,5.25,0,0,1-1.22-3.69,5.36,5.36,0,0,1,1.31-3.71,4.27,4.27,0,0,1,3.29-1.46,3.87,3.87,0,0,1,3.07,1.24,5,5,0,0,1,1.09,3.43Zm-2-1.5a3,3,0,0,0-.57-1.92,2,2,0,0,0-1.6-.67,2.24,2.24,0,0,0-1.64.71,3.26,3.26,0,0,0-.86,1.88Z" transform="translate(-587 -366)"/><path class="cls-13" d="M744.22,683.8a6.6,6.6,0,0,1,3.44-.88q3.68,0,3.68,3.8v6.15h-2v-1.48h-.05a3.2,3.2,0,0,1-2.95,1.71,3.13,3.13,0,0,1-2.25-.78,2.71,2.71,0,0,1-.83-2.08c0-1.83,1.09-2.89,3.27-3.2l2.82-.39c0-1.44-.64-2.17-1.91-2.17a5.13,5.13,0,0,0-3.22,1.14Zm3,4.55a2.79,2.79,0,0,0-1.49.54,1.48,1.48,0,0,0-.43,1.16,1.34,1.34,0,0,0,.46,1.05,1.76,1.76,0,0,0,1.2.41,2.26,2.26,0,0,0,1.72-.74,2.59,2.59,0,0,0,.69-1.85v-.86Z" transform="translate(-587 -366)"/><path class="cls-13" d="M754.06,692.87V678.48h2.06v14.39Z" transform="translate(-587 -366)"/><path class="cls-13" d="M764,692.76a3.3,3.3,0,0,1-1.64.33c-1.84,0-2.77-1-2.77-3v-5.3H758v-1.63h1.64v-2.28l2.06-.62v2.9H764v1.63h-2.35v4.94A2.13,2.13,0,0,0,762,691a1.24,1.24,0,0,0,1,.41,1.68,1.68,0,0,0,1-.32Z" transform="translate(-587 -366)"/><path class="cls-13" d="M774.48,692.87h-2.06V687.3q0-2.73-2-2.73a2.16,2.16,0,0,0-1.7.78,3,3,0,0,0-.68,2v5.52H766V678.48H768v6.22h.05a3.46,3.46,0,0,1,3.12-1.78q3.28,0,3.28,4Z" transform="translate(-587 -366)"/><path class="cls-13" d="M782,683.8a6.6,6.6,0,0,1,3.44-.88c2.46,0,3.68,1.27,3.68,3.8v6.15h-2v-1.48h0a3.22,3.22,0,0,1-3,1.71,3.14,3.14,0,0,1-2.25-.78,2.7,2.7,0,0,1-.82-2.08c0-1.83,1.08-2.89,3.26-3.2l2.82-.39c0-1.44-.64-2.17-1.91-2.17a5.13,5.13,0,0,0-3.22,1.14Zm3,4.55a2.79,2.79,0,0,0-1.49.54,1.48,1.48,0,0,0-.43,1.16,1.34,1.34,0,0,0,.46,1.05,1.78,1.78,0,0,0,1.2.41,2.25,2.25,0,0,0,1.72-.74,2.59,2.59,0,0,0,.69-1.85v-.86Z" transform="translate(-587 -366)"/><path class="cls-13" d="M800.34,692.87h-2.06v-5.49c0-1.87-.68-2.81-2-2.81a2.16,2.16,0,0,0-1.71.78,3,3,0,0,0-.67,2v5.55h-2.06v-9.72h2.06v1.59h0a3.46,3.46,0,0,1,3.16-1.82q3.25,0,3.26,4Z" transform="translate(-587 -366)"/><path class="cls-13" d="M811.8,692.87h-2v-1.54h0a3.49,3.49,0,0,1-3.22,1.77,3.62,3.62,0,0,1-2.94-1.32,5.35,5.35,0,0,1-1.09-3.54,5.79,5.79,0,0,1,1.23-3.87,4,4,0,0,1,3.21-1.45,3,3,0,0,1,2.81,1.49h0v-5.93h2Zm-2-5.7a2.61,2.61,0,0,0-.71-1.85,2.51,2.51,0,0,0-3.76.21,4.2,4.2,0,0,0-.74,2.62,3.76,3.76,0,0,0,.7,2.41,2.26,2.26,0,0,0,1.88.89,2.38,2.38,0,0,0,1.9-.88,3.31,3.31,0,0,0,.73-2.21Z" transform="translate(-587 -366)"/><path class="cls-13" d="M824.57,680.17a2.36,2.36,0,0,0-1.06-.25c-1,0-1.57.63-1.57,1.89v1.34h2.25v1.63h-2.25v8.09h-2.05v-8.09h-1.65v-1.63h1.65v-1.44a3.25,3.25,0,0,1,3.41-3.45,3.8,3.8,0,0,1,1.27.18Z" transform="translate(-587 -366)"/><path class="cls-13" d="M825.16,688.1a5.17,5.17,0,0,1,1.37-3.79,5,5,0,0,1,3.72-1.39,4.69,4.69,0,0,1,3.52,1.34,5.1,5.1,0,0,1,1.29,3.68,5.2,5.2,0,0,1-1.36,3.75,4.84,4.84,0,0,1-3.64,1.41,4.77,4.77,0,0,1-3.57-1.37A5,5,0,0,1,825.16,688.1Zm2.1-.05a3.69,3.69,0,0,0,.78,2.5,2.64,2.64,0,0,0,2.11.9c1.87,0,2.81-1.16,2.81-3.46a3.9,3.9,0,0,0-.72-2.54,2.54,2.54,0,0,0-2.09-.88,2.6,2.6,0,0,0-2.12.93A3.92,3.92,0,0,0,827.26,688.05Z" transform="translate(-587 -366)"/><path class="cls-13" d="M836.73,688.1a5.16,5.16,0,0,1,1.36-3.79,5,5,0,0,1,3.73-1.39,4.66,4.66,0,0,1,3.51,1.34,5.1,5.1,0,0,1,1.29,3.68,5.16,5.16,0,0,1-1.36,3.75,4.83,4.83,0,0,1-3.64,1.41,4.75,4.75,0,0,1-3.56-1.37A5,5,0,0,1,836.73,688.1Zm2.1-.05a3.69,3.69,0,0,0,.78,2.5,2.64,2.64,0,0,0,2.11.9c1.87,0,2.8-1.16,2.8-3.46a3.9,3.9,0,0,0-.72-2.54,2.52,2.52,0,0,0-2.08-.88,2.61,2.61,0,0,0-2.13.93A3.92,3.92,0,0,0,838.83,688.05Z" transform="translate(-587 -366)"/><path class="cls-13" d="M857.65,692.87h-2.06v-1.54h-.05a3.48,3.48,0,0,1-3.21,1.77,3.62,3.62,0,0,1-2.94-1.32,5.35,5.35,0,0,1-1.1-3.54,5.79,5.79,0,0,1,1.23-3.87,4,4,0,0,1,3.21-1.45,3,3,0,0,1,2.81,1.49h.05v-5.93h2.06Zm-2-5.7a2.57,2.57,0,0,0-.72-1.85,2.36,2.36,0,0,0-1.77-.75,2.4,2.4,0,0,0-2,1,4.2,4.2,0,0,0-.74,2.62,3.82,3.82,0,0,0,.7,2.41,2.27,2.27,0,0,0,1.89.89,2.37,2.37,0,0,0,1.89-.88,3.32,3.32,0,0,0,.74-2.21Z" transform="translate(-587 -366)"/><path class="cls-13" d="M864.61,690.61a5,5,0,0,0,2.83.92c1.29,0,1.93-.4,1.93-1.19a1,1,0,0,0-.4-.82,7.65,7.65,0,0,0-1.82-.85,4.85,4.85,0,0,1-2-1.22,2.54,2.54,0,0,1-.52-1.62,2.46,2.46,0,0,1,1.13-2.13,4.78,4.78,0,0,1,2.79-.78,6.7,6.7,0,0,1,2.38.42v1.83a4.61,4.61,0,0,0-2.48-.69,2.24,2.24,0,0,0-1.27.33,1,1,0,0,0-.48.85,1,1,0,0,0,.36.82,6.7,6.7,0,0,0,1.63.79,5.46,5.46,0,0,1,2.16,1.23,2.36,2.36,0,0,1,.58,1.63,2.54,2.54,0,0,1-1.13,2.18,5.07,5.07,0,0,1-2.95.79,6.31,6.31,0,0,1-2.73-.55Z" transform="translate(-587 -366)"/><path class="cls-13" d="M878.55,692.76a3.3,3.3,0,0,1-1.64.33c-1.84,0-2.77-1-2.77-3v-5.3H872.5v-1.63h1.64v-2.28l2.06-.62v2.9h2.35v1.63H876.2v4.94a2.13,2.13,0,0,0,.32,1.31,1.24,1.24,0,0,0,1,.41,1.68,1.68,0,0,0,1-.32Z" transform="translate(-587 -366)"/><path class="cls-13" d="M880.73,683.8a6.6,6.6,0,0,1,3.44-.88c2.46,0,3.68,1.27,3.68,3.8v6.15h-2v-1.48h0a3.22,3.22,0,0,1-3,1.71,3.14,3.14,0,0,1-2.25-.78,2.7,2.7,0,0,1-.82-2.08c0-1.83,1.08-2.89,3.26-3.2l2.82-.39c0-1.44-.64-2.17-1.91-2.17a5.15,5.15,0,0,0-3.22,1.14Zm3,4.55a2.79,2.79,0,0,0-1.49.54,1.48,1.48,0,0,0-.43,1.16,1.34,1.34,0,0,0,.46,1.05,1.78,1.78,0,0,0,1.2.41,2.25,2.25,0,0,0,1.72-.74,2.59,2.59,0,0,0,.69-1.85v-.86Z" transform="translate(-587 -366)"/><path class="cls-13" d="M899.12,692.87h-2.06v-5.49c0-1.87-.68-2.81-2-2.81a2.13,2.13,0,0,0-1.7.78,2.91,2.91,0,0,0-.68,2v5.55h-2.06v-9.72h2.06v1.59h.05a3.46,3.46,0,0,1,3.16-1.82q3.25,0,3.26,4Z" transform="translate(-587 -366)"/><path class="cls-13" d="M910.58,692.87h-2.05v-1.54h0a3.49,3.49,0,0,1-3.22,1.77,3.59,3.59,0,0,1-2.93-1.32,5.3,5.3,0,0,1-1.1-3.54,5.79,5.79,0,0,1,1.23-3.87,4,4,0,0,1,3.21-1.45,3,3,0,0,1,2.81,1.49h0v-5.93h2.05Zm-2-5.7a2.61,2.61,0,0,0-.71-1.85,2.51,2.51,0,0,0-3.76.21,4.2,4.2,0,0,0-.74,2.62,3.76,3.76,0,0,0,.7,2.41,2.27,2.27,0,0,0,1.89.89,2.37,2.37,0,0,0,1.89-.88,3.31,3.31,0,0,0,.73-2.21Z" transform="translate(-587 -366)"/><path class="cls-13" d="M913.74,683.8a6.56,6.56,0,0,1,3.43-.88q3.69,0,3.69,3.8v6.15h-2v-1.48h0a3.21,3.21,0,0,1-2.95,1.71,3.15,3.15,0,0,1-2.26-.78,2.7,2.7,0,0,1-.82-2.08c0-1.83,1.09-2.89,3.26-3.2l2.82-.39c0-1.44-.63-2.17-1.91-2.17a5.13,5.13,0,0,0-3.21,1.14Zm3,4.55a2.75,2.75,0,0,0-1.49.54,1.49,1.49,0,0,0-.44,1.16,1.35,1.35,0,0,0,.47,1.05,1.76,1.76,0,0,0,1.19.41,2.28,2.28,0,0,0,1.73-.74,2.62,2.62,0,0,0,.68-1.85v-.86Z" transform="translate(-587 -366)"/><path class="cls-13" d="M929.11,685.12a2.19,2.19,0,0,0-1.21-.3,1.88,1.88,0,0,0-1.62.88,3.9,3.9,0,0,0-.62,2.33v4.84h-2.07v-9.72h2.07v1.93h0a2.63,2.63,0,0,1,2.55-2.1,2.5,2.5,0,0,1,.86.12Z" transform="translate(-587 -366)"/><path class="cls-13" d="M939.16,692.87h-2v-1.54h-.05a3.48,3.48,0,0,1-3.21,1.77,3.62,3.62,0,0,1-2.94-1.32,5.35,5.35,0,0,1-1.1-3.54,5.79,5.79,0,0,1,1.23-3.87,4,4,0,0,1,3.21-1.45,3,3,0,0,1,2.81,1.49h.05v-5.93h2Zm-2-5.7a2.57,2.57,0,0,0-.72-1.85,2.36,2.36,0,0,0-1.77-.75,2.38,2.38,0,0,0-2,1,4.2,4.2,0,0,0-.74,2.62,3.76,3.76,0,0,0,.7,2.41,2.27,2.27,0,0,0,1.89.89,2.37,2.37,0,0,0,1.89-.88,3.32,3.32,0,0,0,.74-2.21Z" transform="translate(-587 -366)"/><path class="cls-13" d="M941.63,690.61a5,5,0,0,0,2.83.92c1.28,0,1.93-.4,1.93-1.19a1,1,0,0,0-.41-.82,7.52,7.52,0,0,0-1.81-.85,4.79,4.79,0,0,1-2-1.22,2.54,2.54,0,0,1-.52-1.62,2.46,2.46,0,0,1,1.13-2.13,4.77,4.77,0,0,1,2.78-.78,6.71,6.71,0,0,1,2.39.42v1.83a4.61,4.61,0,0,0-2.48-.69,2.22,2.22,0,0,0-1.27.33,1,1,0,0,0-.48.85,1,1,0,0,0,.35.82,7,7,0,0,0,1.64.79,5.46,5.46,0,0,1,2.16,1.23,2.41,2.41,0,0,1,.58,1.63,2.54,2.54,0,0,1-1.13,2.18,5.07,5.07,0,0,1-2.95.79,6.28,6.28,0,0,1-2.73-.55Z" transform="translate(-587 -366)"/><path class="cls-13" d="M955.32,683.8a6.56,6.56,0,0,1,3.43-.88q3.69,0,3.69,3.8v6.15h-2v-1.48h0a3.21,3.21,0,0,1-2.95,1.71,3.15,3.15,0,0,1-2.26-.78,2.7,2.7,0,0,1-.82-2.08c0-1.83,1.09-2.89,3.26-3.2l2.82-.39c0-1.44-.63-2.17-1.9-2.17a5.13,5.13,0,0,0-3.22,1.14Zm3,4.55a2.75,2.75,0,0,0-1.49.54,1.49,1.49,0,0,0-.44,1.16,1.35,1.35,0,0,0,.47,1.05,1.76,1.76,0,0,0,1.19.41,2.27,2.27,0,0,0,1.73-.74,2.62,2.62,0,0,0,.68-1.85v-.86Z" transform="translate(-587 -366)"/><path class="cls-13" d="M973.91,692c0,3.65-1.83,5.47-5.47,5.47a7.16,7.16,0,0,1-3.15-.63v-1.9a6.31,6.31,0,0,0,3.11.89q3.44,0,3.44-3.52v-1h0a3.53,3.53,0,0,1-3.23,1.79,3.64,3.64,0,0,1-2.93-1.31,5.19,5.19,0,0,1-1.1-3.48,6,6,0,0,1,1.2-3.93,4,4,0,0,1,3.23-1.46,3.1,3.1,0,0,1,2.83,1.5h0v-1.27h2.07Zm-2-4.8a2.62,2.62,0,0,0-.71-1.84,2.35,2.35,0,0,0-1.76-.76,2.39,2.39,0,0,0-2,1,4.32,4.32,0,0,0-.73,2.67,3.67,3.67,0,0,0,.7,2.36,2.27,2.27,0,0,0,1.86.89,2.42,2.42,0,0,0,1.91-.88,3.28,3.28,0,0,0,.74-2.19Z" transform="translate(-587 -366)"/><path class="cls-13" d="M985,688.56h-6.68c.08,2,1.08,3,3,3a4.94,4.94,0,0,0,3-1v1.7a6.15,6.15,0,0,1-3.42.86,4.41,4.41,0,0,1-3.39-1.32,5.25,5.25,0,0,1-1.22-3.69,5.32,5.32,0,0,1,1.32-3.71,4.24,4.24,0,0,1,3.29-1.46,3.86,3.86,0,0,1,3.06,1.24,5,5,0,0,1,1.1,3.43Zm-2-1.5a3,3,0,0,0-.57-1.92,2,2,0,0,0-1.6-.67,2.21,2.21,0,0,0-1.63.71,3.27,3.27,0,0,0-.87,1.88Z" transform="translate(-587 -366)"/><path class="cls-13" d="M995.64,692.87h-2v-5.49c0-1.87-.68-2.81-2-2.81a2.13,2.13,0,0,0-1.7.78,2.91,2.91,0,0,0-.68,2v5.55h-2.06v-9.72h2.06v1.59h.05a3.46,3.46,0,0,1,3.16-1.82c2.18,0,3.26,1.34,3.26,4Z" transform="translate(-587 -366)"/><path class="cls-13" d="M1005.27,692.46a5.41,5.41,0,0,1-2.75.64,4.61,4.61,0,0,1-3.45-1.35,4.79,4.79,0,0,1-1.32-3.51,5.27,5.27,0,0,1,1.42-3.88,5.83,5.83,0,0,1,6.11-1v1.94a3.73,3.73,0,0,0-2.24-.75,3,3,0,0,0-2.3,1,3.61,3.61,0,0,0-.89,2.56,3.43,3.43,0,0,0,.84,2.46,2.94,2.94,0,0,0,2.26.9,3.88,3.88,0,0,0,2.32-.8Z" transform="translate(-587 -366)"/><path class="cls-13" d="M1007.26,679.81a1.13,1.13,0,0,1,.36-.86,1.27,1.27,0,0,1,.9-.34,1.29,1.29,0,0,1,.9.34,1.11,1.11,0,0,1,.37.86,1.12,1.12,0,0,1-.37.86,1.28,1.28,0,0,1-.9.33,1.25,1.25,0,0,1-.9-.34A1.13,1.13,0,0,1,1007.26,679.81Zm.2,13.06v-9.72h2.07v9.72Z" transform="translate(-587 -366)"/><path class="cls-13" d="M1020.58,688.56h-6.68c.09,2,1.08,3,3,3a4.94,4.94,0,0,0,3-1v1.7a6.15,6.15,0,0,1-3.42.86,4.37,4.37,0,0,1-3.38-1.32,5.21,5.21,0,0,1-1.23-3.69,5.32,5.32,0,0,1,1.32-3.71,4.24,4.24,0,0,1,3.29-1.46,3.86,3.86,0,0,1,3.06,1.24,5,5,0,0,1,1.1,3.43Zm-2-1.5a2.89,2.89,0,0,0-.57-1.92,2,2,0,0,0-1.6-.67,2.22,2.22,0,0,0-1.63.71,3.2,3.2,0,0,0-.86,1.88Z" transform="translate(-587 -366)"/><path class="cls-13" d="M1022.27,690.61a5,5,0,0,0,2.83.92c1.29,0,1.94-.4,1.94-1.19a1,1,0,0,0-.41-.82,7.45,7.45,0,0,0-1.82-.85,4.81,4.81,0,0,1-2-1.22,2.65,2.65,0,0,1,.61-3.75,4.75,4.75,0,0,1,2.78-.78,6.62,6.62,0,0,1,2.38.42v1.83a4.55,4.55,0,0,0-2.47-.69,2.19,2.19,0,0,0-1.27.33,1.05,1.05,0,0,0-.13,1.67,7,7,0,0,0,1.64.79,5.46,5.46,0,0,1,2.16,1.23,2.4,2.4,0,0,1,.57,1.63,2.53,2.53,0,0,1-1.12,2.18,5.07,5.07,0,0,1-3,.79,6.32,6.32,0,0,1-2.74-.55Z" transform="translate(-587 -366)"/><path class="cls-13" d="M1048.61,683.15l-2.86,9.72h-2.15l-1.81-6.51a3.78,3.78,0,0,1-.15-1h-.05a5.56,5.56,0,0,1-.19,1l-2,6.54h-2.11l-2.88-9.72h2.14l1.78,7a6.17,6.17,0,0,1,.14,1h.06a4.68,4.68,0,0,1,.17-1l2-6.94h1.93l1.82,7a8.21,8.21,0,0,1,.14,1h.07a5.09,5.09,0,0,1,.16-1l1.73-7Z" transform="translate(-587 -366)"/><path class="cls-13" d="M1058.8,692.87h-2.06V687.3c0-1.82-.68-2.73-2-2.73a2.14,2.14,0,0,0-1.69.78,3,3,0,0,0-.68,2v5.52h-2.07V678.48h2.07v6.22h0a3.48,3.48,0,0,1,3.12-1.78c2.2,0,3.29,1.32,3.29,4Z" transform="translate(-587 -366)"/><path class="cls-13" d="M1069.67,688.56H1063c.09,2,1.09,3,3,3a4.89,4.89,0,0,0,2.94-1v1.7a6.09,6.09,0,0,1-3.41.86,4.39,4.39,0,0,1-3.39-1.32,5.25,5.25,0,0,1-1.22-3.69,5.36,5.36,0,0,1,1.31-3.71,4.27,4.27,0,0,1,3.3-1.46,3.86,3.86,0,0,1,3.06,1.24,5,5,0,0,1,1.09,3.43Zm-2-1.5a3,3,0,0,0-.57-1.92,2,2,0,0,0-1.6-.67,2.24,2.24,0,0,0-1.64.71,3.26,3.26,0,0,0-.86,1.88Z" transform="translate(-587 -366)"/><path class="cls-13" d="M1077.35,685.12a2.2,2.2,0,0,0-1.22-.3,1.88,1.88,0,0,0-1.62.88,4,4,0,0,0-.62,2.33v4.84h-2.06v-9.72h2.06v1.93h0a2.62,2.62,0,0,1,2.54-2.1,2.56,2.56,0,0,1,.87.12Z" transform="translate(-587 -366)"/><path class="cls-13" d="M1086.81,688.56h-6.68c.09,2,1.09,3,3,3a4.89,4.89,0,0,0,2.94-1v1.7a6.1,6.1,0,0,1-3.42.86,4.37,4.37,0,0,1-3.38-1.32,5.25,5.25,0,0,1-1.22-3.69,5.36,5.36,0,0,1,1.31-3.71,4.27,4.27,0,0,1,3.29-1.46,3.87,3.87,0,0,1,3.07,1.24,5,5,0,0,1,1.09,3.43Zm-2-1.5a3,3,0,0,0-.57-1.92,2,2,0,0,0-1.6-.67,2.23,2.23,0,0,0-1.64.71,3.26,3.26,0,0,0-.86,1.88Z" transform="translate(-587 -366)"/><path class="cls-13" d="M1106.35,683.15l-2.87,9.72h-2.15l-1.81-6.51a4.79,4.79,0,0,1-.15-1h0a4.91,4.91,0,0,1-.2,1l-2,6.54h-2.11l-2.87-9.72h2.13l1.78,7a5.15,5.15,0,0,1,.14,1h.06a4.7,4.7,0,0,1,.18-1l2-6.94h1.92l1.83,7a8.21,8.21,0,0,1,.14,1h.07a5.09,5.09,0,0,1,.16-1l1.73-7Z" transform="translate(-587 -366)"/><path class="cls-13" d="M1116.06,688.56h-6.68c.09,2,1.09,3,3,3a4.89,4.89,0,0,0,2.94-1v1.7a6.1,6.1,0,0,1-3.42.86,4.37,4.37,0,0,1-3.38-1.32,5.25,5.25,0,0,1-1.22-3.69,5.36,5.36,0,0,1,1.31-3.71,4.27,4.27,0,0,1,3.29-1.46,3.87,3.87,0,0,1,3.07,1.24,5,5,0,0,1,1.09,3.43Zm-2-1.5a3,3,0,0,0-.57-1.92,2,2,0,0,0-1.6-.67,2.23,2.23,0,0,0-1.64.71,3.26,3.26,0,0,0-.86,1.88Z" transform="translate(-587 -366)"/><path class="cls-13" d="M1131.44,692.87h-2v-1.54h-.05a3.48,3.48,0,0,1-3.21,1.77,3.6,3.6,0,0,1-2.94-1.32,5.35,5.35,0,0,1-1.1-3.54,5.79,5.79,0,0,1,1.23-3.87,4,4,0,0,1,3.21-1.45,3,3,0,0,1,2.81,1.49h.05v-5.93h2Zm-2-5.7a2.61,2.61,0,0,0-.71-1.85,2.51,2.51,0,0,0-3.76.21,4.2,4.2,0,0,0-.74,2.62,3.76,3.76,0,0,0,.7,2.41,2.27,2.27,0,0,0,1.89.89,2.37,2.37,0,0,0,1.89-.88,3.31,3.31,0,0,0,.73-2.21Z" transform="translate(-587 -366)"/><path class="cls-13" d="M1133.74,688.1a5.16,5.16,0,0,1,1.36-3.79,5,5,0,0,1,3.73-1.39,4.66,4.66,0,0,1,3.51,1.34,5.1,5.1,0,0,1,1.29,3.68,5.16,5.16,0,0,1-1.36,3.75,4.83,4.83,0,0,1-3.64,1.41,4.75,4.75,0,0,1-3.56-1.37A5,5,0,0,1,1133.74,688.1Zm2.1-.05a3.74,3.74,0,0,0,.77,2.5,2.67,2.67,0,0,0,2.12.9c1.87,0,2.8-1.16,2.8-3.46a3.9,3.9,0,0,0-.72-2.54,2.52,2.52,0,0,0-2.08-.88,2.61,2.61,0,0,0-2.13.93A3.92,3.92,0,0,0,1135.84,688.05Z" transform="translate(-587 -366)"/><path class="cls-13" d="M1152.49,691.56v1.31h-2.06V678.48h2.06v6.29h0a3.62,3.62,0,0,1,3.28-1.85,3.55,3.55,0,0,1,2.91,1.3,5.4,5.4,0,0,1,1.06,3.51,6,6,0,0,1-1.2,3.9,3.93,3.93,0,0,1-3.21,1.47,3.13,3.13,0,0,1-2.84-1.54Zm0-2.75a2.66,2.66,0,0,0,.71,1.87,2.31,2.31,0,0,0,1.77.77,2.34,2.34,0,0,0,2-1,4.67,4.67,0,0,0,.71-2.74,3.65,3.65,0,0,0-.67-2.31,2.23,2.23,0,0,0-1.84-.84,2.49,2.49,0,0,0-1.92.84,3.1,3.1,0,0,0-.77,2.17Z" transform="translate(-587 -366)"/><path class="cls-13" d="M1170.42,692.87h-2.05v-1.52h0a3.26,3.26,0,0,1-3,1.75q-3.43,0-3.43-4.13v-5.82h2v5.57c0,1.82.7,2.73,2.09,2.73a2.1,2.1,0,0,0,1.67-.75,2.85,2.85,0,0,0,.66-2v-5.59h2.05Z" transform="translate(-587 -366)"/><path class="cls-13" d="M1172.88,690.61a5,5,0,0,0,2.83.92c1.29,0,1.94-.4,1.94-1.19a1,1,0,0,0-.41-.82,7.45,7.45,0,0,0-1.82-.85,4.74,4.74,0,0,1-2-1.22,2.65,2.65,0,0,1,.61-3.75,4.75,4.75,0,0,1,2.78-.78,6.62,6.62,0,0,1,2.38.42v1.83a4.56,4.56,0,0,0-2.48-.69,2.18,2.18,0,0,0-1.26.33,1.05,1.05,0,0,0-.13,1.67,7,7,0,0,0,1.64.79,5.53,5.53,0,0,1,2.16,1.23,2.4,2.4,0,0,1,.57,1.63,2.53,2.53,0,0,1-1.12,2.18,5.09,5.09,0,0,1-3,.79,6.32,6.32,0,0,1-2.74-.55Z" transform="translate(-587 -366)"/><path class="cls-13" d="M1181.62,679.81a1.13,1.13,0,0,1,.36-.86,1.25,1.25,0,0,1,.9-.34,1.31,1.31,0,0,1,.9.34,1.11,1.11,0,0,1,.37.86,1.12,1.12,0,0,1-.37.86,1.3,1.3,0,0,1-.9.33,1.25,1.25,0,0,1-.9-.34A1.13,1.13,0,0,1,1181.62,679.81Zm.2,13.06v-9.72h2.07v9.72Z" transform="translate(-587 -366)"/><path class="cls-13" d="M1195.33,692.87h-2.06v-5.49c0-1.87-.68-2.81-2-2.81a2.16,2.16,0,0,0-1.7.78,2.91,2.91,0,0,0-.67,2v5.55h-2.06v-9.72h2.06v1.59h.05a3.46,3.46,0,0,1,3.16-1.82q3.26,0,3.26,4Z" transform="translate(-587 -366)"/><path class="cls-13" d="M1206.2,688.56h-6.68c.09,2,1.09,3,3,3a4.89,4.89,0,0,0,2.94-1v1.7a6.1,6.1,0,0,1-3.42.86,4.38,4.38,0,0,1-3.38-1.32,5.25,5.25,0,0,1-1.22-3.69,5.36,5.36,0,0,1,1.31-3.71,4.27,4.27,0,0,1,3.29-1.46,3.87,3.87,0,0,1,3.07,1.24,5,5,0,0,1,1.09,3.43Zm-2-1.5a3,3,0,0,0-.57-1.92,2,2,0,0,0-1.6-.67,2.24,2.24,0,0,0-1.64.71,3.26,3.26,0,0,0-.86,1.88Z" transform="translate(-587 -366)"/><path class="cls-13" d="M1207.9,690.61a5,5,0,0,0,2.83.92c1.29,0,1.93-.4,1.93-1.19a1,1,0,0,0-.4-.82,7.65,7.65,0,0,0-1.82-.85,4.85,4.85,0,0,1-2-1.22,2.53,2.53,0,0,1-.51-1.62,2.45,2.45,0,0,1,1.12-2.13,4.78,4.78,0,0,1,2.79-.78,6.66,6.66,0,0,1,2.38.42v1.83a4.61,4.61,0,0,0-2.48-.69,2.24,2.24,0,0,0-1.27.33,1,1,0,0,0-.48.85,1,1,0,0,0,.36.82,6.63,6.63,0,0,0,1.64.79,5.48,5.48,0,0,1,2.15,1.23,2.36,2.36,0,0,1,.58,1.63,2.54,2.54,0,0,1-1.13,2.18,5.07,5.07,0,0,1-2.95.79,6.31,6.31,0,0,1-2.73-.55Z" transform="translate(-587 -366)"/><path class="cls-13" d="M1216.4,690.61a5,5,0,0,0,2.83.92c1.29,0,1.93-.4,1.93-1.19a1,1,0,0,0-.4-.82,7.65,7.65,0,0,0-1.82-.85,4.85,4.85,0,0,1-2-1.22,2.53,2.53,0,0,1-.51-1.62,2.45,2.45,0,0,1,1.12-2.13,4.78,4.78,0,0,1,2.79-.78,6.66,6.66,0,0,1,2.38.42v1.83a4.61,4.61,0,0,0-2.48-.69,2.24,2.24,0,0,0-1.27.33,1,1,0,0,0-.48.85,1,1,0,0,0,.36.82,6.63,6.63,0,0,0,1.64.79,5.48,5.48,0,0,1,2.15,1.23,2.36,2.36,0,0,1,.58,1.63,2.54,2.54,0,0,1-1.13,2.18,5.07,5.07,0,0,1-2.95.79,6.31,6.31,0,0,1-2.73-.55Z" transform="translate(-587 -366)"/><path class="cls-13" d="M1224.88,691.85a1.15,1.15,0,0,1,.39-.89,1.37,1.37,0,0,1,1.83,0,1.14,1.14,0,0,1,.39.89,1.16,1.16,0,0,1-.37.87,1.27,1.27,0,0,1-.95.37,1.26,1.26,0,0,1-.91-.36A1.12,1.12,0,0,1,1224.88,691.85Z" transform="translate(-587 -366)"/><path class="cls-13" d="M1228.68,696a12.71,12.71,0,0,0,2.94-8.3,13.1,13.1,0,0,0-2.95-8.41h1.77a12.65,12.65,0,0,1,3,8.42,12,12,0,0,1-3,8.29Z" transform="translate(-587 -366)"/><rect class="cls-13" x="415.31" y="15.15" width="11.98" height="95.04"/><rect class="cls-13" x="499.18" y="95.02" width="11.98" height="95.04"/><rect class="cls-13" x="590.23" y="174.89" width="11.98" height="95.04"/><rect class="cls-13" x="684.47" y="253.96" width="11.98" height="95.04"/><polyline class="cls-4" points="414.96 30.73 445.69 0 476.41 30.73"/><polyline class="cls-3" points="500.42 110.59 531.15 79.87 561.87 110.59"/><polyline class="cls-2" points="589.07 190.46 619.8 159.74 650.53 190.46"/><polyline class="cls-1" points="684.92 269.53 715.64 238.81 746.37 269.53"/></svg>