<svg id="图层_1" data-name="图层 1" xmlns="http://www.w3.org/2000/svg" viewBox="0 0 734.24 472">
    <defs>
        <style>
            .cls-1 {
                fill: none;
                stroke-width: 12px;
            }

            .cls-1,
            .cls-5 {
                stroke: #f3af37;
            }

            .cls-1,
            .cls-11,
            .cls-5 {
                stroke-miterlimit: 10;
            }

            .cls-2 {
                font-size: 25px;
            }

            .cls-11,
            .cls-2,
            .cls-3,
            .cls-6,
            .cls-7,
            .cls-8 {
                fill: #fff;
            }

            .cls-2,
            .cls-3,
            .cls-4,
            .cls-8 {
                font-family: MicrosoftJhengHeiBold, Microsoft JhengHei;
            }

            .cls-3 {
                font-size: 15px;
            }

            .cls-4 {
                font-size: 76px;
            }

            .cls-4,
            .cls-5 {
                fill: #f3af37;
            }

            .cls-6,
            .cls-9 {
                opacity: 0.3;
            }

            .cls-8 {
                font-size: 30.51px;
            }

            .cls-9 {
                fill: #b1b1b1;
            }

            .cls-10 {
                opacity: 0.8;
            }

            .cls-11 {
                stroke: #fff;
                stroke-width: 2px;
            }
        </style>
    </defs>
    <title>2-2</title>
    <circle class="cls-1" cx="263.08" cy="294.49" r="101" />
    <line class="cls-1" x1="334.75" y1="362.49" x2="733.75" y2="362.49" /><text class="cls-2"
        transform="translate(395.81 330.67)">固态产品</text><text class="cls-3" transform="translate(395.81 393.67)">
        <tspan xml:space="preserve">铝箔袋装(背封) 1.5g - 25g</tspan>
    </text><text class="cls-4" transform="translate(582.24 235.43)">颗粒<tspan x="0" y="91.2">粉末</tspan></text>
    <path class="cls-5"
        d="M897.47,742.3a3.38,3.38,0,0,1-2.6-1.21L843,679.65a8.88,8.88,0,0,0-12.37,0l-51.71,61.27a3.41,3.41,0,1,1-5.21-4.39l51.82-61.39.19-.21a15.67,15.67,0,0,1,22.18,0,1.34,1.34,0,0,1,.2.21l52,61.56a3.4,3.4,0,0,1-2.6,5.6Z"
        transform="translate(-571.75 -404.51)" />
    <path class="cls-5" d="M849.17,742.39H771a3.4,3.4,0,0,1,0-6.8h78.19a3.4,3.4,0,1,1,0,6.8Z"
        transform="translate(-571.75 -404.51)" />
    <path class="cls-5" d="M865,742.39h-2.24a3.4,3.4,0,0,1,0-6.8H865a3.4,3.4,0,0,1,0,6.8Z"
        transform="translate(-571.75 -404.51)" />
    <path class="cls-5" d="M902.25,742.39H876.82a3.4,3.4,0,0,1,0-6.8h25.43a3.4,3.4,0,0,1,0,6.8Z"
        transform="translate(-571.75 -404.51)" />
    <path class="cls-5"
        d="M842.7,710.9a3.41,3.41,0,0,1,0-6.81h0a3.41,3.41,0,0,1,0,6.81Zm-11.2,0a3.41,3.41,0,0,1,0-6.81h0a3.41,3.41,0,0,1,0,6.81Zm-11.21,0a3.41,3.41,0,0,1,0-6.81h0a3.41,3.41,0,0,1,0,6.81Z"
        transform="translate(-571.75 -404.51)" />
    <path class="cls-5"
        d="M848.34,701.37a3.42,3.42,0,0,1-3.42-3.41,3.38,3.38,0,0,1,3.38-3.4h0a3.41,3.41,0,0,1,0,6.81Zm-11.21,0a3.42,3.42,0,0,1-3.42-3.41,3.39,3.39,0,0,1,3.39-3.4h0a3.41,3.41,0,0,1,0,6.81Z"
        transform="translate(-571.75 -404.51)" />
    <path class="cls-5" d="M827.55,698.18h0a3.41,3.41,0,1,1,3.43-3.41A3.41,3.41,0,0,1,827.51,698.18Z"
        transform="translate(-571.75 -404.51)" />
    <path class="cls-5" d="M834.31,690.23a3.41,3.41,0,0,1,0-6.81h0a3.41,3.41,0,1,1,0,6.81Z"
        transform="translate(-571.75 -404.51)" />
    <path class="cls-5" d="M858.09,712.48a3.41,3.41,0,0,1,0-6.81h0a3.41,3.41,0,0,1,0,6.81Z"
        transform="translate(-571.75 -404.51)" />
    <path class="cls-5" d="M807.59,725.14a3.43,3.43,0,0,1-3.42-3.4,3.39,3.39,0,0,1,3.39-3.41h0a3.41,3.41,0,1,1,0,6.81Z"
        transform="translate(-571.75 -404.51)" />
    <path class="cls-5" d="M843.14,656.82a3.41,3.41,0,1,1,3.4-3.44v0A3.4,3.4,0,0,1,843.14,656.82Z"
        transform="translate(-571.75 -404.51)" />
    <path class="cls-5" d="M836.8,631.82a3.41,3.41,0,1,1,3.4-3.43v0A3.39,3.39,0,0,1,836.8,631.82Z"
        transform="translate(-571.75 -404.51)" />
    <path class="cls-5"
        d="M832.63,664.5a3.41,3.41,0,1,1,3.41-3.44v0A3.41,3.41,0,0,1,832.63,664.5Zm0-11.21a3.41,3.41,0,1,1,3.41-3.44v0A3.41,3.41,0,0,1,832.63,653.29Z"
        transform="translate(-571.75 -404.51)" />
    <circle class="cls-6" cx="20.9" cy="382.32" r="4.17" />
    <circle class="cls-6" cx="20.9" cy="360.41" r="4.17" />
    <circle class="cls-6" cx="20.9" cy="338.49" r="4.17" />
    <circle class="cls-7" cx="20.9" cy="316.58" r="4.17" />
    <circle class="cls-6" cx="20.9" cy="294.67" r="4.17" /><text class="cls-8" transform="translate(5.64 123.15)">五
        <tspan x="0" y="36.61">大</tspan>
        <tspan x="0" y="73.22">剂</tspan>
        <tspan x="0" y="109.83">型</tspan>
    </text>
    <circle class="cls-9" cx="21" cy="21" r="21" />
    <g class="cls-10">
        <polyline class="cls-7" points="16.06 18.43 21 13.49 25.94 18.43" />
        <line class="cls-11" x1="21.21" y1="18.23" x2="21.21" y2="28.51" />
    </g>
    <circle class="cls-9" cx="21" cy="451" r="21" />
    <g class="cls-10">
        <polyline class="cls-7" points="25.94 453.57 21 458.51 16.06 453.57" />
        <line class="cls-11" x1="20.79" y1="453.77" x2="20.79" y2="443.49" />
    </g>
</svg>