<svg id="圖層_1" data-name="圖層 1" xmlns="http://www.w3.org/2000/svg" viewBox="0 0 734.42 472">
    <defs>
        <style>
            .cls_4-1 {
                fill: none;
                stroke-width: 12px;
            }

            .cls_4-1,
            .cls_4-5 {
                stroke: #b1d042;
            }

            .cls_4-1,
            .cls_4-11,
            .cls_4-5 {
                stroke-miterlimit: 10;
            }

            .cls_4-2 {
                font-size: 25px;
            }

            .cls_4-11,
            .cls_4-2,
            .cls_4-3,
            .cls_4-6,
            .cls_4-7,
            .cls_4-8 {
                fill: #fff;
            }

            .cls_4-2,
            .cls_4-3,
            .cls_4-4,
            .cls_4-8 {
                font-family: MicrosoftJhengHeiBold, Microsoft JhengHei;
            }

            .cls_4-3 {
                font-size: 15px;
            }

            .cls_4-4 {
                font-size: 76px;
            }

            .cls_4-4,
            .cls_4-5 {
                fill: #b1d042;
            }

            .cls_4-5 {
                stroke-width: 3px;
            }

            .cls_4-6,
            .cls_4-9 {
                opacity: 0.3;
            }

            .cls_4-8 {
                font-size: 30.51px;
            }

            .cls_4-9 {
                fill: #b1b1b1;
            }

            .cls_4-10 {
                opacity: 0.8;
            }

            .cls_4-11 {
                stroke: #fff;
                stroke-width: 2px;
            }
        </style>
    </defs>
    <title>2-4</title>
    <circle class="cls_4-1" cx="263.08" cy="300.49" r="101" />
    <line class="cls_4-1" x1="335.25" y1="368.49" x2="734.25" y2="368.49" /><text class="cls_4-2"
        transform="translate(395.81 339.67)">固態產品</text><text class="cls_4-3" transform="translate(395.81 398.67)">18 - 31
        g</text><text class="cls_4-4" transform="translate(582.42 223.54)">咖啡<tspan x="0" y="91.2">膠囊</tspan></text>
    <path class="cls_4-5"
        d="M833.38,755.93c-15.07-.86-29.58-3.08-42.89-10.38a41,41,0,0,1-8.25-5.94c-8.29-7.79-8.73-17.8-.19-25.3,4.69-4.1,6-8.71,6.75-14.24,1.69-12.32,3.5-24.63,5.57-36.89.4-2.31,1.69-5.1,3.48-6.44,10.4-7.78,21.78-13.84,34.87-15.27,4.21-.46,9,.64,12.95,2.26a194,194,0,0,1,19.93,10c4.52,2.47,6.84,6.29,7.51,11.74,1.76,14.24,4.14,28.4,6.37,42.57a5.93,5.93,0,0,0,1.8,2.79c1.32,1.37,2.94,2.47,4.23,3.86,7.5,8.12,7.33,17.12-.61,24.8-7.44,7.19-16.8,10.82-26.66,12.87C850.06,754.05,841.67,754.77,833.38,755.93Zm-35.72-85.06c-2.17,14.37-4.21,28.9-6.61,43.37-.83,5-.63,9.29,3.6,12.68,1.37,1.1,2.86,2.56,1.33,4.27-1.79,2-3.26.1-4.53-1.1-3.72-3.53-5.93-7.78-5.49-13.34-6.44,5.16-7.22,12.22-2.35,18.26,3.52,4.35,8.18,7.12,13.24,9.2,14.7,6.06,30.09,7.36,45.76,6.22,10.79-.78,21.3-2.89,31-7.92,4.59-2.37,8.78-5.28,11.31-10a11.33,11.33,0,0,0-4-15.41,15.12,15.12,0,0,1-6.23,13.33,46.53,46.53,0,0,1-8.6,5.44A69,69,0,0,1,833,742.35c-7.5-.33-15-1.73-22.43-2.71-1.6-.21-3.21-1.08-2.41-2.87.37-.84,2.28-1,3.5-1.43a1.31,1.31,0,0,1,.63.09,88.66,88.66,0,0,0,37.67,1.19c7.4-1.29,14.5-3.45,20.63-8,4.56-3.38,6.63-7.55,5.47-13.55-1.76-9.07-2.82-18.28-4.21-27.43-.87-5.7-1.79-11.39-2.61-16.6C845.17,684.43,821.63,684.54,797.66,670.87Zm52.92-20.52c-5.38,8.27-17.31,8.29-23,6.74a2.84,2.84,0,0,1-1.53-2.28c.06-.69,1.2-1.6,2-1.82s2.1.32,3.14.23c4-.35,8-.7,11.92-1.34a3.78,3.78,0,0,0,2.25-2.32c.15-.42-1.13-1.74-2-2a28.51,28.51,0,0,0-6.4-1.69c-5.33-.68-10.35.65-15.14,2.94-6.42,3.06-13,5.89-19.17,9.35-4.74,2.65-4.92,6.11-.8,9.69a24.39,24.39,0,0,0,7.57,4.58,70.64,70.64,0,0,0,47.53.2,25.77,25.77,0,0,0,8.58-5.3c3.5-3.15,3.21-6.43-.73-8.95C860.29,655.43,855.42,653,850.58,650.35Z"
        transform="translate(-570.75 -402.51)" />
    <circle class="cls_4-6" cx="20.9" cy="382.32" r="4.17" />
    <circle class="cls_4-6" cx="20.9" cy="360.41" r="4.17" />
    <circle class="cls_4-7" cx="20.9" cy="338.49" r="4.17" />
    <circle class="cls_4-6" cx="20.9" cy="316.58" r="4.17" />
    <circle class="cls_4-6" cx="20.9" cy="294.67" r="4.17" /><text class="cls_4-8" transform="translate(5.64 123.15)">五
        <tspan x="0" y="36.61">大</tspan>
        <tspan x="0" y="73.22">劑</tspan>
        <tspan x="0" y="109.83">型</tspan>
    </text>
    <circle class="cls_4-9" cx="21" cy="21" r="21" />
    <g class="cls_4-10">
        <polyline class="cls_4-7" points="16.06 18.43 21 13.49 25.94 18.43" />
        <line class="cls_4-11" x1="21.21" y1="18.23" x2="21.21" y2="28.51" />
    </g>
    <circle class="cls_4-9" cx="21" cy="451" r="21" />
    <g class="cls_4-10">
        <polyline class="cls_4-7" points="25.94 453.57 21 458.51 16.06 453.57" />
        <line class="cls_4-11" x1="20.79" y1="453.77" x2="20.79" y2="443.49" />
    </g>
</svg>