<svg id="圖層_1" data-name="圖層 1" xmlns="http://www.w3.org/2000/svg" viewBox="0 0 138.19 138.19"><defs><style>.cls-1{fill:#fff;}.cls-2,.cls-3{fill:none;stroke:#e50032;}.cls-2,.cls-3,.cls-4{stroke-miterlimit:10;}.cls-3{stroke-dasharray:2.98 2.98;}.cls-4,.cls-5{fill:#e50032;}.cls-4{stroke:#fff;stroke-width:0.75px;}</style></defs><title>clicl-text</title><rect class="cls-1" x="0.5" y="0.5" width="137.19" height="137.19"/><polyline class="cls-2" points="137.69 136.19 137.69 137.69 136.19 137.69"/><line class="cls-3" x1="133.21" y1="137.69" x2="3.49" y2="137.69"/><polyline class="cls-2" points="2 137.69 0.5 137.69 0.5 136.19"/><line class="cls-3" x1="0.5" y1="133.21" x2="0.5" y2="3.49"/><polyline class="cls-2" points="0.5 2 0.5 0.5 2 0.5"/><line class="cls-3" x1="4.98" y1="0.5" x2="134.7" y2="0.5"/><polyline class="cls-2" points="136.19 0.5 137.69 0.5 137.69 2"/><line class="cls-3" x1="137.69" y1="4.98" x2="137.69" y2="134.7"/><g id="Icon-Pointer"><path id="Fill-173" class="cls-4" d="M999.48,581.91H987.56a1,1,0,0,1-1-1c0-1.54-.74-2.41-1.85-3.76a26.67,26.67,0,0,1-2-2.66,42.08,42.08,0,0,1-3.89-7.84,2.94,2.94,0,0,1,.25-2.66,2.4,2.4,0,0,1,2-.92c1.17,0,2.41,1,3.46,2.28V555.17a3,3,0,0,1,3-3,3,3,0,0,1,3,3v4.14a2.64,2.64,0,0,1,1-.18,3.09,3.09,0,0,1,2.53,1.35,3,3,0,0,1,1.49-.37,2.94,2.94,0,0,1,2.84,2.17,2.83,2.83,0,0,1,1.11-.19,3,3,0,0,1,3,3v3a25.74,25.74,0,0,1-1,6.6,25.15,25.15,0,0,0-1,6.24,1,1,0,0,1-1,1Zm-10.93-2h10a30.69,30.69,0,0,1,1-5.75,24.53,24.53,0,0,0,.93-6.17v-3.15a1,1,0,1,0-2,0V566a1,1,0,0,1-2,0v-3.15a1,1,0,1,0-2,0v2.16a1,1,0,0,1-2,0V561.9a1,1,0,0,0-2,0v2.17a1,1,0,0,1-2,0v-9.14a1,1,0,1,0-2,0V570a1,1,0,1,1-2,0v-.8c-.87-2.28-2.84-4.26-3.46-4.26-.25,0-.37.06-.43.25a1.24,1.24,0,0,0,0,.86,45.74,45.74,0,0,0,3.76,7.41,21.17,21.17,0,0,0,1.86,2.47,8.89,8.89,0,0,1,2.16,4Z" transform="translate(-891.4 -471.4)"/></g><path class="cls-5" d="M965.61,601.59a6.25,6.25,0,0,1-2.51.5,4.57,4.57,0,0,1-2.4-.62,4.18,4.18,0,0,1-1.63-1.75,5.56,5.56,0,0,1-.57-2.55,5.88,5.88,0,0,1,.62-2.74,4.56,4.56,0,0,1,1.75-1.91,4.86,4.86,0,0,1,2.55-.68,6.62,6.62,0,0,1,2.19.37V593a5.37,5.37,0,0,0-2.2-.47,4.13,4.13,0,0,0-2.2.58,3.88,3.88,0,0,0-1.47,1.63,5.43,5.43,0,0,0-.51,2.4,5,5,0,0,0,.49,2.27,3.54,3.54,0,0,0,1.38,1.53,3.93,3.93,0,0,0,2.06.54,5.41,5.41,0,0,0,2.45-.54Z" transform="translate(-891.4 -471.4)"/><path class="cls-5" d="M967.67,601.92V591.45h.67v10.47Z" transform="translate(-891.4 -471.4)"/><path class="cls-5" d="M970.93,593.06a.51.51,0,0,1-.37-.15.54.54,0,0,1-.17-.4.51.51,0,0,1,.16-.37.54.54,0,0,1,.38-.15.59.59,0,0,1,.38.14.48.48,0,0,1,.16.38.53.53,0,0,1-.16.39A.49.49,0,0,1,970.93,593.06Zm-.33,8.86v-7.08h.67v7.08Z" transform="translate(-891.4 -471.4)"/><path class="cls-5" d="M978.13,601.61a3.53,3.53,0,0,1-1.88.48,3.27,3.27,0,0,1-1.69-.44,3.06,3.06,0,0,1-1.14-1.27,4.55,4.55,0,0,1,.06-3.86,3.34,3.34,0,0,1,1.26-1.37,3.56,3.56,0,0,1,1.84-.48,3.89,3.89,0,0,1,1.58.33v.74a3.17,3.17,0,0,0-1.67-.47,2.66,2.66,0,0,0-1.44.41,2.55,2.55,0,0,0-1,1.13,3.85,3.85,0,0,0-.35,1.66,3.26,3.26,0,0,0,.71,2.19,2.3,2.3,0,0,0,1.86.83,3.06,3.06,0,0,0,1.85-.57Z" transform="translate(-891.4 -471.4)"/><path class="cls-5" d="M983.89,601.92l-3.37-3.49h0v3.49h-.66V591.45h.66v6.74h0l3.2-3.35h.86l-3.36,3.43,3.63,3.65Z" transform="translate(-891.4 -471.4)"/><path class="cls-5" d="M994.85,601.92v-4.23a3,3,0,0,0-.46-1.83,1.69,1.69,0,0,0-1.42-.59,2.11,2.11,0,0,0-1.15.33,2.22,2.22,0,0,0-.82.94,3.06,3.06,0,0,0-.3,1.37v4H990V591.45h.67v4.66h0a2.68,2.68,0,0,1,2.43-1.44,2.11,2.11,0,0,1,1.75.74,3.28,3.28,0,0,1,.6,2.12v4.39Z" transform="translate(-891.4 -471.4)"/><path class="cls-5" d="M997.81,598.43a3.47,3.47,0,0,0,.66,2.25,2.27,2.27,0,0,0,1.85.81,3.77,3.77,0,0,0,2.32-.87v.7a4.15,4.15,0,0,1-2.46.77,2.71,2.71,0,0,1-2.24-1,4.21,4.21,0,0,1-.82-2.73,4.29,4.29,0,0,1,.4-1.86,3.25,3.25,0,0,1,1.14-1.34,2.9,2.9,0,0,1,1.64-.48,2.41,2.41,0,0,1,2,.91,4,4,0,0,1,.73,2.55v.3Zm4.54-.6a3,3,0,0,0-.59-1.89,1.83,1.83,0,0,0-1.49-.67,2.21,2.21,0,0,0-1.64.67,3.22,3.22,0,0,0-.79,1.89Z" transform="translate(-891.4 -471.4)"/><path class="cls-5" d="M1008.15,595.54a1.25,1.25,0,0,0-.76-.24,1.61,1.61,0,0,0-1.41.9,4.58,4.58,0,0,0-.54,2.38v3.34h-.65v-7.08h.65v1.57h0a2.58,2.58,0,0,1,.76-1.25,1.76,1.76,0,0,1,1.21-.46,2,2,0,0,1,.71.13Z" transform="translate(-891.4 -471.4)"/><path class="cls-5" d="M1009.47,598.43a3.47,3.47,0,0,0,.66,2.25,2.25,2.25,0,0,0,1.84.81,3.77,3.77,0,0,0,2.33-.87v.7a4.17,4.17,0,0,1-2.46.77,2.7,2.7,0,0,1-2.24-1,4.21,4.21,0,0,1-.83-2.73,4.29,4.29,0,0,1,.41-1.86,3.31,3.31,0,0,1,1.13-1.34,2.92,2.92,0,0,1,1.64-.48,2.42,2.42,0,0,1,2,.91,4,4,0,0,1,.72,2.55v.3Zm4.54-.6a3.08,3.08,0,0,0-.59-1.89,1.83,1.83,0,0,0-1.49-.67,2.19,2.19,0,0,0-1.64.67,3.22,3.22,0,0,0-.79,1.89Z" transform="translate(-891.4 -471.4)"/><path class="cls-5" d="M1017.32,602a.55.55,0,0,1-.4-.16.57.57,0,0,1-.16-.4.54.54,0,0,1,.16-.41.55.55,0,0,1,.4-.16.56.56,0,0,1,.41.16.55.55,0,0,1,.17.41.61.61,0,0,1-.16.4A.57.57,0,0,1,1017.32,602Zm.3-2.9H1017l-.08-7.13h.76Z" transform="translate(-891.4 -471.4)"/><path class="cls-5" d="M1021.35,602a.54.54,0,0,1-.4-.16.58.58,0,0,1-.17-.4.55.55,0,0,1,.17-.41.54.54,0,0,1,.4-.16.56.56,0,0,1,.41.16.54.54,0,0,1,.16.41.57.57,0,0,1-.16.4A.56.56,0,0,1,1021.35,602Zm.29-2.9H1021L1021,592h.76Z" transform="translate(-891.4 -471.4)"/></svg>