<svg id="圖層_1" data-name="圖層 1" xmlns="http://www.w3.org/2000/svg" viewBox="0 0 313.96 183.31"><defs><style>.cls-1,.cls-2,.cls-3{fill:#fff;}.cls-2{stroke:#fff;stroke-width:0.75px;}.cls-2,.cls-3{stroke-miterlimit:10;}.cls-3{stroke:#e50032;}</style></defs><title>link-text</title><path class="cls-1" d="M903.7,471.15a27.9,27.9,0,0,1-4.2,6.65l-2.3-1.5a27.47,27.47,0,0,0,4-6.25Zm20.53-15.79h-12v3h10.59v10.91H900.1V458.32h9.34v-8.58h2.82v3h12ZM920,461H902.85v5.62H920Zm-10,16.35-2.72.39a35.59,35.59,0,0,0-1.25-6.78l2.62-.52A27.43,27.43,0,0,1,910,477.35Zm7.81,0-2.69.61a27.72,27.72,0,0,0-2.19-6.91l2.69-.7A32.25,32.25,0,0,1,917.84,477.35Zm7.84-.38-2.59.95a30.1,30.1,0,0,0-3.53-6.56l2.53-1.25A33.2,33.2,0,0,1,925.68,477Z" transform="translate(-802.31 -449.11)"/><path class="cls-1" d="M957.29,463.51H944.74v9.8h7.75v-8h2.79v12.15H952.5V476H931.73V465.34h2.78v8H942v-9.8H929.54v-2.69H942V455.9h-10.3v-2.69H942v-3.69h2.75v3.69h10.34v2.69H944.74v4.92h12.55Z" transform="translate(-802.31 -449.11)"/><path class="cls-1" d="M975.37,474.4a2.92,2.92,0,0,1-.52,1.88,2.48,2.48,0,0,1-1.27.86,11,11,0,0,1-2.62.21c-.62,0-1.18,0-1.67-.05l-1-2.75a11.66,11.66,0,0,0,1.49.08,14.84,14.84,0,0,0,2.4-.12.62.62,0,0,0,.56-.66v-3.23H966.6a13.53,13.53,0,0,1-2.87,6.87l-2.34-1.5q2.83-2.85,2.84-10v-8.19h11.14Zm14.11-18.63H961.63v-2.65h27.85Zm-15.94-4.39-2.94,1.35a28.27,28.27,0,0,0-4.67-2.14l3-1.44A21,21,0,0,1,973.54,451.38Zm-.8,11.6v-2.63h-5.83V463Zm0,5.2v-2.72h-5.82v2.72Zm12-17.63a22.81,22.81,0,0,1-4.55,2.17l-2.94-1.34a35.91,35.91,0,0,0,4.52-2.27Zm-3.32,21.5H978.6V458.22h2.78Zm5.82,2c0,1.34-.3,2.23-.92,2.67a6.25,6.25,0,0,1-3.42.66c-.66,0-1.35,0-2.09-.06l-.89-2.75h4a.53.53,0,0,0,.41-.25.84.84,0,0,0,.19-.52V457.52h2.72Z" transform="translate(-802.31 -449.11)"/><path class="cls-1" d="M1002.15,450.77a22.71,22.71,0,0,1-7.58,7.36l-1.31-2.49a20.42,20.42,0,0,0,6.39-6.16Zm.79,7.84a37.47,37.47,0,0,1-2.81,4v15h-2.88V465.69a16.66,16.66,0,0,1-2.69,2l-1.25-2.59a25.07,25.07,0,0,0,7.17-7.78Zm18.48,18.46h-19.67v-2.69H1010v-7.85h-7.18V463.8H1010V457h-8.09v-2.69H1010a38.35,38.35,0,0,0-2.11-4.21l2.91-.7a28.59,28.59,0,0,1,2.22,4.91h7.76V457h-7.93v6.78H1020v2.75h-7.17v7.85h8.55Z" transform="translate(-802.31 -449.11)"/><path class="cls-1" d="M908,495.81h-3.49v5.41q1.13-.36,2.94-1.14l.33,2.84c-1.18.5-2.27.93-3.27,1.28V513a2.83,2.83,0,0,1-.49,1.76,2.31,2.31,0,0,1-1.15.86,7.84,7.84,0,0,1-2.14.21c-.55,0-1.21,0-2-.05l-.95-2.75,3.42,0c.36,0,.54-.17.54-.52v-7.23c-1.61.5-2.83.85-3.65,1.06l-.8-2.72c1.89-.49,3.37-.92,4.45-1.31v-6.47h-4.23v-2.72h4.23V488h2.75v5.12H908Zm17.76,17.64-1.31,2.42a25.45,25.45,0,0,1-7.87-3.58,29.16,29.16,0,0,1-8.55,3.61l-1.66-2.51a21.76,21.76,0,0,0,7.83-2.92,15.13,15.13,0,0,1-4.12-6.6H909v-2.65h14.5v2.41a21,21,0,0,1-4.67,6.78A26.21,26.21,0,0,0,925.78,513.45Zm-.39-14h-3.87c-1.71,0-2.57-.9-2.57-2.71V491h-5q.18,6.4-4.39,8.83l-2.05-2a5.94,5.94,0,0,0,3.62-6.11v-3.3h10.6v7.9a.38.38,0,0,0,.41.43h3.23Zm-5.19,4.41h-7.15a10,10,0,0,0,3.52,4.91A18.82,18.82,0,0,0,920.2,503.87Z" transform="translate(-802.31 -449.11)"/><path class="cls-1" d="M957.82,513l-1.1,2.72q-2.79.09-5.43.09-9.18,0-12.11-.8a9.25,9.25,0,0,1-4.75-2.93,31.65,31.65,0,0,1-3,4.19l-2.14-1.71a22.93,22.93,0,0,0,5-9.17h-4.37v-2.76a34.78,34.78,0,0,0,4.18-5.47h-4.61v-2.66h7.82v2.66a46.53,46.53,0,0,1-3.91,5.61h3.88v2.62a24.58,24.58,0,0,1-1.67,4.38,7.34,7.34,0,0,0,2.15,1.78,10.14,10.14,0,0,0,2.5,1,25.77,25.77,0,0,0,4.62.42q3.36.11,7.54.11C954.25,513,956.06,513,957.82,513Zm-20.74-21.28-2.19,2a25.19,25.19,0,0,0-4.47-3.9l2.14-2A27.67,27.67,0,0,1,937.08,491.68Zm19.58,9.89a45.23,45.23,0,0,1-.25,4.56,7.27,7.27,0,0,1-.84,3.17c-.4.54-1.33.81-2.8.81q-.75,0-1.74-.06l-.84-2.56q1.44.09,2.31.09c.5,0,.82-.08,1-.25a3.29,3.29,0,0,0,.32-1.29c.08-.7.14-1.44.17-2.21h-5v7.82h-2.62v-6.44a27.17,27.17,0,0,1-7.06,5.89l-1.86-2a22.44,22.44,0,0,0,6.72-5.29h-5.25l.91-7h6.54v-2.34h-7.64v-2.26h17.22v6.88h-6.95v2.47Zm-10-10.92-2.56,1.25a19.4,19.4,0,0,0-2.78-2.52l2.32-1.58A18.32,18.32,0,0,1,946.67,490.65Zm-.36,10.92V499.1h-4.12l-.31,2.47Zm7.59-12.83a21.66,21.66,0,0,1-2.84,3l-2.69-1.13a20.22,20.22,0,0,0,2.82-2.81Zm-.67,8.09v-2.34h-4.29v2.34Z" transform="translate(-802.31 -449.11)"/><path class="cls-1" d="M988,494.32H966.22V503a31.27,31.27,0,0,1-2.45,13.07l-2.34-1.71q2.07-3.94,2.07-12.34V488.5H988Zm-2.81-2.1v-1.5H966.22v1.5ZM973,501.75a21.25,21.25,0,0,1-1.72,2.31V516h-2.56v-9.53c-.25.21-.69.53-1.31,1l-1-2.4a20.14,20.14,0,0,0,4.8-4.93Zm.58-5.77a18.36,18.36,0,0,1-5.92,5l-1-2.44a16.06,16.06,0,0,0,4.92-3.86Zm16.09,18.09-1.17,2a39.32,39.32,0,0,1-7-2.4,35.87,35.87,0,0,1-8.44,2.37l-.87-2.07a30.79,30.79,0,0,0,6.78-1.65,21,21,0,0,1-2.52-1.82,30,30,0,0,1-3.11,1.86L972,510.58a18.46,18.46,0,0,0,2.75-1.53c-.2-.19-.51-.52-.92-1l1.65-1.34,1,1a11.37,11.37,0,0,0,1.53-1.56h-3.36v-6l-.95.76-1.7-1.76a19.35,19.35,0,0,0,4.6-4.5l2.36.67a4.12,4.12,0,0,1-.34.53h10.44v2H977a9.61,9.61,0,0,1-1.14,1.19H987.8v7.11h-7.14a13,13,0,0,1-.92,1.31h8.31v1.86a22.22,22.22,0,0,1-4,3A30.73,30.73,0,0,0,989.64,514.07Zm-4.56-12.26v-1.05h-7.75v1.05Zm0,2.69v-1.08h-7.75v1.08Zm-.45,4.84h-6.27a14,14,0,0,0,3.22,1.94A15.24,15.24,0,0,0,984.63,509.34Z" transform="translate(-802.31 -449.11)"/><path class="cls-1" d="M1021.51,491.44H998.19v12.61a26.94,26.94,0,0,1-2.59,12.09l-2.27-1.55a26.59,26.59,0,0,0,2.14-10.54v-15.3h26Zm-2,6.17c-.05,2.81-.21,5.89-.46,9.25s-.46,5.48-.62,6.33a3.36,3.36,0,0,1-.84,1.84,2.77,2.77,0,0,1-1.26.73,20.72,20.72,0,0,1-3.52.17c-.94,0-1.6,0-2,0l-1.22-2.72c.68.05,2.51.07,5.48.07a.68.68,0,0,0,.54-.29,21.39,21.39,0,0,0,.57-4.45q.33-4.15.45-8.16h-8.29q-.39,10.4-7.86,15.81l-1.92-1.89a18.23,18.23,0,0,0,5-5.56,20.64,20.64,0,0,0,2-8.36H999.7v-2.72h6c.12-2.13.17-3.73.12-4.8l2.79,0c0,1.35-.1,2.93-.19,4.77Z" transform="translate(-802.31 -449.11)"/><path class="cls-2" d="M816,547.72l-.4.5a13.48,13.48,0,0,1-3.49-3.19,15.23,15.23,0,0,1-2.38-4.27v6.51h3.46v.58H809.7v2.65h-.6v-2.65h-3.45v-.58h3.45v-6.51a17.63,17.63,0,0,1-5.87,7.46l-.39-.5a17.12,17.12,0,0,0,5.75-7.07H803.1v-.58h6v-2.56h.6v2.56h6v.58h-5.5A14.23,14.23,0,0,0,816,547.72Z" transform="translate(-802.31 -449.11)"/><path class="cls-2" d="M823,537.69a13,13,0,0,1-4.71,6.54l-.48-.46a12.11,12.11,0,0,0,4.57-6.29Zm6.79,12.65-.54.31a20.3,20.3,0,0,0-.94-2,49.85,49.85,0,0,1-8.42,1.56l-.18-.66a30.2,30.2,0,0,0,4.35-7.8l.6.26a34,34,0,0,1-4.08,7.5,42.65,42.65,0,0,0,7.41-1.41c-.46-.8-1.1-1.78-1.94-3l.54-.31A29.88,29.88,0,0,1,829.77,550.34Zm1.2-6.71-.39.52a12.48,12.48,0,0,1-4.32-5.95h-1.12v-.57h1.62A11.13,11.13,0,0,0,831,543.63Z" transform="translate(-802.31 -449.11)"/><path class="cls-2" d="M845.15,549.22a1.28,1.28,0,0,1-.33,1,2.53,2.53,0,0,1-1.52.3c-.41,0-1,0-1.81-.06l-.22-.64c.83.06,1.5.09,2,.09a2.81,2.81,0,0,0,1-.13.5.5,0,0,0,.25-.47V538.36H832.9v-.55h12.25Zm-2.34-8.07h-9.5v-.56h9.5Zm-1.08,6.5H834.4v-4.34h7.33Zm-.6-.57v-3.21H835v3.21Z" transform="translate(-802.31 -449.11)"/><path class="cls-2" d="M860.9,539.82h-11v3.72a13.73,13.73,0,0,1-1.67,7l-.48-.48a12,12,0,0,0,1.55-6v-4.81H855a8.76,8.76,0,0,0-.64-1.65l.57-.24a12.37,12.37,0,0,1,.75,1.89h5.24Zm0,10.29H850.09v-.57h6.56a40.51,40.51,0,0,0,2.7-8.12l.59.18a46.28,46.28,0,0,1-2.6,7.94h3.54Zm-7.44-2.39-.56.17a31.85,31.85,0,0,0-2-5.78l.52-.23A37.64,37.64,0,0,1,853.44,547.72Zm2.73-.67-.6.15a36.56,36.56,0,0,0-1.1-6.17l.57-.13A44.77,44.77,0,0,1,856.17,547.05Z" transform="translate(-802.31 -449.11)"/><path class="cls-2" d="M867.9,538.76h-.81v11.89h-.6v-3a30.57,30.57,0,0,1-3.49,1.23l-.16-.58c.36-.09.73-.2,1.09-.32v-9.23h-1v-.56h4.93Zm-1.41,2.36v-2.36h-2v2.36Zm0,3.09v-2.53h-2v2.53Zm0,2.88v-2.32h-2v3Zm9.42-2h-5.32c-.15.57-.31,1.15-.5,1.73h5a7.68,7.68,0,0,1-.57,3,1.52,1.52,0,0,1-1.42.67H870.6l-.23-.66c.37,0,.87,0,1.5,0a10.18,10.18,0,0,0,1.62-.07.75.75,0,0,0,.36-.27,2.55,2.55,0,0,0,.33-.92,7.71,7.71,0,0,0,.2-1.26h-5.16c.22-.66.45-1.42.69-2.27h-2.19v-.54h8.19Zm-.81-1.9h-6.49V538.6h2.94v-1.12h.58v1.12h3Zm-3.55-2.53v-1.51h-2.36v1.51Zm0,2v-1.48h-2.36v1.48Zm3-2v-1.51h-2.39v1.51Zm0,2v-1.48h-2.39v1.48Z" transform="translate(-802.31 -449.11)"/><path class="cls-2" d="M890.11,540.13H879.67v2.61a24.32,24.32,0,0,1-.39,5,11.15,11.15,0,0,1-1,2.78l-.48-.42a10.37,10.37,0,0,0,.9-2.56,24,24,0,0,0,.35-4.77v-4.88h11Zm-.59-.53v-1.14h-9.85v1.14Zm-6.38,4a11.25,11.25,0,0,1-.93,1.18v5.73h-.6V545.4a10.42,10.42,0,0,1-1.3,1.06l-.39-.43a10.09,10.09,0,0,0,2.74-2.75Zm.4-2.78a10.07,10.07,0,0,1-2.89,2.43l-.33-.44a8.55,8.55,0,0,0,2.8-2.35Zm7.46,9.26-.36.48a14.7,14.7,0,0,1-3.36-1.18,16,16,0,0,1-4.21,1.19l-.25-.48a17.37,17.37,0,0,0,3.89-1,10.87,10.87,0,0,1-1.78-1.26,10.86,10.86,0,0,1-1.46,1l-.36-.44a10.54,10.54,0,0,0,1.43-.87c-.23-.23-.45-.47-.66-.71l.42-.36a6.12,6.12,0,0,0,.66.72,7.75,7.75,0,0,0,1.28-1.35h-1.93v-3.09h5.82v3.09h-3.21a11.48,11.48,0,0,1-.85,1h4.11v.5a8.34,8.34,0,0,1-2.3,1.82A15.65,15.65,0,0,0,891,550.08Zm-.18-8.27H885a10,10,0,0,1-1.64,1.44l-.36-.44a8.49,8.49,0,0,0,2.38-2.36l.51.27-.45.6h5.34Zm-1.27,2.12v-.77H884.9v.77Zm0,1.29v-.81H884.9v.81Zm-.08,2h-3.91l-.22.2a10.47,10.47,0,0,0,2,1.33A8.43,8.43,0,0,0,889.47,547.26Z" transform="translate(-802.31 -449.11)"/><path class="cls-2" d="M905.91,538.47H894.59v6.2a11.74,11.74,0,0,1-1.32,5.9l-.48-.43a10.45,10.45,0,0,0,1.2-5.46V537.9h11.92Zm-1.08,3.19q-.27,6.11-.52,7.45c-.16.91-.61,1.36-1.37,1.36H901l-.22-.6,1,0a3.86,3.86,0,0,0,1.47-.15.82.82,0,0,0,.33-.42,17,17,0,0,0,.33-2.6c.14-1.55.22-3.05.25-4.5h-4.76a11,11,0,0,1-1.39,5.55,8.77,8.77,0,0,1-3.15,2.8l-.39-.45a7.76,7.76,0,0,0,3.28-3,10.89,10.89,0,0,0,1.07-4.85h-3.52v-.56h3.55c0-.68,0-1.32,0-1.94v-.61h.58v.55c0,.64,0,1.31,0,2Z" transform="translate(-802.31 -449.11)"/><path class="cls-2" d="M914,538.44a6.15,6.15,0,0,1-.6.95A11,11,0,0,1,912,541a13.29,13.29,0,0,1-1.63,1.33,19.3,19.3,0,0,1-2.1,1.21l-.41-.5a13,13,0,0,0,3-1.78,13.86,13.86,0,0,0-1.83-1.52l.4-.43a20.39,20.39,0,0,1,1.89,1.55,9.79,9.79,0,0,0,1.94-2.42h-4v-.57H914Zm6.63,11.74H908.2v-.57h4.41a11,11,0,0,0-1.13-2.28l.4-.28h-1.16v-3.18h7.36v3.18h-1.25l.43.25a15.3,15.3,0,0,1-1.06,2.31h4.38Zm-3.1-3.7v-2h-6.16v2Zm-.28-4.17h-5.55v-.57h5.55Zm-.5,4.74H912a19,19,0,0,1,1.26,2.56h2.27A13.62,13.62,0,0,0,916.7,547.05Zm4.25-4-.37.49a11.8,11.8,0,0,1-5.78-5.86l.53-.26a9.53,9.53,0,0,0,1,1.88,14.27,14.27,0,0,0,1.76-1.84l.56.33a21.53,21.53,0,0,1-2,2,11.83,11.83,0,0,0,1.12,1.22,15.36,15.36,0,0,0,1.89-2.06l.55.38a19.7,19.7,0,0,1-2,2.05A13.23,13.23,0,0,0,921,543.06Z" transform="translate(-802.31 -449.11)"/><path class="cls-2" d="M935.81,550l-.38.52a15.16,15.16,0,0,1-5.67-9.57,14.63,14.63,0,0,1-2.31,5.31,16,16,0,0,1-4,4.23L923,550a12.9,12.9,0,0,0,2.1-1.76,15.5,15.5,0,0,0,1.72-2.12,18.85,18.85,0,0,0,1.28-2.2,18.09,18.09,0,0,0,.93-2.28,7.6,7.6,0,0,0,.4-1.43l0-1.83h-1.58v-.57h2.16a16.37,16.37,0,0,0,1.63,7A13.84,13.84,0,0,0,935.81,550Z" transform="translate(-802.31 -449.11)"/><path class="cls-2" d="M951.08,549.58l-.23.59h-5.08a10.62,10.62,0,0,1-3.46-.45,6.62,6.62,0,0,1-2.18-1.27,9.12,9.12,0,0,1-1.88,2l-.46-.42a7.31,7.31,0,0,0,3-4.85h-2.5v-.56a31.44,31.44,0,0,0,2.47-3.23H937.9v-.56h3.55v.56c-.71,1-1.53,2.11-2.46,3.23h2.4v.56a9.91,9.91,0,0,1-1,2.79,7.44,7.44,0,0,0,5.12,1.66h3.4Zm-10.15-9.86-.46.4a16.15,16.15,0,0,0-2.11-2.13l.37-.42A18.53,18.53,0,0,1,940.93,539.72Zm9.89,3.44-.34.51a30.21,30.21,0,0,0-4.13-2.49v2.56h2.43v.55l-.57,1.05h1.67a6.1,6.1,0,0,1-.52,2.56,1.43,1.43,0,0,1-1.3.63H946.4l-.18-.61c.3,0,.65,0,1,0a4.05,4.05,0,0,0,1.26-.12,1,1,0,0,0,.45-.62,4.09,4.09,0,0,0,.22-1.31h-1.94c.36-.67.64-1.2.83-1.61H945.5q0,2.69-3.09,4.3l-.39-.47q2.87-1.54,2.86-3.83H943v-.55h2.77v-2.6a12.63,12.63,0,0,1-4.16,2.64l-.33-.48a13.93,13.93,0,0,0,4.24-2.64H942v-.56h3.77v-1.34c-.91.09-1.94.14-3.09.16l-.19-.55a28,28,0,0,0,6.92-.82l.27.53a20.37,20.37,0,0,1-3.31.61v1.41h4.16v.56h-4A35.92,35.92,0,0,1,950.82,543.16Z" transform="translate(-802.31 -449.11)"/><path class="cls-2" d="M966,549.55l-.22.59h-5.09a10.63,10.63,0,0,1-3.39-.43,6.6,6.6,0,0,1-2.22-1.26,10.55,10.55,0,0,1-1.91,2l-.46-.42A8.07,8.07,0,0,0,956,545.1h-2.7v-.56l2.59-3.25H953v-.56h3.66v.56c-1.38,1.78-2.24,2.86-2.58,3.25h2.59v.56a9.38,9.38,0,0,1-1.2,2.88,6.65,6.65,0,0,0,2.11,1.21,9,9,0,0,0,3,.41C963,549.6,964.87,549.58,966,549.55Zm-9.93-10-.47.41a15.59,15.59,0,0,0-2.11-2.14l.38-.42A19.31,19.31,0,0,1,956.1,539.58Zm9.71,1.26H963.6v6.63c0,.69-.37,1-1.12,1h-2l-.22-.55h2.29q.42,0,.42-.39v-6.72h-5.72v-.55H963v-2.78h.6v2.78h2.21ZM961,545.55l-.51.38a16.54,16.54,0,0,0-2.47-3.45l.49-.37A18.81,18.81,0,0,1,961,545.55Z" transform="translate(-802.31 -449.11)"/><path class="cls-2" d="M978.69,538H975v5.91h-.61v-6.5h4.26Z" transform="translate(-802.31 -449.11)"/><path class="cls-2" d="M990,541.27h-3.12a3.8,3.8,0,0,1-.17.51,19.55,19.55,0,0,1,3.25,1.91l-.37.46a18.83,18.83,0,0,0-3.14-1.87,6.25,6.25,0,0,1-3.21,2.46l-.36-.47q2.79-1.08,3.39-3h-3.06v-.54h3.23a8.71,8.71,0,0,0,.19-1.64h-1.72a10.05,10.05,0,0,1-1.25,1.13l-.41-.4a7.6,7.6,0,0,0,2.18-2.4l.58.18a7.78,7.78,0,0,1-.64.93h4.3v.56h-2.47a10.61,10.61,0,0,1-.18,1.64h3Zm4.24,9.23h-.6v-1H985.2v1h-.6v-5.76h9.62Zm-.6-3.64v-1.59H985.2v1.59Zm0,2.16v-1.63H985.2V549Zm1.86-5.83H990.7v-4.66h4.78Zm-.6-.54v-3.56H991.3v3.56Z" transform="translate(-802.31 -449.11)"/><path class="cls-2" d="M1004,547c-.35.13-.81.28-1.37.46v3.12h-.6V547.6l-4,1.22-.2-.59,1.2-.33v-9.49h-1v-.56h5.66v.56h-1.1v8.41l1.26-.43Zm-2-6.11v-2.44h-2.4v2.44Zm0,3.15v-2.59h-2.4V544Zm0,3v-2.44h-2.4v3.16Q1001.07,547.32,1002,547Zm9.08,3.08-.5.48a11.09,11.09,0,0,1-3.48-4.82,8.44,8.44,0,0,1-3.78,4.87l-.39-.49a7.88,7.88,0,0,0,3.77-5.34h-3.41v-.57h3.48a9.77,9.77,0,0,0,.08-1.35v-1.69h-3.23v-.57h3.75a13.67,13.67,0,0,0,2.24-3.16l.6.26a18.91,18.91,0,0,1-2,2.9h2.43v.57h-3.15v1.29a16.25,16.25,0,0,1-.09,1.75h3.55v.57h-3.53A10.75,10.75,0,0,0,1011.08,550.08Zm-4.23-10-.56.31a16,16,0,0,0-1.91-2.68l.52-.33A17.56,17.56,0,0,1,1006.85,540.09Z" transform="translate(-802.31 -449.11)"/><path class="cls-2" d="M1018.18,542.43c-1,.77-1.71,1.29-2.16,1.57v5.51a1,1,0,0,1-.17.62.77.77,0,0,1-.41.31,4.56,4.56,0,0,1-1.06.07h-.85l-.17-.59,1.31,0a1.17,1.17,0,0,0,.6-.1.42.42,0,0,0,.15-.37v-5.11a17.69,17.69,0,0,1-2.41,1.37l-.19-.54c.36-.18,1.23-.68,2.6-1.51v-3.18H1013V540h2.44v-2.48h.6V540h2.45v.55H1016v2.8a15.89,15.89,0,0,0,2-1.41Zm7.2-4.52c0,2-.07,3.33-.15,4.09a1.8,1.8,0,0,1-.63,1.43,3.94,3.94,0,0,1-1.89.31l-.65,0-.27-.66c.3,0,.68,0,1.15,0a3.15,3.15,0,0,0,1.19-.13.81.81,0,0,0,.37-.36,5.77,5.77,0,0,0,.18-1.44c0-.8.07-1.69.07-2.69h-3a7.68,7.68,0,0,1-1,3.69,8.68,8.68,0,0,1-2.95,2.51l-.44-.45a8.43,8.43,0,0,0,2.86-2.3,6.75,6.75,0,0,0,1-3.45h-3.25v-.57Zm-.33,12.6h-.6v-1.13h-5.26v1.13h-.6v-5.76h6.46Zm-.6-1.71v-3.47h-5.26v3.47Z" transform="translate(-802.31 -449.11)"/><path class="cls-2" d="M1032.9,538.76h-.81v11.89h-.6v-3a30.57,30.57,0,0,1-3.49,1.23l-.16-.58c.36-.09.73-.2,1.09-.32v-9.23h-1v-.56h4.93Zm-1.41,2.36v-2.36h-2v2.36Zm0,3.09v-2.53h-2v2.53Zm0,2.88v-2.32h-2v3Zm9.42-2h-5.32c-.15.57-.31,1.15-.5,1.73h5a7.68,7.68,0,0,1-.57,3,1.52,1.52,0,0,1-1.42.67h-2.46l-.23-.66c.37,0,.87,0,1.5,0a10.18,10.18,0,0,0,1.62-.07.75.75,0,0,0,.36-.27,2.55,2.55,0,0,0,.33-.92,7.71,7.71,0,0,0,.2-1.26h-5.16c.22-.66.45-1.42.69-2.27h-2.19v-.54h8.19Zm-.81-1.9h-6.49V538.6h2.94v-1.12h.58v1.12h3Zm-3.55-2.53v-1.51h-2.36v1.51Zm0,2v-1.48h-2.36v1.48Zm3-2v-1.51h-2.39v1.51Zm0,2v-1.48h-2.39v1.48Z" transform="translate(-802.31 -449.11)"/><path class="cls-2" d="M1055.13,548.94a1.52,1.52,0,0,1-.43,1.15,1.66,1.66,0,0,1-1.18.41h-1.45l-.24-.62a10,10,0,0,0,1.06,0,2.93,2.93,0,0,0,1.34-.19.71.71,0,0,0,.3-.67V538.44h-10.32V550.5h-.6V537.87h11.52Zm-5.66-1.86-.5.39c-.44-1-.93-1.89-1.46-2.82a15.36,15.36,0,0,1-2.16,4.7l-.56-.32a14.48,14.48,0,0,0,2.29-5.12A34.2,34.2,0,0,0,1045,541l.39-.36a16.08,16.08,0,0,1,1.9,2.5c.23-.89.48-2.12.77-3.69l.59.13q-.57,3-.9,4.29Zm4.48.28-.53.39c-.5-1-1-2-1.6-3a16.37,16.37,0,0,1-2.25,4.57L1049,549a14.73,14.73,0,0,0,2.39-4.88,24.07,24.07,0,0,0-2.27-3.21l.39-.37a29.86,29.86,0,0,1,2.08,2.85c.21-.78.48-2.11.82-4l.58.13a45.27,45.27,0,0,1-1,4.49C1052.64,545,1053.28,546.09,1054,547.36Z" transform="translate(-802.31 -449.11)"/><path class="cls-2" d="M1063.73,540.56h-1l.4.25a73.53,73.53,0,0,1-1.33,7.47,15.8,15.8,0,0,0,1.57-.55l.12.56q-2.24.76-5.46,1.62l-.21-.55,1.66-.44a66.84,66.84,0,0,0-.79-8.08l.43-.28h-1V540h2.82a13.46,13.46,0,0,0-.85-2.32l.53-.26c.31.74.63,1.6,1,2.58h2.25Zm-1.22,0h-3.33a71.14,71.14,0,0,1,.78,8.23l1.22-.34A72.66,72.66,0,0,0,1062.51,540.56Zm8.4.26h-4v3.65h3.24v6.09h-.6v-1.14h-4.89v1.14h-.6v-6.09h2.25v-7h.6v2.76h4Zm-1.35,8V545h-4.89v3.82Z" transform="translate(-802.31 -449.11)"/><path class="cls-2" d="M1079.31,550.62h-4.26V550h3.65v-5.91h.61Z" transform="translate(-802.31 -449.11)"/><path class="cls-2" d="M1101,549.73l-.26.65h-4.12a23.87,23.87,0,0,1-3-.14,5.76,5.76,0,0,1-1.91-.61,4.55,4.55,0,0,1-1.53-1.29,14.44,14.44,0,0,1-2.08,2.34l-.43-.51a11.83,11.83,0,0,0,2.19-2.42v-5.57h-2.1v-.56h2.7v6.1a3.65,3.65,0,0,0,1.36,1.34,4.81,4.81,0,0,0,1.87.65c.64.07,1.88.11,3.72.11C1098.33,549.82,1099.52,549.79,1101,549.73Zm-10.26-9.82-.46.34a24.14,24.14,0,0,0-2.06-2.37l.44-.34A16.45,16.45,0,0,1,1090.74,539.91Zm10.16,4.17h-2.45v4.68h-.6v-4.68h-3.2a5.86,5.86,0,0,1-2.32,4.37L1092,548a5.63,5.63,0,0,0,2.09-3.93h-2.46v-.56h2.53a14,14,0,0,0,.06-1.42v-1.65h-2.31v-.56h2.31v-2.41h.6v2.41h3.08v-2.41h.6v2.41h2.06v.56h-2.06v3.07h2.45Zm-3.05-.56v-3.07h-3.08v1.65a14,14,0,0,1-.06,1.42Z" transform="translate(-802.31 -449.11)"/><path class="cls-2" d="M1107.42,540.88a18.43,18.43,0,0,1-1.5,2v7.58h-.6v-6.89a20.55,20.55,0,0,1-2.1,2l-.38-.49a19.8,19.8,0,0,0,4.05-4.54Zm-.3-3.14a19.48,19.48,0,0,1-3.82,3.32l-.4-.44a16.61,16.61,0,0,0,3.71-3.2Zm8.78,4.84h-2.45v6.72a1.07,1.07,0,0,1-1.22,1.2h-2.16l-.22-.56c.43,0,.85,0,1.28,0a6.4,6.4,0,0,0,1.5-.09.37.37,0,0,0,.22-.38v-6.93h-5.38V542h8.43Zm-.68-3.8h-7.08v-.55h7.08Z" transform="translate(-802.31 -449.11)"/><path class="cls-3" d="M971.29,590.73H955.64l0,.13c2,1,4,2,6,3a1.58,1.58,0,0,1,1.08,1.67c0,11.63,0,23.25,0,34.88v1.21l-1.9-.93c-3.91-1.94-7.81-3.89-11.74-5.8a2.12,2.12,0,0,1-1.32-2.14q0-16.86,0-33.71c0-1.49.63-2.1,2.15-2.1h23c1.61,0,2.21.62,2.21,2.25v32.64c0,1.87-.57,2.42-2.46,2.42h-7.45v-3.74h6.08Zm-12.37,18.35c0,.86.06,1.64,0,2.41s.35,1.27,1.17,1.38C960.51,610.06,960.35,609.47,958.92,609.08Z" transform="translate(-802.31 -449.11)"/></svg>