<svg id="圖層_1" data-name="圖層 1" xmlns="http://www.w3.org/2000/svg" viewBox="0 0 313.05 183.31"><defs><style>.cls-1,.cls-2{fill:#fff;}.cls-2{stroke:#e50032;stroke-miterlimit:10;}</style></defs><title>link-text</title><path class="cls-1" d="M904.83,470.88a27.59,27.59,0,0,1-4.2,6.65l-2.3-1.5a27.47,27.47,0,0,0,4-6.25Zm20.53-15.79h-12v3H924V469H901.23V458.05h9.35v-8.58h2.82v3h12Zm-4.22,5.64H904v5.62h17.16Zm-10,16.35-2.72.39a35.59,35.59,0,0,0-1.25-6.78l2.62-.52A27.43,27.43,0,0,1,911.16,477.08Zm7.81,0-2.69.61a27.6,27.6,0,0,0-2.19-6.91l2.69-.7A32.25,32.25,0,0,1,919,477.08Zm7.84-.38-2.59.95a30.1,30.1,0,0,0-3.53-6.56l2.53-1.25A33.2,33.2,0,0,1,926.81,476.7Z" transform="translate(-803.97 -448.84)"/><path class="cls-1" d="M958.42,463.24H945.87V473h7.75v-8h2.79v12.15h-2.78v-1.5H932.86V465.07h2.78v8h7.49v-9.8H930.67v-2.69h12.45v-4.93h-10.3V453h10.3v-3.69h2.75V453h10.34v2.69H945.87v4.92h12.55Z" transform="translate(-803.97 -448.84)"/><path class="cls-1" d="M976.5,474.13A2.92,2.92,0,0,1,976,476a2.48,2.48,0,0,1-1.27.86,11,11,0,0,1-2.62.21c-.62,0-1.18,0-1.67-.05l-1-2.75a11.66,11.66,0,0,0,1.49.08,14.84,14.84,0,0,0,2.4-.12.64.64,0,0,0,.57-.66v-3.23h-6.15a13.53,13.53,0,0,1-2.87,6.87l-2.34-1.5q2.84-2.85,2.84-10v-8.19H976.5Zm14.11-18.63H962.76v-2.65h27.85Zm-15.94-4.39-2.94,1.35a28.27,28.27,0,0,0-4.67-2.14l3-1.44A21,21,0,0,1,974.67,451.11Zm-.8,11.59v-2.62H968v2.63Zm0,5.21v-2.72h-5.82v2.72Zm12-17.63a22.81,22.81,0,0,1-4.55,2.17l-2.94-1.34a35.91,35.91,0,0,0,4.52-2.27Zm-3.32,21.5h-2.79V458h2.78Zm5.82,2c0,1.34-.3,2.23-.92,2.67a6.25,6.25,0,0,1-3.42.66c-.66,0-1.35,0-2.09-.06l-.89-2.75h4a.53.53,0,0,0,.41-.25.85.85,0,0,0,.2-.52V457.25h2.72Z" transform="translate(-803.97 -448.84)"/><path class="cls-1" d="M1003.28,450.5a22.71,22.71,0,0,1-7.58,7.36l-1.31-2.49a20.42,20.42,0,0,0,6.39-6.16Zm.8,7.84a39.26,39.26,0,0,1-2.82,4v15h-2.88V465.42a16.66,16.66,0,0,1-2.69,2l-1.25-2.59a25.07,25.07,0,0,0,7.17-7.78Zm18.47,18.46h-19.67v-2.69h8.28v-7.85H1004v-2.75h7.17v-6.78h-8.09v-2.69h8.09a38.35,38.35,0,0,0-2.11-4.21l2.91-.7a28.59,28.59,0,0,1,2.22,4.91h7.76v2.69H1014v6.78h7.17v2.75H1014v7.85h8.55Z" transform="translate(-803.97 -448.84)"/><path class="cls-1" d="M909.15,495.54h-3.49V501q1.13-.36,2.94-1.14l.33,2.84c-1.18.5-2.27.93-3.27,1.28v8.8a2.83,2.83,0,0,1-.5,1.76,2.31,2.31,0,0,1-1.15.86,7.84,7.84,0,0,1-2.14.21c-.55,0-1.21,0-2,0l-.95-2.75,3.42,0c.36,0,.55-.17.55-.52V505c-1.61.5-2.83.85-3.65,1.06l-.8-2.72c1.89-.49,3.37-.92,4.45-1.31v-6.47h-4.23v-2.72h4.23V487.7h2.75v5.12h3.49Zm17.77,17.64-1.32,2.42a25.45,25.45,0,0,1-7.87-3.58,29,29,0,0,1-8.55,3.61l-1.66-2.51a21.76,21.76,0,0,0,7.83-2.92,15.13,15.13,0,0,1-4.12-6.6H910.1V501h14.5v2.41a21,21,0,0,1-4.67,6.78A26.15,26.15,0,0,0,926.92,513.18Zm-.4-14h-3.87c-1.71,0-2.57-.9-2.57-2.71v-5.71h-5q.18,6.41-4.39,8.83l-2.05-2a6.89,6.89,0,0,0,2.81-2.43,7.09,7.09,0,0,0,.82-3.68v-3.3h10.59v7.9a.38.38,0,0,0,.41.43h3.23Zm-5.19,4.41h-7.15a10,10,0,0,0,3.52,4.91A18.82,18.82,0,0,0,921.33,503.6Z" transform="translate(-803.97 -448.84)"/><path class="cls-1" d="M959,512.69l-1.1,2.72q-2.79.09-5.43.09-9.18,0-12.11-.8a9.25,9.25,0,0,1-4.75-2.93,31.65,31.65,0,0,1-3,4.19l-2.14-1.71a22.93,22.93,0,0,0,5-9.17H931v-2.76a34.78,34.78,0,0,0,4.18-5.47h-4.6v-2.66h7.82v2.66a46.53,46.53,0,0,1-3.91,5.61h3.88v2.62a24.87,24.87,0,0,1-1.67,4.38,7.34,7.34,0,0,0,2.15,1.78,10.14,10.14,0,0,0,2.5,1,25.77,25.77,0,0,0,4.62.42q3.36.11,7.54.11C955.38,512.75,957.19,512.73,959,512.69Zm-20.74-21.28-2.19,2a25.19,25.19,0,0,0-4.47-3.9l2.14-2A27.25,27.25,0,0,1,938.21,491.41Zm19.58,9.89a42.48,42.48,0,0,1-.25,4.56,7.27,7.27,0,0,1-.84,3.17c-.4.54-1.33.81-2.8.81-.5,0-1.08,0-1.73-.06l-.85-2.56q1.44.09,2.31.09c.5,0,.82-.08,1-.25a3.29,3.29,0,0,0,.32-1.29c.08-.7.14-1.44.17-2.21h-5v7.82h-2.62v-6.44a27.17,27.17,0,0,1-7.06,5.89l-1.86-2a22.44,22.44,0,0,0,6.72-5.29H940l.91-7h6.54v-2.34H939.8V492H957v6.88h-6.95v2.47Zm-10-10.92-2.56,1.25a19.4,19.4,0,0,0-2.78-2.52l2.33-1.58A18.65,18.65,0,0,1,947.8,490.38Zm-.36,10.92v-2.47h-4.12L943,501.3Zm7.6-12.83a23.7,23.7,0,0,1-2.85,3l-2.69-1.13a20.22,20.22,0,0,0,2.82-2.81Zm-.67,8.09v-2.34h-4.29v2.34Z" transform="translate(-803.97 -448.84)"/><path class="cls-1" d="M989.08,494.05H967.35v8.7a31.12,31.12,0,0,1-2.45,13.07l-2.34-1.71q2.07-3.94,2.07-12.34V488.23h24.45Zm-2.81-2.1v-1.5H967.35V492Zm-12.17,9.53a20,20,0,0,1-1.72,2.31v11.89h-2.56v-9.53c-.25.21-.69.53-1.31,1l-1-2.4a20.14,20.14,0,0,0,4.8-4.93Zm.58-5.77a18.36,18.36,0,0,1-5.92,5l-1-2.44a16.06,16.06,0,0,0,4.92-3.86Zm16.09,18.09-1.17,2.05a39.32,39.32,0,0,1-7-2.4,35.87,35.87,0,0,1-8.44,2.37l-.87-2.07a30.79,30.79,0,0,0,6.78-1.65,21,21,0,0,1-2.52-1.82,30,30,0,0,1-3.11,1.86l-1.31-1.83a18.46,18.46,0,0,0,2.75-1.53c-.2-.19-.51-.52-.92-1l1.65-1.34,1,1a11.37,11.37,0,0,0,1.53-1.56H975.8v-6l-.95.76-1.7-1.76a19.17,19.17,0,0,0,4.6-4.5l2.36.67a4.12,4.12,0,0,1-.34.53h10.44v2H978.13a9.61,9.61,0,0,1-1.14,1.19h11.94v7.11h-7.14a13,13,0,0,1-.92,1.31h8.31v1.86a22.22,22.22,0,0,1-4,3A30.73,30.73,0,0,0,990.77,513.8Zm-4.56-12.26v-1.05h-7.75v1.05Zm0,2.69v-1.08h-7.75v1.08Zm-.45,4.84h-6.27a14,14,0,0,0,3.22,1.94A15.7,15.7,0,0,0,985.76,509.07Z" transform="translate(-803.97 -448.84)"/><path class="cls-1" d="M1022.64,491.17H999.32v12.61a26.94,26.94,0,0,1-2.59,12.09l-2.27-1.55a26.59,26.59,0,0,0,2.14-10.54v-15.3h26Zm-2,6.17c-.05,2.81-.21,5.89-.46,9.25s-.46,5.48-.62,6.32a3.36,3.36,0,0,1-.84,1.85,2.73,2.73,0,0,1-1.26.73,20.72,20.72,0,0,1-3.52.17c-.94,0-1.6,0-2,0l-1.22-2.72q1,.08,5.49.06a.66.66,0,0,0,.53-.28,21.39,21.39,0,0,0,.57-4.45q.33-4.16.45-8.16h-8.29q-.39,10.4-7.86,15.81L999.65,514a18.23,18.23,0,0,0,5-5.56,20.64,20.64,0,0,0,2-8.36h-5.88v-2.72h6c.12-2.13.17-3.73.12-4.8l2.79,0c0,1.35-.1,2.93-.19,4.77Z" transform="translate(-803.97 -448.84)"/><path class="cls-1" d="M817.1,547.45l-.4.5a13.48,13.48,0,0,1-3.49-3.19,15.23,15.23,0,0,1-2.38-4.27V547h3.46v.58h-3.46v2.65h-.6v-2.65h-3.45V547h3.45v-6.51a17.63,17.63,0,0,1-5.87,7.46l-.39-.5a17.09,17.09,0,0,0,5.75-7.08h-5.49v-.57h6v-2.56h.6v2.56h6v.57h-5.5A14.22,14.22,0,0,0,817.1,547.45Z" transform="translate(-803.97 -448.84)"/><path class="cls-1" d="M824.11,537.42A13,13,0,0,1,819.4,544l-.48-.46a12.11,12.11,0,0,0,4.57-6.29Zm6.79,12.65-.54.31a20.3,20.3,0,0,0-.94-2A49.85,49.85,0,0,1,821,550l-.18-.66a30.2,30.2,0,0,0,4.35-7.8l.6.26a34,34,0,0,1-4.08,7.5,42.65,42.65,0,0,0,7.41-1.41c-.46-.8-1.1-1.78-1.94-3l.55-.31A30.36,30.36,0,0,1,830.9,550.07Zm1.2-6.71-.39.52a12.48,12.48,0,0,1-4.32-6h-1.12v-.57h1.62A11.13,11.13,0,0,0,832.1,543.36Z" transform="translate(-803.97 -448.84)"/><path class="cls-1" d="M846.28,549a1.28,1.28,0,0,1-.33,1,2.53,2.53,0,0,1-1.52.3c-.41,0-1,0-1.81-.06l-.22-.64c.83.06,1.5.09,2,.09a2.81,2.81,0,0,0,1-.13.5.5,0,0,0,.25-.47V538.09H834v-.55h12.25Zm-2.34-8.07h-9.5v-.56h9.5Zm-1.08,6.5h-7.33V543h7.33Zm-.6-.57V543.6h-6.13v3.21Z" transform="translate(-803.97 -448.84)"/><path class="cls-1" d="M862,539.55h-11v3.72a13.73,13.73,0,0,1-1.67,7l-.48-.48a12,12,0,0,0,1.55-6V539h5.67a9.46,9.46,0,0,0-.65-1.65l.57-.24a12.37,12.37,0,0,1,.75,1.89H862Zm0,10.29H851.22v-.57h6.56a39.88,39.88,0,0,0,2.7-8.12l.59.18a46.28,46.28,0,0,1-2.6,7.94H862Zm-7.44-2.39-.56.17a31.85,31.85,0,0,0-2-5.78l.52-.23A37.64,37.64,0,0,1,854.57,547.45Zm2.73-.67-.6.15a36.56,36.56,0,0,0-1.1-6.17l.57-.13A44.77,44.77,0,0,1,857.3,546.78Z" transform="translate(-803.97 -448.84)"/><path class="cls-1" d="M869,538.49h-.81v11.89h-.6v-3a30.57,30.57,0,0,1-3.49,1.23L864,548c.36-.09.73-.2,1.09-.32v-9.23h-1v-.56H869Zm-1.41,2.36v-2.36h-2v2.36Zm0,3.09v-2.53h-2v2.53Zm0,2.88V544.5h-2v3Zm9.42-2h-5.32c-.15.57-.31,1.15-.5,1.73h5a7.68,7.68,0,0,1-.57,3,1.51,1.51,0,0,1-1.42.67h-2.46l-.23-.66c.37,0,.88.05,1.5.05a10.18,10.18,0,0,0,1.62-.07.7.7,0,0,0,.36-.27,2.55,2.55,0,0,0,.33-.92,7.71,7.71,0,0,0,.2-1.26h-5.16c.22-.66.45-1.42.69-2.27h-2.19v-.54H877Zm-.81-1.9h-6.49v-4.58h2.94v-1.12h.58v1.12h3Zm-3.55-2.54v-1.5h-2.36v1.5Zm0,2V540.9h-2.36v1.48Zm3-2v-1.5h-2.39v1.5Zm0,2V540.9h-2.39v1.48Z" transform="translate(-803.97 -448.84)"/><path class="cls-1" d="M891.24,539.86H880.8v2.61a24.32,24.32,0,0,1-.39,5,11.15,11.15,0,0,1-1,2.78l-.48-.42a10.37,10.37,0,0,0,.9-2.56,23.8,23.8,0,0,0,.36-4.77v-4.88h11Zm-.59-.53v-1.14H880.8v1.14Zm-6.38,4a11.25,11.25,0,0,1-.93,1.18v5.73h-.6v-5.11a10.42,10.42,0,0,1-1.3,1.06l-.39-.43a10.09,10.09,0,0,0,2.74-2.75Zm.4-2.78a9.94,9.94,0,0,1-2.89,2.43l-.33-.44a8.55,8.55,0,0,0,2.8-2.35Zm7.46,9.26-.36.48a14.7,14.7,0,0,1-3.36-1.18,16,16,0,0,1-4.21,1.19l-.24-.48a17.42,17.42,0,0,0,3.88-1,10.87,10.87,0,0,1-1.78-1.26,10.86,10.86,0,0,1-1.46,1l-.36-.44a9.61,9.61,0,0,0,1.43-.88c-.23-.22-.45-.46-.66-.7l.42-.36a6.12,6.12,0,0,0,.66.72,8.21,8.21,0,0,0,1.29-1.35h-1.94v-3.09h5.82v3.09h-3.21a11.48,11.48,0,0,1-.85,1h4.11v.5a8.34,8.34,0,0,1-2.3,1.82A15.65,15.65,0,0,0,892.13,549.81Zm-.18-8.27h-5.78a10,10,0,0,1-1.64,1.44l-.36-.44a8.49,8.49,0,0,0,2.38-2.36l.51.27-.45.6H892Zm-1.27,2.12v-.77H886v.77Zm0,1.29v-.81H886V545Zm-.08,2h-3.91l-.22.2a10.47,10.47,0,0,0,2,1.33A8.43,8.43,0,0,0,890.6,547Z" transform="translate(-803.97 -448.84)"/><path class="cls-1" d="M907,538.2H895.72v6.2a11.74,11.74,0,0,1-1.32,5.9l-.48-.43a10.45,10.45,0,0,0,1.2-5.46v-6.78H907ZM906,541.39q-.27,6.11-.52,7.45c-.16.91-.61,1.36-1.37,1.36h-1.92l-.22-.6,1,0a3.86,3.86,0,0,0,1.47-.15.82.82,0,0,0,.33-.42,17,17,0,0,0,.33-2.6c.14-1.55.22-3.05.25-4.5h-4.76a11,11,0,0,1-1.39,5.55,8.77,8.77,0,0,1-3.15,2.8l-.39-.45a7.76,7.76,0,0,0,3.28-3.05A10.89,10.89,0,0,0,900,542h-3.52v-.56H900c0-.68,0-1.32,0-1.94v-.61h.58v.55c0,.64,0,1.31,0,2Z" transform="translate(-803.97 -448.84)"/><path class="cls-1" d="M915.08,538.17a6.15,6.15,0,0,1-.6,1,11,11,0,0,1-1.34,1.61,13.29,13.29,0,0,1-1.63,1.33,19.3,19.3,0,0,1-2.1,1.21l-.41-.5a13,13,0,0,0,3-1.78,13.12,13.12,0,0,0-1.83-1.52l.4-.43a20.39,20.39,0,0,1,1.89,1.55,9.79,9.79,0,0,0,1.94-2.42h-4v-.57h4.68Zm6.63,11.74H909.33v-.57h4.41a11,11,0,0,0-1.13-2.28l.4-.28h-1.16V543.6h7.36v3.18H918l.43.25a15.3,15.3,0,0,1-1.06,2.31h4.38Zm-3.1-3.71v-2h-6.16v2Zm-.28-4.16h-5.55v-.57h5.55Zm-.5,4.74h-4.7a19,19,0,0,1,1.26,2.56h2.27A13.62,13.62,0,0,0,917.83,546.78Zm4.25-4-.37.49a11.8,11.8,0,0,1-5.78-5.86l.53-.26a9.53,9.53,0,0,0,1,1.88,14.27,14.27,0,0,0,1.76-1.84l.56.33a21.53,21.53,0,0,1-2,2,11.83,11.83,0,0,0,1.12,1.22,15.36,15.36,0,0,0,1.89-2.06l.55.38a19.7,19.7,0,0,1-2,2.05A13.23,13.23,0,0,0,922.08,542.79Z" transform="translate(-803.97 -448.84)"/><path class="cls-1" d="M936.94,549.74l-.38.52a15.16,15.16,0,0,1-5.67-9.57,14.63,14.63,0,0,1-2.31,5.31,16,16,0,0,1-4,4.23l-.45-.48a12.9,12.9,0,0,0,2.1-1.76,15.5,15.5,0,0,0,1.72-2.12,18.85,18.85,0,0,0,1.28-2.2,18.09,18.09,0,0,0,.93-2.28,7.6,7.6,0,0,0,.4-1.43l0-1.83h-1.58v-.57h2.16a16.37,16.37,0,0,0,1.63,7A13.84,13.84,0,0,0,936.94,549.74Z" transform="translate(-803.97 -448.84)"/><path class="cls-1" d="M952.21,549.31l-.23.59H946.9a10.62,10.62,0,0,1-3.46-.45,6.73,6.73,0,0,1-2.18-1.27,9.12,9.12,0,0,1-1.88,2l-.46-.42a7.31,7.31,0,0,0,3-4.85h-2.5v-.56a31.44,31.44,0,0,0,2.47-3.23H939v-.56h3.55v.56c-.7,1-1.53,2.11-2.46,3.23h2.4v.56a9.91,9.91,0,0,1-1,2.79,7.44,7.44,0,0,0,5.12,1.66h3.4Zm-10.15-9.86-.46.4a16.15,16.15,0,0,0-2.11-2.13l.37-.42A18.53,18.53,0,0,1,942.06,539.45Zm9.89,3.44-.34.51a30.21,30.21,0,0,0-4.13-2.49v2.56h2.43V544l-.57,1.05H951a6.1,6.1,0,0,1-.52,2.56,1.43,1.43,0,0,1-1.3.63h-1.66l-.18-.61c.3,0,.65,0,1,0a4.05,4.05,0,0,0,1.26-.12,1,1,0,0,0,.45-.62,4.09,4.09,0,0,0,.22-1.31h-1.94c.36-.67.64-1.2.83-1.61h-2.58q0,2.68-3.09,4.3l-.39-.47Q946,546.31,946,544h-1.9v-.55h2.77v-2.6a12.63,12.63,0,0,1-4.16,2.64l-.33-.48a13.93,13.93,0,0,0,4.24-2.64h-3.52v-.56h3.77v-1.34c-.91.09-1.94.14-3.09.16l-.19-.55a28,28,0,0,0,6.92-.82l.27.53a20.37,20.37,0,0,1-3.31.61v1.41h4.16v.56h-4A35.92,35.92,0,0,1,952,542.89Z" transform="translate(-803.97 -448.84)"/><path class="cls-1" d="M967.16,549.28l-.22.59h-5.09a10.63,10.63,0,0,1-3.39-.43,6.6,6.6,0,0,1-2.22-1.26,10.55,10.55,0,0,1-1.91,2l-.46-.42a8.07,8.07,0,0,0,3.27-4.89h-2.7v-.56L957,541h-3v-.56h3.66V541c-1.38,1.78-2.24,2.86-2.58,3.25h2.59v.56a9.38,9.38,0,0,1-1.2,2.88,6.65,6.65,0,0,0,2.11,1.21,9,9,0,0,0,3,.41C964.16,549.33,966,549.31,967.16,549.28Zm-9.93-10-.47.41a15.59,15.59,0,0,0-2.11-2.14l.38-.42A19.31,19.31,0,0,1,957.23,539.31Zm9.71,1.26h-2.21v6.63c0,.69-.37,1-1.12,1h-2l-.22-.55h2.29q.42,0,.42-.39v-6.72h-5.72V540h5.72v-2.78h.6V540h2.21Zm-4.82,4.71-.51.38a16.54,16.54,0,0,0-2.47-3.45l.49-.37A18.81,18.81,0,0,1,962.12,545.28Z" transform="translate(-803.97 -448.84)"/><path class="cls-1" d="M979.82,537.76h-3.65v5.91h-.61v-6.5h4.26Z" transform="translate(-803.97 -448.84)"/><path class="cls-1" d="M991.12,541H988c-.06.2-.12.36-.18.51a20.23,20.23,0,0,1,3.25,1.9l-.37.47a18.83,18.83,0,0,0-3.14-1.87,6.25,6.25,0,0,1-3.21,2.46L984,544q2.79-1.08,3.39-3h-3.06v-.54h3.23a8.71,8.71,0,0,0,.19-1.64H986a10.05,10.05,0,0,1-1.25,1.13l-.41-.4a7.6,7.6,0,0,0,2.18-2.4l.58.18a7.78,7.78,0,0,1-.64.93h4.31v.56h-2.48a10.61,10.61,0,0,1-.18,1.64h3Zm4.23,9.23h-.6v-1h-8.42v1h-.6v-5.76h9.62Zm-.6-3.64V545h-8.42v1.59Zm0,2.16v-1.63h-8.42v1.63Zm1.86-5.83h-4.78v-4.66h4.78Zm-.6-.54v-3.56h-3.58v3.56Z" transform="translate(-803.97 -448.84)"/><path class="cls-1" d="M1005.1,546.69c-.35.13-.81.28-1.37.46v3.12h-.6v-2.94l-4,1.22-.2-.59,1.2-.33v-9.49h-1v-.56h5.66v.56h-1.1v8.41l1.26-.43Zm-2-6.11v-2.44h-2.4v2.44Zm0,3.15v-2.59h-2.4v2.59Zm0,3v-2.44h-2.4v3.16Q1002.2,547,1003.13,546.73Zm9.08,3.08-.5.48a11.09,11.09,0,0,1-3.48-4.82,8.44,8.44,0,0,1-3.78,4.87l-.39-.49a7.88,7.88,0,0,0,3.77-5.34h-3.41v-.57h3.48a9.77,9.77,0,0,0,.08-1.35V540.9h-3.23v-.57h3.75a13.67,13.67,0,0,0,2.24-3.16l.6.26a18.91,18.91,0,0,1-2,2.9h2.43v.57h-3.15v1.29a16.25,16.25,0,0,1-.09,1.75h3.55v.57h-3.53A10.75,10.75,0,0,0,1012.21,549.81Zm-4.23-10-.56.31a16,16,0,0,0-1.91-2.68l.52-.33A17.56,17.56,0,0,1,1008,539.82Z" transform="translate(-803.97 -448.84)"/><path class="cls-1" d="M1019.31,542.16c-1,.77-1.71,1.29-2.16,1.57v5.51a1,1,0,0,1-.17.62.77.77,0,0,1-.41.31,4.56,4.56,0,0,1-1.06.07h-.85l-.17-.59,1.31,0a1.17,1.17,0,0,0,.6-.1.42.42,0,0,0,.15-.37V544.1a17.69,17.69,0,0,1-2.41,1.37l-.19-.54c.36-.18,1.23-.68,2.6-1.52v-3.17h-2.44v-.55h2.44v-2.48h.6v2.48h2.45v.55h-2.45V543a15.89,15.89,0,0,0,2-1.41Zm7.2-4.52c0,2-.07,3.33-.15,4.09a1.8,1.8,0,0,1-.63,1.43,3.94,3.94,0,0,1-1.89.31l-.65,0-.27-.66c.3,0,.68,0,1.15,0a3.15,3.15,0,0,0,1.19-.13.81.81,0,0,0,.37-.36,5.3,5.3,0,0,0,.18-1.44c0-.8.07-1.69.07-2.69h-3.05a7.57,7.57,0,0,1-1,3.69,8.68,8.68,0,0,1-2.95,2.51l-.44-.45a8.43,8.43,0,0,0,2.86-2.3,6.75,6.75,0,0,0,1-3.45H1019v-.57Zm-.33,12.6h-.6v-1.13h-5.26v1.13h-.6v-5.76h6.46Zm-.6-1.71v-3.47h-5.26v3.47Z" transform="translate(-803.97 -448.84)"/><path class="cls-1" d="M1034,538.49h-.81v11.89h-.6v-3a30.57,30.57,0,0,1-3.49,1.23L1029,548c.36-.09.73-.2,1.09-.32v-9.23h-1v-.56H1034Zm-1.41,2.36v-2.36h-2v2.36Zm0,3.09v-2.53h-2v2.53Zm0,2.88V544.5h-2v3Zm9.42-2h-5.32c-.15.57-.31,1.15-.5,1.73h5a7.68,7.68,0,0,1-.57,3,1.51,1.51,0,0,1-1.42.67h-2.46l-.23-.66c.37,0,.88.05,1.5.05a10.18,10.18,0,0,0,1.62-.07.7.7,0,0,0,.36-.27,2.55,2.55,0,0,0,.33-.92,7.71,7.71,0,0,0,.2-1.26h-5.16c.22-.66.45-1.42.69-2.27h-2.19v-.54H1042Zm-.81-1.9h-6.49v-4.58h2.94v-1.12h.58v1.12h3Zm-3.55-2.54v-1.5h-2.36v1.5Zm0,2V540.9h-2.36v1.48Zm3-2v-1.5h-2.39v1.5Zm0,2V540.9h-2.39v1.48Z" transform="translate(-803.97 -448.84)"/><path class="cls-1" d="M1056.26,548.67a1.52,1.52,0,0,1-.43,1.15,1.66,1.66,0,0,1-1.18.41h-1.45l-.24-.62a10,10,0,0,0,1.06,0,2.93,2.93,0,0,0,1.34-.19.71.71,0,0,0,.3-.67V538.17h-10.32v12.06h-.6V537.6h11.52Zm-5.66-1.86-.5.39c-.44-1-.93-1.89-1.46-2.82a15.36,15.36,0,0,1-2.16,4.7l-.56-.32a14.48,14.48,0,0,0,2.29-5.12,35.85,35.85,0,0,0-2.09-2.94l.39-.35a16.08,16.08,0,0,1,1.9,2.5c.23-.89.48-2.12.77-3.69l.59.13q-.57,3-.9,4.29Zm4.48.28-.53.39c-.5-1-1-2-1.6-3a16.37,16.37,0,0,1-2.25,4.57l-.53-.33a14.54,14.54,0,0,0,2.39-4.88,24.07,24.07,0,0,0-2.27-3.21l.39-.37a29.86,29.86,0,0,1,2.08,2.85c.21-.78.48-2.11.82-4l.58.13a45.27,45.27,0,0,1-1,4.49C1053.77,544.72,1054.41,545.82,1055.08,547.09Z" transform="translate(-803.97 -448.84)"/><path class="cls-1" d="M1064.86,540.29h-1l.4.25a73.53,73.53,0,0,1-1.33,7.47,15.8,15.8,0,0,0,1.57-.55l.12.56q-2.23.76-5.46,1.62l-.21-.55,1.66-.44a66.84,66.84,0,0,0-.79-8.08l.44-.28h-1v-.54H1062a13.46,13.46,0,0,0-.85-2.32l.53-.26c.31.74.63,1.6.95,2.58h2.25Zm-1.22,0h-3.33a71.14,71.14,0,0,1,.78,8.23l1.22-.34A72.66,72.66,0,0,0,1063.64,540.29Zm8.4.26h-4v3.65h3.24v6.09h-.6v-1.14h-4.89v1.14h-.6V544.2h2.25v-7h.6V540h4Zm-1.35,8v-3.82h-4.89v3.82Z" transform="translate(-803.97 -448.84)"/><path class="cls-1" d="M1080.44,550.35h-4.26v-.59h3.65v-5.91h.61Z" transform="translate(-803.97 -448.84)"/><path class="cls-1" d="M1102.13,549.46l-.26.65h-4.12a23.87,23.87,0,0,1-3-.14,5.76,5.76,0,0,1-1.91-.61,4.55,4.55,0,0,1-1.53-1.29,14.44,14.44,0,0,1-2.08,2.34l-.43-.51a11.83,11.83,0,0,0,2.19-2.42v-5.57h-2.1v-.56h2.7v6.1a3.6,3.6,0,0,0,1.37,1.34,4.71,4.71,0,0,0,1.86.65c.64.07,1.88.11,3.72.11C1099.46,549.55,1100.65,549.52,1102.13,549.46Zm-10.26-9.82-.46.34a23,23,0,0,0-2.06-2.37l.44-.34A16.45,16.45,0,0,1,1091.87,539.64Zm10.16,4.17h-2.45v4.68h-.6v-4.68h-3.19a5.9,5.9,0,0,1-2.33,4.37l-.38-.44a5.63,5.63,0,0,0,2.09-3.93h-2.46v-.56h2.53a14,14,0,0,0,.06-1.42v-1.65H1093v-.56h2.3v-2.41h.6v2.41H1099v-2.41h.6v2.41h2.06v.56h-2.06v3.07H1102Zm-3-.56v-3.07h-3.08v1.65a14,14,0,0,1-.06,1.42Z" transform="translate(-803.97 -448.84)"/><path class="cls-1" d="M1108.55,540.61a18.43,18.43,0,0,1-1.5,2v7.58h-.6v-6.89a20.55,20.55,0,0,1-2.1,2l-.38-.49a19.8,19.8,0,0,0,4-4.54Zm-.3-3.14a19.48,19.48,0,0,1-3.82,3.32l-.4-.44a16.61,16.61,0,0,0,3.71-3.2Zm8.78,4.84h-2.45V549a1.07,1.07,0,0,1-1.22,1.2h-2.16l-.22-.56c.43,0,.85,0,1.28,0a6.4,6.4,0,0,0,1.5-.09.37.37,0,0,0,.22-.38v-6.93h-5.38v-.56H1117Zm-.68-3.8h-7.08V538h7.08Z" transform="translate(-803.97 -448.84)"/><path class="cls-2" d="M972.42,590.46H956.77l0,.13c2,1,4,2,6,3a1.58,1.58,0,0,1,1.08,1.67c0,11.63,0,23.25,0,34.88v1.21l-1.9-.93c-3.91-1.94-7.81-3.89-11.74-5.8a2.12,2.12,0,0,1-1.32-2.14q0-16.86,0-33.71c0-1.49.63-2.1,2.15-2.1h23c1.61,0,2.21.62,2.21,2.25v32.64c0,1.87-.57,2.42-2.46,2.42h-7.45v-3.74h6.08Zm-12.37,18.35c0,.86.06,1.64,0,2.41s.35,1.27,1.17,1.38C961.64,609.79,961.48,609.2,960.05,608.81Z" transform="translate(-803.97 -448.84)"/></svg>